<svg width="14" height="11" viewBox="0 0 14 11" fill="none" xmlns="http://www.w3.org/2000/svg">
<path d="M12.9999 0.833264L0.999943 0.833264C0.878448 0.833645 0.759358 0.867154 0.655492 0.930182C0.551625 0.993212 0.466915 1.08337 0.410479 1.19097C0.354043 1.29856 0.328018 1.4195 0.335207 1.54079C0.342396 1.66207 0.382525 1.77909 0.451276 1.87926L6.45128 10.5459C6.69994 10.9053 7.29861 10.9053 7.54794 10.5459L13.5479 1.87926C13.6174 1.7793 13.6581 1.66222 13.6657 1.54073C13.6733 1.41925 13.6474 1.29801 13.5909 1.19019C13.5344 1.08237 13.4495 0.992095 13.3453 0.929168C13.2411 0.866241 13.1217 0.833073 12.9999 0.833264Z" fill="#FF3B30"/>
</svg>
