<svg width="15" height="11" viewBox="0 0 15 11" fill="none" xmlns="http://www.w3.org/2000/svg">
<path d="M1.50006 10.1667H13.5001C13.6216 10.1664 13.7406 10.1328 13.8445 10.0698C13.9484 10.0068 14.0331 9.91663 14.0895 9.80903C14.146 9.70144 14.172 9.5805 14.1648 9.45921C14.1576 9.33793 14.1175 9.22091 14.0487 9.12074L8.04872 0.45407C7.80006 0.094737 7.20139 0.094737 6.95206 0.45407L0.952057 9.12074C0.882607 9.2207 0.84188 9.33778 0.8343 9.45927C0.826721 9.58075 0.85258 9.70199 0.909066 9.80981C0.965553 9.91763 1.05051 10.0079 1.1547 10.0708C1.25889 10.1338 1.37834 10.1669 1.50006 10.1667Z" fill="#34C759"/>
</svg>
