<svg width="12" height="14" viewBox="0 0 12 14" fill="none" xmlns="http://www.w3.org/2000/svg">
<path fill-rule="evenodd" clip-rule="evenodd" d="M1.6667 0.866699C1.22487 0.866699 0.866699 1.22487 0.866699 1.6667V6.99995V7.00003V12.3333C0.866699 12.7751 1.22487 13.1333 1.6667 13.1333H7.6667C8.58612 13.1333 9.46788 12.768 10.118 12.1179C10.7681 11.4678 11.1334 10.586 11.1334 9.66662C11.1334 8.7472 10.7681 7.86544 10.118 7.21531C9.93164 7.02895 9.72625 6.86601 9.50639 6.72836C10.122 6.0841 10.4667 5.2265 10.4667 4.33337C10.4667 3.41395 10.1015 2.53219 9.45134 1.88206C8.80121 1.23194 7.91945 0.866699 7.00003 0.866699H1.6667ZM2.4667 7.80003H7.00003C7.00799 7.80003 7.01594 7.80001 7.0239 7.79995H7.6667C8.16177 7.79995 8.63656 7.99662 8.98663 8.34668C9.3367 8.69675 9.53337 9.17155 9.53337 9.66662C9.53337 10.1617 9.3367 10.6365 8.98663 10.9865C8.63656 11.3366 8.16177 11.5333 7.6667 11.5333H2.4667V7.80003ZM7.01754 6.19995C7.50629 6.19537 7.97403 5.99924 8.31996 5.6533C8.67003 5.30323 8.8667 4.82844 8.8667 4.33337C8.8667 3.8383 8.67003 3.3635 8.31996 3.01343C7.9699 2.66337 7.4951 2.4667 7.00003 2.4667H2.4667V6.19995H7.01754Z" fill="#333333"/>
</svg>
