<svg width="208" height="138" viewBox="0 0 208 138" fill="none" xmlns="http://www.w3.org/2000/svg">
<g clip-path="url(#clip0_1913_19702)">
<path d="M163.049 86.3786H151.64C148.844 86.3786 146.502 84.4852 146.502 82.087C146.502 80.888 147.107 79.8151 148.013 79.0577C148.92 78.3005 150.205 77.7954 151.64 77.7954H153.303C154.738 77.7954 156.023 77.2906 156.929 76.5332C157.836 75.776 158.44 74.7031 158.44 73.5041C158.44 71.1689 156.174 69.2125 153.303 69.2125H118.454C117.544 69.2125 116.959 68.0989 116.959 67.1929C116.959 64.9209 114.768 63.0906 112.048 63.0906H99.0795C98.7516 63.0906 98.4371 62.9609 98.2052 62.7302C97.9733 62.4994 97.843 62.1864 97.843 61.86C97.843 61.5336 97.9733 61.2206 98.2052 60.9898C98.4371 60.759 98.7516 60.6294 99.0795 60.6294H148.769C150.96 60.6294 153 59.872 154.436 58.673C155.871 57.4738 156.778 55.7699 156.778 53.9396C156.778 50.2161 153.151 47.2498 148.769 47.2498H123.105C119.078 47.2498 115.092 44.1575 111.065 44.1575H96.7365C94.635 44.1575 92.9315 42.4621 92.9315 40.3707C92.9315 38.2796 94.635 36.5843 96.7365 36.5843H128.822C130.333 36.5843 131.768 36.0792 132.751 35.2588C133.733 34.4384 134.337 33.3024 134.337 31.9771C134.337 29.4526 131.844 27.37 128.822 27.37H54.8502C53.3392 27.37 51.9035 27.8748 50.9213 28.6953C49.9391 29.5157 49.3345 30.6519 49.3345 31.9771C49.3345 34.5016 51.8279 36.5843 54.8502 36.5843H56.7393C59.2325 36.5843 61.3483 38.2881 61.3483 40.434C61.3483 41.5067 60.8193 42.4534 59.9882 43.1478C59.1572 43.8419 58.0238 44.2837 56.7393 44.2837H47.5968C46.01 44.2837 44.4987 44.8516 43.4409 45.7353C42.3831 46.6187 41.7032 47.8179 41.7032 49.2064C41.7032 51.9202 44.3476 54.0659 47.5212 54.0659H56.8149C59.8371 54.0659 62.3306 56.1485 62.3306 58.673C62.3306 59.9352 61.726 61.0712 60.7437 61.8916C59.7615 62.712 58.4014 63.2169 56.8902 63.2169H48.579C47.2189 63.2169 46.01 63.6587 45.1033 64.4161C44.1967 65.1733 43.6676 66.1832 43.6676 67.3192C43.6676 69.5911 45.8588 71.4214 48.579 71.4214H55.3036C59.1572 71.4214 62.255 74.0089 62.255 77.2276C62.255 78.8054 61.4993 80.3199 60.215 81.3296C58.9305 82.4026 57.1925 83.0337 55.3036 83.0337H45.9344C44.0455 83.0337 42.3076 83.6648 41.0986 84.7377C39.8141 85.7474 39.0586 87.199 39.0586 88.7768C39.0586 91.9324 42.1564 94.5199 45.9344 94.5199H74.8649C78.06 94.5199 81.1985 96.287 84.3936 96.287H89.6629C91.6768 96.287 93.3094 97.9117 93.3094 99.9159C93.3094 101.92 91.6768 103.545 89.6629 103.545H76.8376C75.1755 103.545 73.7398 104.113 72.682 104.996C71.6242 105.88 70.9441 107.142 70.9441 108.467C70.9441 111.181 73.5887 113.39 76.8376 113.39H155.418C157.08 113.39 158.516 112.822 159.574 111.938C160.632 111.055 161.312 109.793 161.312 108.467C161.312 105.754 158.667 103.545 155.418 103.545H153.076C150.658 103.545 148.769 101.904 148.769 99.9474C148.769 98.9377 149.222 98.0541 150.053 97.4229C150.809 96.7918 151.943 96.35 153.151 96.35H163.049C164.712 96.35 166.147 95.7821 167.205 94.8985C168.263 94.015 168.943 92.7528 168.943 91.4275C168.943 88.5875 166.298 86.3786 163.049 86.3786Z" fill="url(#paint0_linear_1913_19702)"/>
<path d="M137.741 39.0108V104.661C137.741 109.45 133.843 113.39 128.972 113.39H126.11C124.344 113.39 122.883 112.42 121.665 111.147C119.716 109.026 118.681 106.237 118.681 103.327V95.75C118.681 92.719 116.184 90.2336 113.14 90.2336H77.8828V39.0108C77.8828 36.283 80.1359 34.04 82.876 34.04H132.747C135.549 34.04 137.741 36.283 137.741 39.0108Z" fill="#FCAE17"/>
<path d="M123.643 117.76H68.1765C61.9349 117.76 56.8516 112.766 56.8516 106.633V99.363C56.8516 96.2021 59.4897 93.61 62.707 93.61H110.001C113.219 93.61 115.857 96.2021 115.857 99.363V107.266C115.857 110.237 116.951 113.208 119.01 115.421C120.232 116.748 121.777 117.76 123.643 117.76Z" fill="#FCAE17"/>
<path d="M91.6369 55.1999C93.6153 55.1999 95.2191 53.6038 95.2191 51.6349C95.2191 49.6661 93.6153 48.0699 91.6369 48.0699C89.6585 48.0699 88.0547 49.6661 88.0547 51.6349C88.0547 53.6038 89.6585 55.1999 91.6369 55.1999Z" fill="white"/>
<path d="M91.6369 66.6999C93.6153 66.6999 95.2191 65.1038 95.2191 63.1349C95.2191 61.1661 93.6153 59.5699 91.6369 59.5699C89.6585 59.5699 88.0547 61.1661 88.0547 63.1349C88.0547 65.1038 89.6585 66.6999 91.6369 66.6999Z" fill="white"/>
<path d="M91.6369 78.1999C93.6153 78.1999 95.2191 76.6038 95.2191 74.6349C95.2191 72.6661 93.6153 71.0699 91.6369 71.0699C89.6585 71.0699 88.0547 72.6661 88.0547 74.6349C88.0547 76.6038 89.6585 78.1999 91.6369 78.1999Z" fill="white"/>
<path d="M124.454 48.0699H103.192C101.213 48.0699 99.6094 49.6661 99.6094 51.6349C99.6094 53.6038 101.213 55.1999 103.192 55.1999H124.454C126.432 55.1999 128.036 53.6038 128.036 51.6349C128.036 49.6661 126.432 48.0699 124.454 48.0699Z" fill="white"/>
<path d="M124.338 59.5699H103.307C101.265 59.5699 99.6094 61.2175 99.6094 63.2499C99.6094 65.2824 101.265 66.9299 103.307 66.9299H124.338C126.38 66.9299 128.036 65.2824 128.036 63.2499C128.036 61.2175 126.38 59.5699 124.338 59.5699Z" fill="white"/>
<path d="M124.454 71.0699H103.192C101.213 71.0699 99.6094 72.6661 99.6094 74.6349C99.6094 76.6038 101.213 78.1999 103.192 78.1999H124.454C126.432 78.1999 128.036 76.6038 128.036 74.6349C128.036 72.6661 126.432 71.0699 124.454 71.0699Z" fill="white"/>
</g>
<defs>
<linearGradient id="paint0_linear_1913_19702" x1="106.77" y1="161.618" x2="105.013" y2="-66.2224" gradientUnits="userSpaceOnUse">
<stop stop-color="white"/>
<stop offset="1" stop-color="#EEEEEE"/>
</linearGradient>
<clipPath id="clip0_1913_19702">
<rect width="208" height="138" fill="white"/>
</clipPath>
</defs>
</svg>
