<svg width="20" height="21" viewBox="0 0 20 21" fill="none" xmlns="http://www.w3.org/2000/svg">
<path d="M18.3334 8.2085H1.66675C1.32508 8.2085 1.04175 7.92516 1.04175 7.5835C1.04175 7.24183 1.32508 6.9585 1.66675 6.9585H18.3334C18.6751 6.9585 18.9584 7.24183 18.9584 7.5835C18.9584 7.92516 18.6751 8.2085 18.3334 8.2085Z" fill="white"/>
<path d="M6.66667 14.875H5C4.65833 14.875 4.375 14.5917 4.375 14.25C4.375 13.9083 4.65833 13.625 5 13.625H6.66667C7.00833 13.625 7.29167 13.9083 7.29167 14.25C7.29167 14.5917 7.00833 14.875 6.66667 14.875Z" fill="white"/>
<path d="M12.0833 14.875H8.75C8.40833 14.875 8.125 14.5917 8.125 14.25C8.125 13.9083 8.40833 13.625 8.75 13.625H12.0833C12.425 13.625 12.7083 13.9083 12.7083 14.25C12.7083 14.5917 12.425 14.875 12.0833 14.875Z" fill="white"/>
<path d="M14.6334 18.2082H5.36675C2.05008 18.2082 1.04175 17.2082 1.04175 13.9248V7.07484C1.04175 3.7915 2.05008 2.7915 5.36675 2.7915H14.6251C17.9417 2.7915 18.9501 3.7915 18.9501 7.07484V13.9165C18.9584 17.2082 17.9501 18.2082 14.6334 18.2082ZM5.36675 4.0415C2.75008 4.0415 2.29175 4.4915 2.29175 7.07484V13.9165C2.29175 16.4998 2.75008 16.9498 5.36675 16.9498H14.6251C17.2417 16.9498 17.7001 16.4998 17.7001 13.9165V7.07484C17.7001 4.4915 17.2417 4.0415 14.6251 4.0415H5.36675Z" fill="white"/>
</svg>
