<svg width="300" height="200" viewBox="0 0 300 200" fill="none" xmlns="http://www.w3.org/2000/svg">
<g clip-path="url(#clip0_7427_41519)">
<path fill-rule="evenodd" clip-rule="evenodd" d="M188.109 152.667H102.156C97.0584 152.667 92.9258 148.082 92.9258 142.424C92.9258 136.767 97.0584 132.182 102.156 132.182H134.562C138.201 132.182 141.151 128.91 141.152 124.873L141.152 124.527C141.154 120.674 138.34 117.549 134.867 117.549H134.585C125.429 117.549 118.044 109.271 118.167 99.1112C118.183 97.7422 118.183 96.3739 118.168 95.0042C118.05 84.8489 125.432 76.5769 134.556 76.5769H174.449C178.53 76.5769 181.837 72.9062 181.837 68.3782C181.837 61.3609 186.963 55.6729 193.286 55.6729H202.035C208.358 55.6729 213.484 61.3609 213.484 68.3782V91.5115C213.484 98.0408 218.254 103.334 224.137 103.334H229.307C237.422 103.334 244 110.634 244 119.639C244 128.644 237.422 135.944 229.307 135.944H202.565C198.836 135.944 195.926 139.327 196.032 143.463C196.034 143.537 196.036 143.612 196.037 143.686C196.146 148.616 192.553 152.667 188.109 152.667Z" fill="url(#paint0_linear_7427_41519)"/>
<path fill-rule="evenodd" clip-rule="evenodd" d="M108.084 47.0303H197.77C203.089 47.0303 207.401 51.8289 207.401 57.7486C207.401 63.6683 203.089 68.4669 197.77 68.4669H163.956C160.16 68.4669 157.082 71.8906 157.081 76.1149L157.08 76.4769C157.079 80.5086 160.015 83.7789 163.638 83.7789H163.932C173.487 83.7789 181.192 92.4413 181.064 103.072C181.047 104.505 181.047 105.937 181.063 107.37C181.186 117.996 173.483 126.652 163.963 126.652H122.338C118.08 126.652 114.628 130.494 114.628 135.232C114.628 142.575 109.28 148.527 102.682 148.527H93.5536C86.956 148.527 81.6073 142.575 81.6073 135.232V111.025C81.6073 104.192 76.6303 98.6533 70.491 98.6533H65.097C56.63 98.6533 49.7656 91.0146 49.7656 81.5916C49.7656 72.1686 56.63 64.5296 65.097 64.5296H93.0006C96.8913 64.5296 99.9273 60.9903 99.8173 56.6623L99.8116 56.4283C99.6976 51.2699 103.448 47.0303 108.084 47.0303Z" fill="url(#paint1_linear_7427_41519)"/>
<path d="M193.474 108.18C197.623 115.906 195.304 127.42 195.304 127.42C195.304 127.42 183.026 123.746 178.877 116.014C174.728 108.282 174.631 100.267 178.666 98.1056C182.695 95.9436 189.325 100.454 193.474 108.18ZM74.7169 149.361C76.7745 147.562 77.3619 143.948 77.3619 143.948C77.3619 143.948 73.3742 143.675 71.3169 145.475C69.2592 147.274 68.3512 149.604 69.2905 150.677C70.2302 151.751 72.6585 151.162 74.7169 149.361ZM211.644 40.2432C209.45 41.8736 208.578 45.4289 208.578 45.4289C208.578 45.4289 212.531 46.0176 214.725 44.3872C216.919 42.7566 218.009 40.5066 217.158 39.3616C216.306 38.2169 213.839 38.6109 211.644 40.2432Z" fill="#E1E4E5"/>
<path d="M106.165 159.102C107.541 157.779 109.689 157.779 110.961 159.102C112.234 160.425 112.15 162.571 110.773 163.895C109.397 165.218 107.25 165.218 105.977 163.895C104.704 162.571 104.789 160.426 106.165 159.102Z" fill="#FCAE17"/>
<path d="M234.019 74.7783C231.423 74.7275 229.359 72.6635 229.408 70.1682C229.457 67.6729 231.6 65.6913 234.195 65.742C236.791 65.7928 238.855 67.8568 238.806 70.3521C238.757 72.8474 236.614 74.8291 234.019 74.7783Z" fill="#FCAE17"/>
<path d="M69.73 128.363C68.7945 129.262 68.7654 130.75 69.665 131.685C70.5646 132.621 72.0522 132.65 72.9878 131.75C73.9233 130.851 73.9524 129.363 73.0528 128.428C72.1532 127.492 70.6655 127.463 69.73 128.363Z" fill="#E1E4E5"/>
<path d="M207.505 59.1788C208.642 58.552 209.055 57.1226 208.428 55.9861C207.801 54.8496 206.372 54.4365 205.235 55.0633C204.099 55.6901 203.686 57.1195 204.313 58.256C204.94 59.3925 206.369 59.8056 207.505 59.1788Z" fill="#E1E4E5"/>
<path d="M233.904 113.06C235.202 113.086 236.274 112.055 236.3 110.757C236.325 109.459 235.294 108.387 233.996 108.361C232.698 108.336 231.626 109.367 231.601 110.665C231.575 111.963 232.606 113.035 233.904 113.06Z" fill="#E1E4E5"/>
<path d="M63.2314 77.6259C65.9464 76.1285 69.3612 77.1155 70.8586 79.8304C72.3561 82.5454 71.3691 85.9602 68.6541 87.4576C65.9392 88.955 62.5244 87.968 61.0269 85.2531C59.5295 82.5381 60.5165 79.1233 63.2314 77.6259Z" fill="#FCAE17"/>
<path d="M85.9259 46.0847C87.2123 45.3752 88.8302 45.8429 89.5398 47.1293C90.2493 48.4157 89.7816 50.0336 88.4952 50.7432C87.2088 51.4527 85.5908 50.985 84.8813 49.6986C84.1718 48.4122 84.6395 46.7942 85.9259 46.0847Z" fill="#E1E4E5"/>
<path d="M208.969 155.449C206.061 154.609 204.384 151.569 205.225 148.66C206.066 145.751 209.105 144.074 212.014 144.915C214.923 145.756 216.6 148.796 215.759 151.705C214.918 154.613 211.878 156.29 208.969 155.449Z" fill="#FCAE17"/>
<path fill-rule="evenodd" clip-rule="evenodd" d="M90.6602 115.189V83.7144C90.6602 73.126 96.2915 63.3374 105.439 58.01L135.181 40.7C139.724 38.0573 144.886 36.665 150.142 36.665C155.398 36.665 160.56 38.0573 165.102 40.7L194.845 58.01C203.999 63.3374 209.63 73.126 209.63 83.7144V115.189C209.63 125.777 203.999 135.565 194.852 140.893L165.109 158.203C160.566 160.846 155.404 162.238 150.149 162.238C144.893 162.238 139.731 160.846 135.188 158.203L105.446 140.893C96.2915 135.565 90.6602 125.777 90.6602 115.189Z" fill="#FCAE17"/>
<path d="M150.145 99.4513V69.709M150.138 122.585C149.226 122.585 148.486 123.325 148.492 124.237C148.492 124.675 148.667 125.095 148.976 125.405C149.286 125.715 149.706 125.889 150.145 125.889C150.583 125.889 151.003 125.715 151.313 125.405C151.622 125.095 151.797 124.675 151.797 124.237C151.797 124.02 151.753 123.804 151.67 123.603C151.586 123.403 151.464 123.22 151.31 123.067C151.156 122.913 150.973 122.792 150.772 122.709C150.571 122.626 150.355 122.584 150.138 122.585Z" stroke="white" stroke-width="9.91433" stroke-linecap="round" stroke-linejoin="round"/>
<path d="M235.499 93.563L231.937 90.001L235.499 86.439L239.061 90.001L235.499 93.563ZM180.847 41.5133L177.284 37.9516L180.847 34.3896L184.409 37.9516L180.847 41.5133ZM69.0405 112.673L65.4785 109.112L69.0405 105.55L72.6022 109.112L69.0405 112.673Z" stroke="#E1E4E5" stroke-width="1.891" stroke-linecap="round" stroke-linejoin="round"/>
</g>
<defs>
<linearGradient id="paint0_linear_7427_41519" x1="165.242" y1="1.29219" x2="167.162" y2="258.201" gradientUnits="userSpaceOnUse">
<stop stop-color="white"/>
<stop offset="1" stop-color="#EEEEEE"/>
</linearGradient>
<linearGradient id="paint1_linear_7427_41519" x1="131.945" y1="205.431" x2="129.929" y2="-63.4021" gradientUnits="userSpaceOnUse">
<stop stop-color="white"/>
<stop offset="1" stop-color="#EEEEEE"/>
</linearGradient>
<clipPath id="clip0_7427_41519">
<rect width="300" height="200" fill="white"/>
</clipPath>
</defs>
</svg>
