<svg width="14" height="13" viewBox="0 0 14 13" fill="none" xmlns="http://www.w3.org/2000/svg">
<path d="M6.83334 12.3231C3.62126 12.3231 1.01042 9.71225 1.01042 6.50016C1.01042 3.28808 3.62126 0.677246 6.83334 0.677246C10.0454 0.677246 12.6563 3.28808 12.6563 6.50016C12.6563 9.71225 10.0454 12.3231 6.83334 12.3231ZM6.83334 1.48975C4.07084 1.48975 1.82292 3.73766 1.82292 6.50016C1.82292 9.26266 4.07084 11.5106 6.83334 11.5106C9.59584 11.5106 11.8438 9.26266 11.8438 6.50016C11.8438 3.73766 9.59584 1.48975 6.83334 1.48975Z" fill="#186F3D"/>
<path d="M8.84292 8.6287C8.7725 8.6287 8.70209 8.61245 8.63709 8.56912L6.95792 7.56704C6.54084 7.31787 6.23209 6.77079 6.23209 6.2887V4.06787C6.23209 3.84579 6.41625 3.66162 6.63834 3.66162C6.86042 3.66162 7.04459 3.84579 7.04459 4.06787V6.2887C7.04459 6.4837 7.20709 6.77079 7.375 6.86829L9.05417 7.87037C9.24917 7.98412 9.30875 8.23329 9.195 8.42829C9.11375 8.55829 8.97834 8.6287 8.84292 8.6287Z" fill="#186F3D"/>
</svg>
