<svg width="20" height="21" viewBox="0 0 20 21" fill="none" xmlns="http://www.w3.org/2000/svg">
<path d="M7.42492 17.725C7.26659 17.725 7.10825 17.6667 6.98325 17.5417C6.74159 17.3 6.74159 16.9 6.98325 16.6583L12.4166 11.225C12.8166 10.825 12.8166 10.175 12.4166 9.77502L6.98325 4.34168C6.74159 4.10002 6.74159 3.70002 6.98325 3.45835C7.22492 3.21668 7.62492 3.21668 7.86658 3.45835L13.2999 8.89168C13.7249 9.31668 13.9666 9.89168 13.9666 10.5C13.9666 11.1084 13.7333 11.6834 13.2999 12.1084L7.86658 17.5417C7.74158 17.6584 7.58325 17.725 7.42492 17.725Z" fill="#186F3D"/>
</svg>
