<svg width="25" height="25" viewBox="0 0 25 25" fill="none" xmlns="http://www.w3.org/2000/svg">
<path d="M8.66699 6.25C8.25699 6.25 7.91699 5.91 7.91699 5.5V2.5C7.91699 2.09 8.25699 1.75 8.66699 1.75C9.07699 1.75 9.41699 2.09 9.41699 2.5V5.5C9.41699 5.91 9.07699 6.25 8.66699 6.25Z" fill="#999999"/>
<path d="M16.667 6.25C16.257 6.25 15.917 5.91 15.917 5.5V2.5C15.917 2.09 16.257 1.75 16.667 1.75C17.077 1.75 17.417 2.09 17.417 2.5V5.5C17.417 5.91 17.077 6.25 16.667 6.25Z" fill="#999999"/>
<path d="M9.16699 15.0001C9.03699 15.0001 8.90699 14.9701 8.78699 14.9201C8.65699 14.8701 8.55699 14.8001 8.45699 14.7101C8.27699 14.5201 8.16699 14.2701 8.16699 14.0001C8.16699 13.8701 8.19699 13.7401 8.24699 13.6201C8.29699 13.5001 8.36699 13.3901 8.45699 13.2901C8.55699 13.2001 8.65699 13.1301 8.78699 13.0801C9.14699 12.9301 9.59699 13.0101 9.87699 13.2901C10.057 13.4801 10.167 13.7401 10.167 14.0001C10.167 14.0601 10.157 14.1301 10.147 14.2001C10.137 14.2601 10.117 14.3201 10.087 14.3801C10.067 14.4401 10.037 14.5001 9.99699 14.5601C9.96699 14.6101 9.91699 14.6601 9.87699 14.7101C9.68699 14.8901 9.42699 15.0001 9.16699 15.0001Z" fill="#999999"/>
<path d="M12.667 15C12.537 15 12.407 14.97 12.287 14.92C12.157 14.87 12.057 14.8 11.957 14.71C11.777 14.52 11.667 14.27 11.667 14C11.667 13.87 11.697 13.74 11.747 13.62C11.797 13.5 11.867 13.39 11.957 13.29C12.057 13.2 12.157 13.13 12.287 13.08C12.647 12.92 13.097 13.01 13.377 13.29C13.557 13.48 13.667 13.74 13.667 14C13.667 14.06 13.657 14.13 13.647 14.2C13.637 14.26 13.617 14.32 13.587 14.38C13.567 14.44 13.537 14.5 13.497 14.56C13.467 14.61 13.417 14.66 13.377 14.71C13.187 14.89 12.927 15 12.667 15Z" fill="#999999"/>
<path d="M16.167 15C16.037 15 15.907 14.97 15.787 14.92C15.657 14.87 15.557 14.8 15.457 14.71C15.417 14.66 15.377 14.61 15.337 14.56C15.297 14.5 15.267 14.44 15.247 14.38C15.217 14.32 15.197 14.26 15.187 14.2C15.177 14.13 15.167 14.06 15.167 14C15.167 13.74 15.277 13.48 15.457 13.29C15.557 13.2 15.657 13.13 15.787 13.08C16.157 12.92 16.597 13.01 16.877 13.29C17.057 13.48 17.167 13.74 17.167 14C17.167 14.06 17.157 14.13 17.147 14.2C17.137 14.26 17.117 14.32 17.087 14.38C17.067 14.44 17.037 14.5 16.997 14.56C16.967 14.61 16.917 14.66 16.877 14.71C16.687 14.89 16.427 15 16.167 15Z" fill="#999999"/>
<path d="M9.16699 18.4999C9.03699 18.4999 8.90699 18.47 8.78699 18.42C8.66699 18.37 8.55699 18.2999 8.45699 18.2099C8.27699 18.0199 8.16699 17.7599 8.16699 17.4999C8.16699 17.3699 8.19699 17.2399 8.24699 17.1199C8.29699 16.9899 8.36699 16.88 8.45699 16.79C8.82699 16.42 9.50699 16.42 9.87699 16.79C10.057 16.98 10.167 17.2399 10.167 17.4999C10.167 17.7599 10.057 18.0199 9.87699 18.2099C9.68699 18.3899 9.42699 18.4999 9.16699 18.4999Z" fill="#999999"/>
<path d="M12.667 18.4999C12.407 18.4999 12.147 18.3899 11.957 18.2099C11.777 18.0199 11.667 17.7599 11.667 17.4999C11.667 17.3699 11.697 17.2399 11.747 17.1199C11.797 16.9899 11.867 16.88 11.957 16.79C12.327 16.42 13.007 16.42 13.377 16.79C13.467 16.88 13.537 16.9899 13.587 17.1199C13.637 17.2399 13.667 17.3699 13.667 17.4999C13.667 17.7599 13.557 18.0199 13.377 18.2099C13.187 18.3899 12.927 18.4999 12.667 18.4999Z" fill="#999999"/>
<path d="M16.167 18.5C15.907 18.5 15.647 18.39 15.457 18.21C15.367 18.12 15.297 18.01 15.247 17.88C15.197 17.76 15.167 17.63 15.167 17.5C15.167 17.37 15.197 17.24 15.247 17.12C15.297 16.99 15.367 16.88 15.457 16.79C15.687 16.56 16.037 16.45 16.357 16.52C16.427 16.53 16.487 16.55 16.547 16.58C16.607 16.6 16.667 16.63 16.727 16.67C16.777 16.7 16.827 16.75 16.877 16.79C17.057 16.98 17.167 17.24 17.167 17.5C17.167 17.76 17.057 18.02 16.877 18.21C16.687 18.39 16.427 18.5 16.167 18.5Z" fill="#999999"/>
<path d="M21.167 10.34H4.16699C3.75699 10.34 3.41699 9.99997 3.41699 9.58997C3.41699 9.17997 3.75699 8.83997 4.16699 8.83997H21.167C21.577 8.83997 21.917 9.17997 21.917 9.58997C21.917 9.99997 21.577 10.34 21.167 10.34Z" fill="#999999"/>
<path d="M16.667 23.25H8.66699C5.01699 23.25 2.91699 21.15 2.91699 17.5V9C2.91699 5.35 5.01699 3.25 8.66699 3.25H16.667C20.317 3.25 22.417 5.35 22.417 9V17.5C22.417 21.15 20.317 23.25 16.667 23.25ZM8.66699 4.75C5.80699 4.75 4.41699 6.14 4.41699 9V17.5C4.41699 20.36 5.80699 21.75 8.66699 21.75H16.667C19.527 21.75 20.917 20.36 20.917 17.5V9C20.917 6.14 19.527 4.75 16.667 4.75H8.66699Z" fill="#999999"/>
</svg>
