<svg width="20" height="21" viewBox="0 0 20 21" fill="none" xmlns="http://www.w3.org/2000/svg">
<path d="M16.8661 6.28388C16.8501 6.28388 16.8261 6.28388 16.8021 6.28388C12.5701 5.85988 8.34614 5.69988 4.16214 6.12388L2.53014 6.28388C2.19414 6.31588 1.89814 6.07588 1.86614 5.73988C1.83414 5.40388 2.07414 5.11588 2.40214 5.08388L4.03414 4.92388C8.29014 4.49188 12.6021 4.65988 16.9221 5.08388C17.2501 5.11588 17.4901 5.41188 17.4581 5.73988C17.4341 6.05188 17.1701 6.28388 16.8661 6.28388Z" fill="#FF3B30"/>
<path d="M6.86622 5.4759C6.83422 5.4759 6.80222 5.4759 6.76222 5.4679C6.44222 5.4119 6.21822 5.0999 6.27422 4.7799L6.45022 3.7319C6.57822 2.9639 6.75422 1.8999 8.61822 1.8999H10.7142C12.5862 1.8999 12.7622 3.0039 12.8822 3.7399L13.0582 4.7799C13.1142 5.1079 12.8902 5.4199 12.5702 5.4679C12.2422 5.5239 11.9302 5.2999 11.8822 4.9799L11.7062 3.9399C11.5942 3.2439 11.5702 3.1079 10.7222 3.1079H8.62622C7.77822 3.1079 7.76222 3.2199 7.64222 3.9319L7.45822 4.9719C7.41022 5.2679 7.15422 5.4759 6.86622 5.4759Z" fill="#FF3B30"/>
<path d="M12.2345 19.0999H7.09852C4.30652 19.0999 4.19452 17.5559 4.10652 16.3079L3.58652 8.25194C3.56252 7.92394 3.81852 7.63594 4.14652 7.61194C4.48252 7.59594 4.76252 7.84394 4.78652 8.17194L5.30652 16.2279C5.39452 17.4439 5.42652 17.8999 7.09852 17.8999H12.2345C13.9145 17.8999 13.9465 17.4439 14.0265 16.2279L14.5465 8.17194C14.5705 7.84394 14.8585 7.59594 15.1865 7.61194C15.5145 7.63594 15.7705 7.91594 15.7465 8.25194L15.2265 16.3079C15.1385 17.5559 15.0265 19.0999 12.2345 19.0999Z" fill="#FF3B30"/>
<path d="M10.9945 14.6999H8.33047C8.00247 14.6999 7.73047 14.4279 7.73047 14.0999C7.73047 13.7719 8.00247 13.4999 8.33047 13.4999H10.9945C11.3225 13.4999 11.5945 13.7719 11.5945 14.0999C11.5945 14.4279 11.3225 14.6999 10.9945 14.6999Z" fill="#FF3B30"/>
<path d="M11.6664 11.4999H7.66641C7.33841 11.4999 7.06641 11.2279 7.06641 10.8999C7.06641 10.5719 7.33841 10.2999 7.66641 10.2999H11.6664C11.9944 10.2999 12.2664 10.5719 12.2664 10.8999C12.2664 11.2279 11.9944 11.4999 11.6664 11.4999Z" fill="#FF3B30"/>
</svg>
