<svg width="24" height="25" viewBox="0 0 24 25" fill="none" xmlns="http://www.w3.org/2000/svg">
<path d="M15.26 23.055H8.73998C3.82998 23.055 1.72998 20.955 1.72998 16.045V15.915C1.72998 11.475 3.47998 9.33496 7.39998 8.96496C7.79998 8.93496 8.17998 9.23496 8.21998 9.64496C8.25998 10.055 7.95998 10.425 7.53998 10.465C4.39998 10.755 3.22998 12.235 3.22998 15.925V16.055C3.22998 20.125 4.66998 21.565 8.73998 21.565H15.26C19.33 21.565 20.77 20.125 20.77 16.055V15.925C20.77 12.215 19.58 10.735 16.38 10.465C15.97 10.425 15.66 10.065 15.7 9.65496C15.74 9.24496 16.09 8.93496 16.51 8.97496C20.49 9.31496 22.27 11.465 22.27 15.935V16.065C22.27 20.955 20.17 23.055 15.26 23.055Z" fill="white"/>
<path d="M12 16.4347C11.59 16.4347 11.25 16.0947 11.25 15.6847V2.80469C11.25 2.39469 11.59 2.05469 12 2.05469C12.41 2.05469 12.75 2.39469 12.75 2.80469V15.6847C12.75 16.1047 12.41 16.4347 12 16.4347Z" fill="white"/>
<path d="M12.0001 17.5545C11.8101 17.5545 11.6201 17.4845 11.4701 17.3345L8.12009 13.9845C7.83009 13.6945 7.83009 13.2145 8.12009 12.9245C8.41009 12.6345 8.89009 12.6345 9.18009 12.9245L12.0001 15.7445L14.8201 12.9245C15.1101 12.6345 15.5901 12.6345 15.8801 12.9245C16.1701 13.2145 16.1701 13.6945 15.8801 13.9845L12.5301 17.3345C12.3801 17.4845 12.1901 17.5545 12.0001 17.5545Z" fill="white"/>
</svg>
