<svg width="18" height="9" viewBox="0 0 18 9" fill="none" xmlns="http://www.w3.org/2000/svg">
<path d="M0.330469 0.910097C0.330469 0.720097 0.400469 0.530098 0.550468 0.380098C0.840469 0.0900977 1.32047 0.0900977 1.61047 0.380098L8.13047 6.9001C8.61047 7.3801 9.39047 7.3801 9.87047 6.9001L16.3905 0.380098C16.6805 0.0900977 17.1605 0.0900977 17.4505 0.380098C17.7405 0.670098 17.7405 1.1501 17.4505 1.4401L10.9305 7.9601C10.4205 8.4701 9.73047 8.7601 9.00047 8.7601C8.27047 8.7601 7.58047 8.4801 7.07047 7.9601L0.550468 1.4401C0.410469 1.2901 0.330469 1.1001 0.330469 0.910097Z" fill="#333333"/>
</svg>
