<svg width="20" height="21" viewBox="0 0 20 21" fill="none" xmlns="http://www.w3.org/2000/svg">
<path d="M18.3334 8.20837H1.66669C1.32502 8.20837 1.04169 7.92504 1.04169 7.58337C1.04169 7.24171 1.32502 6.95837 1.66669 6.95837H18.3334C18.675 6.95837 18.9584 7.24171 18.9584 7.58337C18.9584 7.92504 18.675 8.20837 18.3334 8.20837Z" fill="#999999"/>
<path d="M6.66667 14.875H5C4.65833 14.875 4.375 14.5917 4.375 14.25C4.375 13.9083 4.65833 13.625 5 13.625H6.66667C7.00833 13.625 7.29167 13.9083 7.29167 14.25C7.29167 14.5917 7.00833 14.875 6.66667 14.875Z" fill="#999999"/>
<path d="M12.0833 14.875H8.75C8.40833 14.875 8.125 14.5917 8.125 14.25C8.125 13.9083 8.40833 13.625 8.75 13.625H12.0833C12.425 13.625 12.7083 13.9083 12.7083 14.25C12.7083 14.5917 12.425 14.875 12.0833 14.875Z" fill="#999999"/>
<path d="M14.6334 18.2083H5.36669C2.05002 18.2083 1.04169 17.2083 1.04169 13.925V7.07496C1.04169 3.79163 2.05002 2.79163 5.36669 2.79163H14.625C17.9417 2.79163 18.95 3.79163 18.95 7.07496V13.9166C18.9584 17.2083 17.95 18.2083 14.6334 18.2083ZM5.36669 4.04163C2.75002 4.04163 2.29169 4.49163 2.29169 7.07496V13.9166C2.29169 16.5 2.75002 16.95 5.36669 16.95H14.625C17.2417 16.95 17.7 16.5 17.7 13.9166V7.07496C17.7 4.49163 17.2417 4.04163 14.625 4.04163H5.36669Z" fill="#999999"/>
</svg>
