<svg width="328" height="218" viewBox="0 0 328 218" fill="none" xmlns="http://www.w3.org/2000/svg">
<g clip-path="url(#clip0_9677_37978)">
<path d="M260.28 66.0168C253.579 44.1478 195.667 15.9219 149.915 51.0101C128.636 67.3303 135.241 79.0423 122.989 102.164C115.686 115.945 102.75 129.085 103.615 144.906C104.357 158.564 111.503 170.915 121.171 177.109C142.912 191.037 177.358 193.401 195.366 152.289C213.374 111.176 277.554 122.421 260.28 66.0168Z" fill="url(#paint0_linear_9677_37978)"/>
<path d="M127.615 54.4315C119.979 74.7905 112.337 96.3024 98.358 109.635C83.9402 123.392 79.3008 118.537 75.7078 109.806C72.1151 101.075 71.5847 78.2491 91.3693 59.8797C111.159 41.5052 134.758 35.3776 127.615 54.4315Z" fill="url(#paint1_linear_9677_37978)"/>
<path d="M86.3389 86.3184L93.0593 79.598C93.304 79.3532 93.304 78.9564 93.0593 78.7116C92.8145 78.4668 92.4177 78.4668 92.1729 78.7116L85.4525 85.432C85.2077 85.6768 85.2077 86.0736 85.4525 86.3184C85.6973 86.5631 86.0941 86.5631 86.3389 86.3184Z" fill="#E1E4E5"/>
<path d="M86.9962 81.5068L88.9344 79.5687C89.1791 79.3239 89.1791 78.9271 88.9344 78.6823C88.6896 78.4375 88.2928 78.4375 88.048 78.6823L86.1099 80.6205C85.8651 80.8652 85.8651 81.2621 86.1099 81.5068C86.3546 81.7516 86.7515 81.7516 86.9962 81.5068Z" fill="#E1E4E5"/>
<path d="M211.091 175.574L204.371 182.294C204.126 182.539 204.126 182.936 204.371 183.18C204.616 183.425 205.013 183.425 205.257 183.18L211.978 176.46C212.222 176.215 212.222 175.819 211.978 175.574C211.733 175.329 211.336 175.329 211.091 175.574Z" fill="#E1E4E5"/>
<path d="M210.434 180.385L208.496 182.323C208.251 182.568 208.251 182.965 208.496 183.21C208.74 183.455 209.137 183.455 209.382 183.21L211.32 181.272C211.565 181.027 211.565 180.63 211.32 180.385C211.075 180.14 210.678 180.14 210.434 180.385Z" fill="#E1E4E5"/>
<path d="M262.14 47.4243L268.86 40.7039C269.105 40.4592 269.105 40.0623 268.86 39.8176C268.615 39.5728 268.218 39.5728 267.974 39.8176L261.253 46.538C261.008 46.7827 261.008 47.1795 261.253 47.4243C261.498 47.6691 261.895 47.6691 262.14 47.4243Z" fill="#E1E4E5"/>
<path d="M262.797 42.6128L264.735 40.6746C264.98 40.4299 264.98 40.033 264.735 39.7883C264.491 39.5435 264.094 39.5435 263.849 39.7883L261.911 41.7264C261.666 41.9712 261.666 42.368 261.911 42.6128C262.156 42.8575 262.552 42.8576 262.797 42.6128Z" fill="#E1E4E5"/>
<path d="M260.833 64.3843V159.934C260.833 165.161 256.594 169.4 251.367 169.4H112.556C107.329 169.4 103.089 165.161 103.089 159.934V64.3843C103.089 59.1573 107.329 54.918 112.556 54.918H251.361C256.594 54.918 260.833 59.1573 260.833 64.3843Z" fill="#FCAE17"/>
<path d="M244.476 62.4629H119.083C114.894 62.4629 111.499 65.8585 111.499 70.0471V153.934C111.499 158.122 114.894 161.518 119.083 161.518H244.476C248.665 161.518 252.061 158.122 252.061 153.934V70.0471C252.061 65.8585 248.665 62.4629 244.476 62.4629Z" stroke="#664F23" stroke-width="0.388767" stroke-dasharray="2.72 4.67"/>
<path opacity="0.3" d="M157.36 115.017C157.36 115.017 157.393 120.444 155.753 123.729C154.114 127.012 153.561 128.272 150.114 129.536C146.667 130.801 102.933 135.594 102.933 135.594V120.824L157.36 115.017Z" fill="black"/>
<path d="M104.372 128.701H149.587C153.88 128.701 157.354 125.222 157.354 120.933V100.693C157.354 96.3986 153.875 92.9248 149.587 92.9248H104.372C100.078 92.9248 96.6039 96.4041 96.6039 100.693V120.933C96.6039 125.222 100.084 128.701 104.372 128.701Z" fill="#FCAE17"/>
<path d="M138.975 122.367C144.706 122.367 149.352 117.818 149.352 112.207C149.352 106.595 144.706 102.046 138.975 102.046C133.245 102.046 128.599 106.595 128.599 112.207C128.599 117.818 133.245 122.367 138.975 122.367Z" fill="white"/>
<path d="M274.644 84.959C274.644 84.959 269.635 83.6147 267.908 95.0978C266.182 106.581 266.169 112.871 266.169 112.871C266.169 112.871 265.535 115.367 263.673 114.493C261.811 113.619 258.605 110.453 256.432 111.939C254.179 113.482 254.288 116.534 256.124 120.461C257.96 124.388 261.666 133.132 261.999 133.927C262.327 134.703 262.259 136.034 260.896 135.64C259.532 135.247 250.783 130.271 248.672 134.561C246.557 138.853 253.471 148.95 254.205 150.066C254.939 151.183 254.876 151.789 254.396 152.287C253.915 152.785 251.13 150.835 248.586 149.52C246.041 148.204 242.857 147.13 241.845 149.708C240.833 152.286 243.085 160.84 255.589 171.781L261.715 176.471L268.919 173.617C283.963 166.57 288.499 158.973 288.24 156.216C287.98 153.459 284.625 153.609 281.814 154.168C279.002 154.727 275.787 155.828 275.463 155.216C275.139 154.603 275.244 154.006 276.259 153.135C277.274 152.264 286.713 144.481 285.87 139.769C285.028 135.061 275.243 137.418 273.824 137.414C272.406 137.415 272.713 136.119 273.241 135.463C273.781 134.794 279.769 127.417 282.619 124.152C285.47 120.891 286.419 117.986 284.682 115.88C283.008 113.846 279.048 116.006 277.018 116.33C274.988 116.655 275.071 114.076 275.071 114.076C275.071 114.076 276.806 108.028 278.325 96.5159C279.844 85.0037 274.533 84.934 274.533 84.934" fill="#E1E4E5"/>
<path d="M261.587 174.857C262.733 166.406 264.417 154.745 266.325 141.87C268.23 129.001 269.94 117.348 271.138 108.903C271.732 104.689 272.21 101.275 272.543 98.9039C272.708 97.7315 272.838 96.8177 272.928 96.1844C272.972 95.8832 273.009 95.6485 273.033 95.4773C273.061 95.32 273.078 95.2354 273.078 95.2354C273.078 95.2354 273.075 95.3164 273.059 95.4802C273.04 95.6503 273.013 95.8872 272.98 96.1906C272.9 96.826 272.786 97.7405 272.642 98.9177C272.347 101.283 271.896 104.705 271.32 108.929C270.174 117.38 268.489 129.037 266.585 141.91C264.682 154.784 262.966 166.439 261.773 174.882" fill="white"/>
<path d="M260.739 116.553C260.757 116.543 260.877 116.695 261.095 116.986C261.312 117.273 261.61 117.698 261.971 118.225C262.694 119.285 263.657 120.77 264.687 122.436C265.691 124.074 266.602 125.558 267.304 126.703C267.619 127.208 267.884 127.636 268.104 127.991C268.295 128.295 268.391 128.469 268.374 128.478C268.356 128.488 268.231 128.337 268.014 128.05C267.803 127.763 267.504 127.338 267.146 126.805C266.431 125.738 265.49 124.238 264.465 122.575L261.82 118.33C261.505 117.826 261.236 117.399 261.015 117.043C260.823 116.735 260.727 116.561 260.739 116.553ZM269.087 128.382C269.046 128.323 272.023 126.202 275.739 123.654C279.454 121.1 282.503 119.08 282.544 119.139C282.584 119.198 279.606 121.314 275.891 123.868C272.172 126.422 269.128 128.441 269.087 128.382ZM265.271 148.02C265.266 148.001 265.457 147.93 265.799 147.809C266.198 147.677 266.689 147.515 267.266 147.321C268.504 146.909 270.216 146.33 272.08 145.626C273.945 144.927 275.612 144.235 276.819 143.727C277.38 143.492 277.855 143.29 278.245 143.125C278.583 142.985 278.774 142.919 278.783 142.931C278.793 142.949 278.614 143.047 278.29 143.218C277.83 143.454 277.365 143.681 276.894 143.897C275.347 144.614 273.772 145.272 272.175 145.87C270.578 146.47 268.959 147.012 267.323 147.495C266.693 147.679 266.18 147.816 265.83 147.905C265.474 147.996 265.276 148.038 265.271 148.02ZM255.369 138.979C255.38 138.966 255.529 139.076 255.796 139.289C256.058 139.503 256.432 139.817 256.891 140.209C258.085 141.233 259.27 142.269 260.445 143.316C261.623 144.361 262.791 145.416 263.95 146.482C264.302 146.804 264.65 147.132 264.992 147.465C265.235 147.7 265.363 147.84 265.351 147.853C265.34 147.867 265.19 147.757 264.924 147.544C264.661 147.329 264.288 147.015 263.828 146.624C262.634 145.599 261.45 144.563 260.274 143.516C258.898 142.293 257.659 141.171 256.774 140.35C256.422 140.027 256.075 139.699 255.732 139.366C255.484 139.132 255.352 138.993 255.369 138.979ZM249.797 155.886C249.808 155.873 250.001 156.016 250.34 156.29C250.712 156.6 251.187 156.992 251.748 157.465C252.93 158.467 254.552 159.86 256.332 161.415C258.112 162.971 259.715 164.389 260.866 165.424C261.319 165.836 261.771 166.249 262.222 166.663C262.536 166.958 262.707 167.132 262.695 167.145C262.684 167.158 262.491 167.015 262.153 166.741C261.78 166.432 261.306 166.04 260.744 165.566C259.207 164.26 257.679 162.944 256.161 161.616C254.381 160.061 252.778 158.643 251.627 157.608C251.174 157.196 250.722 156.782 250.271 156.368C249.952 156.074 249.786 155.899 249.797 155.886ZM262.46 166.789C262.456 166.77 262.694 166.672 263.124 166.506C263.605 166.328 264.223 166.097 264.963 165.824C266.515 165.243 268.661 164.438 271.002 163.482C273.002 162.666 274.988 161.817 276.961 160.936C277.684 160.617 278.287 160.351 278.755 160.141C279.18 159.957 279.418 159.858 279.428 159.875C279.438 159.893 279.212 160.019 278.8 160.234C278.217 160.535 277.629 160.826 277.036 161.106C275.084 162.036 273.105 162.91 271.102 163.725C269.099 164.541 267.072 165.298 265.024 165.997C264.237 166.263 263.598 166.469 263.155 166.603C262.716 166.736 262.469 166.802 262.46 166.789Z" fill="white"/>
<path d="M78.3696 138.807C73.5122 143.811 74.7766 152.922 74.7766 152.922C74.7766 152.922 83.9163 153.916 88.7708 148.908C93.6282 143.905 92.367 134.798 92.367 134.798C92.367 134.798 83.227 133.804 78.3696 138.807Z" fill="url(#paint2_linear_9677_37978)"/>
<path fill-rule="evenodd" clip-rule="evenodd" d="M194.781 43.3988H195.611C195.812 43.3988 195.974 43.5623 195.974 43.7614V44.5916C195.974 44.7926 195.811 44.9543 195.611 44.9543H194.781C194.582 44.9543 194.419 44.7908 194.419 44.5916V43.7614C194.419 43.7138 194.428 43.6666 194.446 43.6226C194.464 43.5785 194.491 43.5385 194.525 43.5048C194.558 43.4711 194.598 43.4444 194.642 43.4262C194.686 43.408 194.734 43.3987 194.781 43.3988ZM197.66 43.3988H198.49C198.69 43.3988 198.853 43.5623 198.853 43.7614V44.5916C198.853 44.7926 198.69 44.9543 198.49 44.9543H197.66C197.461 44.9543 197.298 44.7908 197.298 44.5916V43.7614C197.298 43.5623 197.461 43.3988 197.66 43.3988ZM200.541 43.3988H201.371C201.57 43.3988 201.734 43.5623 201.734 43.7614V44.5916C201.734 44.6878 201.695 44.7799 201.628 44.8479C201.56 44.9159 201.467 44.9542 201.371 44.9543H200.541C200.342 44.9543 200.179 44.7908 200.179 44.5916V43.7614C200.178 43.7138 200.188 43.6666 200.206 43.6226C200.224 43.5785 200.251 43.5385 200.285 43.5048C200.318 43.4711 200.358 43.4444 200.402 43.4262C200.446 43.408 200.493 43.3987 200.541 43.3988ZM203.42 43.3988H204.251C204.45 43.3988 204.613 43.5623 204.613 43.7614V44.5916C204.613 44.6878 204.575 44.7799 204.507 44.8479C204.439 44.9159 204.347 44.9542 204.251 44.9543H203.42C203.22 44.9543 203.056 44.7908 203.056 44.5916V43.7614C203.057 43.6653 203.096 43.5735 203.164 43.5057C203.232 43.4379 203.324 43.3995 203.42 43.3988ZM206.299 43.3988H207.129C207.33 43.3988 207.494 43.5623 207.494 43.7614V44.5916C207.494 44.6394 207.484 44.6867 207.466 44.7307C207.448 44.7748 207.421 44.8148 207.387 44.8485C207.353 44.8822 207.313 44.9088 207.269 44.927C207.224 44.9451 207.177 44.9544 207.129 44.9543H206.299C206.1 44.9543 205.937 44.7908 205.937 44.5916V43.7614C205.937 43.5623 206.1 43.3988 206.299 43.3988ZM197.766 46.5384H198.596C198.795 46.5384 198.959 46.7015 198.959 46.9006V47.7327C198.959 47.9318 198.795 48.0953 198.596 48.0953H197.766C197.67 48.0952 197.578 48.0569 197.51 47.989C197.442 47.921 197.403 47.8288 197.403 47.7327V46.9025C197.403 46.8547 197.412 46.8074 197.43 46.7632C197.449 46.719 197.475 46.6788 197.509 46.645C197.543 46.6112 197.583 46.5843 197.627 46.566C197.671 46.5477 197.718 46.5383 197.766 46.5384ZM200.645 46.5384H201.475C201.674 46.5384 201.838 46.7015 201.838 46.9006V47.7327C201.838 47.9318 201.674 48.0953 201.475 48.0953H200.645C200.446 48.0953 200.282 47.9318 200.282 47.7327V46.9025C200.282 46.8547 200.291 46.8074 200.31 46.7632C200.328 46.719 200.354 46.6788 200.388 46.645C200.422 46.6112 200.462 46.5843 200.506 46.566C200.55 46.5477 200.597 46.5383 200.645 46.5384ZM203.524 46.5384H204.354C204.555 46.5384 204.718 46.7015 204.718 46.9006V47.7327C204.718 47.9318 204.555 48.0953 204.354 48.0953H203.524C203.325 48.0953 203.161 47.9318 203.161 47.7327V46.9025C203.161 46.7015 203.325 46.5384 203.524 46.5384ZM200.541 40.0264H201.371C201.57 40.0264 201.734 40.1899 201.734 40.389V41.2192C201.734 41.3153 201.695 41.4075 201.628 41.4755C201.56 41.5435 201.467 41.5817 201.371 41.5818H200.541C200.342 41.5818 200.179 41.4183 200.179 41.2192V40.389C200.178 40.3413 200.188 40.2941 200.206 40.2501C200.224 40.2061 200.251 40.166 200.285 40.1324C200.318 40.0987 200.358 40.072 200.402 40.0538C200.446 40.0356 200.493 40.0263 200.541 40.0264ZM203.42 40.0264H204.251C204.45 40.0264 204.613 40.1899 204.613 40.389V41.2192C204.613 41.3153 204.575 41.4075 204.507 41.4755C204.439 41.5435 204.347 41.5817 204.251 41.5818H203.42C203.22 41.5818 203.056 41.4183 203.056 41.2192V40.389C203.057 40.2929 203.096 40.201 203.164 40.1332C203.232 40.0654 203.324 40.027 203.42 40.0264Z" fill="#E1E4E5"/>
<path fill-rule="evenodd" clip-rule="evenodd" d="M224.612 147.6H225.443C225.643 147.6 225.805 147.763 225.805 147.962V148.792C225.805 148.888 225.767 148.981 225.699 149.049C225.631 149.117 225.539 149.155 225.443 149.155H224.612C224.413 149.155 224.25 148.991 224.25 148.792V147.962C224.25 147.914 224.259 147.867 224.277 147.823C224.295 147.779 224.322 147.739 224.356 147.706C224.389 147.672 224.429 147.645 224.473 147.627C224.518 147.609 224.565 147.599 224.612 147.6ZM227.491 147.6H228.322C228.521 147.6 228.684 147.763 228.684 147.962V148.792C228.684 148.888 228.646 148.981 228.578 149.049C228.51 149.117 228.418 149.155 228.322 149.155H227.491C227.292 149.155 227.129 148.991 227.129 148.792V147.962C227.129 147.763 227.292 147.6 227.491 147.6ZM230.372 147.6H231.202C231.402 147.6 231.565 147.763 231.565 147.962V148.792C231.565 148.888 231.527 148.981 231.459 149.049C231.391 149.117 231.299 149.155 231.202 149.155H230.372C230.173 149.155 230.01 148.991 230.01 148.792V147.962C230.01 147.914 230.019 147.867 230.037 147.823C230.055 147.779 230.082 147.739 230.116 147.706C230.149 147.672 230.189 147.645 230.233 147.627C230.277 147.609 230.325 147.599 230.372 147.6ZM233.251 147.6H234.082C234.281 147.6 234.444 147.763 234.444 147.962V148.792C234.444 148.993 234.281 149.155 234.082 149.155H233.251C233.05 149.155 232.887 148.991 232.887 148.792V147.962C232.888 147.866 232.927 147.774 232.995 147.706C233.063 147.638 233.155 147.6 233.251 147.6ZM236.13 147.6H236.961C237.161 147.6 237.325 147.763 237.325 147.962V148.792C237.325 148.84 237.315 148.887 237.297 148.931C237.278 148.975 237.252 149.015 237.218 149.049C237.184 149.083 237.144 149.109 237.1 149.128C237.056 149.146 237.008 149.155 236.961 149.155H236.13C235.931 149.155 235.768 148.991 235.768 148.792V147.962C235.768 147.763 235.931 147.6 236.13 147.6ZM227.597 150.739H228.427C228.523 150.739 228.615 150.778 228.683 150.845C228.751 150.913 228.789 151.005 228.79 151.101V151.933C228.79 152.132 228.626 152.296 228.427 152.296H227.597C227.501 152.296 227.409 152.257 227.341 152.19C227.273 152.122 227.235 152.029 227.235 151.933V151.103C227.234 151.055 227.243 151.008 227.261 150.964C227.28 150.92 227.306 150.88 227.34 150.846C227.374 150.812 227.414 150.785 227.458 150.767C227.502 150.748 227.549 150.739 227.597 150.739ZM230.476 150.739H231.306C231.402 150.739 231.494 150.778 231.562 150.845C231.63 150.913 231.668 151.005 231.669 151.101V151.933C231.669 152.132 231.506 152.296 231.306 152.296H230.476C230.277 152.296 230.114 152.132 230.114 151.933V151.103C230.113 151.055 230.122 151.008 230.141 150.964C230.159 150.92 230.185 150.88 230.219 150.846C230.253 150.812 230.293 150.785 230.337 150.767C230.381 150.748 230.428 150.739 230.476 150.739ZM233.355 150.739H234.185C234.386 150.739 234.549 150.902 234.549 151.101V151.933C234.549 152.132 234.386 152.296 234.185 152.296H233.355C233.156 152.296 232.992 152.132 232.992 151.933V151.103C232.992 150.902 233.156 150.739 233.355 150.739ZM230.372 144.227H231.202C231.402 144.227 231.565 144.391 231.565 144.59V145.42C231.565 145.516 231.527 145.608 231.459 145.676C231.391 145.744 231.299 145.782 231.202 145.782H230.372C230.173 145.782 230.01 145.619 230.01 145.42V144.59C230.01 144.542 230.019 144.495 230.037 144.451C230.055 144.407 230.082 144.367 230.116 144.333C230.149 144.299 230.189 144.273 230.233 144.254C230.277 144.236 230.325 144.227 230.372 144.227ZM233.251 144.227H234.082C234.281 144.227 234.444 144.391 234.444 144.59V145.42C234.444 145.621 234.281 145.782 234.082 145.782H233.251C233.05 145.782 232.887 145.619 232.887 145.42V144.59C232.888 144.494 232.927 144.402 232.995 144.334C233.063 144.266 233.155 144.228 233.251 144.227Z" fill="#664F23"/>
<path d="M90.2778 164.852C76.7418 150.238 72.5199 129.818 71.3616 115.263C70.1041 99.4601 72.0854 86.9596 72.105 86.8365L71.2199 86.75C71.1992 86.875 69.202 99.467 70.4645 115.374C71.6319 130.074 75.8989 150.702 89.6024 165.499L90.2778 164.852Z" fill="#FCAE17"/>
<path d="M77.8511 79.5148C77.3591 84.9503 74.7351 89.7739 70.9902 92.9956C67.8427 89.6351 66.098 84.7214 66.5921 79.2874C67.0841 73.8519 69.708 69.0283 73.4529 65.8066C76.6019 69.1646 78.343 74.079 77.8511 79.5148ZM65.9228 94.2182C69.3963 98.1611 70.8402 103.222 70.3094 108.026C65.573 108.053 60.7944 106.049 57.3209 102.106C53.8478 98.1629 52.4039 93.1017 52.9333 88.3002C57.6712 88.2712 62.4497 90.275 65.9228 94.2182ZM57.0764 121.182C63.9783 123.576 70.4224 123.064 71.4699 120.039C72.517 117.013 67.7711 112.62 60.8692 110.227C53.9674 107.833 47.5233 108.345 46.4762 111.37C45.4287 114.395 50.1745 118.788 57.0764 121.182ZM60.6861 140.048C67.588 142.441 74.0321 141.929 75.0796 138.904C76.1267 135.879 71.3808 131.486 64.479 129.092C57.5771 126.698 51.133 127.21 50.0859 130.235C49.0384 133.261 53.7842 137.654 60.6861 140.048Z" fill="#FCAE17"/>
<path d="M73.3941 106.521C75.9741 102.129 79.9646 99.0172 84.18 97.6602C85.2671 101.626 84.6346 106.39 82.0545 110.782C79.4749 115.175 75.4844 118.286 71.269 119.643C70.179 115.676 70.8141 110.913 73.3941 106.521ZM77.135 126.087C79.6493 121.658 83.6005 118.482 87.7992 117.053C88.9542 120.992 88.394 125.755 85.8797 130.185C83.3658 134.614 79.4145 137.79 75.2133 139.217C74.0619 135.284 74.6196 130.519 77.135 126.087ZM75.8975 150.899C78.157 150.877 80.1267 151.853 81.4082 153.415C79.953 155.004 77.8726 156.021 75.6152 156.044C73.3556 156.066 71.386 155.091 70.1045 153.529C71.5571 151.938 73.6375 150.922 75.8975 150.899Z" fill="#FCAE17"/>
<path d="M106.931 165.377C110.104 172.761 106.682 181.32 99.2788 184.503C91.8806 187.685 83.3084 184.279 80.1307 176.897C76.9596 169.518 80.3847 160.952 87.7829 157.77C95.1862 154.587 103.759 157.993 106.931 165.377Z" fill="url(#paint3_linear_9677_37978)"/>
<path d="M103.744 166.748C106.161 172.373 103.555 178.9 97.9159 181.326C92.2755 183.747 85.741 181.154 83.3241 175.529C80.9057 169.9 83.5126 163.373 89.1527 160.952C94.7916 158.525 101.321 161.12 103.744 166.748Z" fill="white"/>
<path d="M97.2527 176.671L98.0608 178.452L96.4185 179.179L95.6344 177.443C93.9653 178.068 92.1864 178.264 90.9747 177.974L90.9983 175.636C92.0861 175.862 93.4613 175.769 94.6919 175.359L93.4897 172.701C91.4754 173.074 89.1729 173.386 88.1443 171.113C87.3799 169.429 87.9881 167.423 90.4504 165.988L89.6521 164.221L91.2944 163.494L92.0785 165.23C93.3516 164.779 94.6952 164.569 95.8473 164.725L95.9135 167.045C94.8671 166.952 93.8912 167.058 93.0293 167.324L94.2556 170.027C96.2644 169.632 98.5309 169.34 99.5453 171.583C100.292 173.244 99.6954 175.229 97.2527 176.671ZM92.4313 170.36L91.407 168.103C90.6226 168.68 90.4907 169.29 90.7269 169.818C90.9809 170.37 91.6076 170.461 92.4313 170.36ZM96.9886 172.952C96.7382 172.393 96.1242 172.305 95.3096 172.374L96.3059 174.57C97.0478 174.032 97.2189 173.458 96.9886 172.952Z" fill="#E1E4E5"/>
<path d="M285.998 62.5423C286.705 67.4201 283.32 71.9472 278.429 72.6579C273.541 73.3685 269.004 69.9899 268.293 65.1125C267.586 60.2384 270.975 55.708 275.862 54.9973C280.753 54.2863 285.29 57.6649 285.998 62.5423Z" fill="url(#paint4_linear_9677_37978)"/>
<path d="M283.893 62.8493C284.432 66.5647 281.851 70.0175 278.126 70.5596C274.4 71.0988 270.941 68.5253 270.402 64.8098C269.863 61.0911 272.443 57.6384 276.169 57.0995C279.894 56.5571 283.35 59.1306 283.893 62.8493Z" fill="white"/>
<path d="M278.472 67.6964L278.668 68.8802L277.58 69.0502L277.39 67.897C276.303 68.0024 275.218 67.836 274.546 67.4719L274.931 66.0909C275.54 66.3972 276.369 66.5603 277.163 66.5127L276.873 64.7476C275.62 64.6488 274.207 64.4686 273.958 62.9586C273.773 61.8395 274.452 60.7477 276.138 60.2884L275.946 59.1149L277.034 58.9448L277.223 60.098C278.048 60.0334 278.878 60.1217 279.535 60.3971L279.206 61.7817C278.601 61.5605 278.006 61.4685 277.454 61.4889L277.751 63.2848C279.004 63.3699 280.393 63.557 280.638 65.0466C280.816 66.149 280.148 67.2303 278.472 67.6964ZM276.617 63.1933L276.369 61.6931C275.813 61.9107 275.638 62.2508 275.694 62.6014C275.757 62.9687 276.114 63.1217 276.617 63.1933ZM278.906 65.4514C278.846 65.0808 278.496 64.9311 278.003 64.8428L278.244 66.302C278.769 66.101 278.962 65.7882 278.906 65.4514Z" fill="#E1E4E5"/>
</g>
<defs>
<linearGradient id="paint0_linear_9677_37978" x1="163.037" y1="-44.136" x2="214.372" y2="338.411" gradientUnits="userSpaceOnUse">
<stop stop-color="white"/>
<stop offset="1" stop-color="#EEEEEE"/>
</linearGradient>
<linearGradient id="paint1_linear_9677_37978" x1="98.9473" y1="1.99414" x2="108.529" y2="198.042" gradientUnits="userSpaceOnUse">
<stop stop-color="white"/>
<stop offset="1" stop-color="#EEEEEE"/>
</linearGradient>
<linearGradient id="paint2_linear_9677_37978" x1="61.8438" y1="158.703" x2="116.381" y2="122.071" gradientUnits="userSpaceOnUse">
<stop stop-color="white"/>
<stop offset="1" stop-color="#EEEEEE"/>
</linearGradient>
<linearGradient id="paint3_linear_9677_37978" x1="102.122" y1="200.795" x2="81.3057" y2="126.568" gradientUnits="userSpaceOnUse">
<stop stop-color="white"/>
<stop offset="1" stop-color="#EEEEEE"/>
</linearGradient>
<linearGradient id="paint4_linear_9677_37978" x1="277.527" y1="82.7596" x2="276.978" y2="35.4856" gradientUnits="userSpaceOnUse">
<stop stop-color="white"/>
<stop offset="1" stop-color="#EEEEEE"/>
</linearGradient>
<clipPath id="clip0_9677_37978">
<rect width="327" height="218" fill="white" transform="translate(0.5)"/>
</clipPath>
</defs>
</svg>
