<svg width="20" height="20" viewBox="0 0 20 20" fill="none" xmlns="http://www.w3.org/2000/svg">
<path d="M12.5003 18.9583H7.50033C2.97533 18.9583 1.04199 17.025 1.04199 12.5V7.49999C1.04199 2.97499 2.97533 1.04166 7.50033 1.04166H9.16699C9.50866 1.04166 9.79199 1.32499 9.79199 1.66666C9.79199 2.00832 9.50866 2.29166 9.16699 2.29166H7.50033C3.65866 2.29166 2.29199 3.65832 2.29199 7.49999V12.5C2.29199 16.3417 3.65866 17.7083 7.50033 17.7083H12.5003C16.342 17.7083 17.7087 16.3417 17.7087 12.5V10.8333C17.7087 10.4917 17.992 10.2083 18.3337 10.2083C18.6753 10.2083 18.9587 10.4917 18.9587 10.8333V12.5C18.9587 17.025 17.0253 18.9583 12.5003 18.9583Z" fill="#186F3D"/>
<path d="M7.08311 14.7417C6.57478 14.7417 6.10811 14.5583 5.76645 14.225C5.35811 13.8167 5.18311 13.225 5.27478 12.6L5.63311 10.0917C5.69978 9.60832 6.01645 8.98332 6.35811 8.64165L12.9248 2.07499C14.5831 0.416655 16.2664 0.416655 17.9248 2.07499C18.8331 2.98332 19.2414 3.90832 19.1581 4.83332C19.0831 5.58332 18.6831 6.31665 17.9248 7.06665L11.3581 13.6333C11.0164 13.975 10.3914 14.2917 9.90811 14.3583L7.39978 14.7167C7.29145 14.7417 7.18311 14.7417 7.08311 14.7417ZM13.8081 2.95832L7.24145 9.52499C7.08311 9.68332 6.89978 10.05 6.86645 10.2667L6.50811 12.775C6.47478 13.0167 6.52478 13.2167 6.64978 13.3417C6.77478 13.4667 6.97478 13.5167 7.21645 13.4833L9.72478 13.125C9.94145 13.0917 10.3164 12.9083 10.4664 12.75L17.0331 6.18332C17.5748 5.64165 17.8581 5.15832 17.8998 4.70832C17.9498 4.16665 17.6664 3.59165 17.0331 2.94999C15.6998 1.61665 14.7831 1.99165 13.8081 2.95832Z" fill="#186F3D"/>
<path d="M16.5413 8.19167C16.483 8.19167 16.4246 8.18334 16.3746 8.16667C14.183 7.55 12.4413 5.80834 11.8246 3.61667C11.733 3.28334 11.9246 2.94167 12.258 2.84167C12.5913 2.75 12.933 2.94167 13.0246 3.275C13.5246 5.05 14.933 6.45834 16.708 6.95834C17.0413 7.05 17.233 7.4 17.1413 7.73334C17.0663 8.01667 16.8163 8.19167 16.5413 8.19167Z" fill="#186F3D"/>
</svg>
