<svg width="51" height="51" viewBox="0 0 51 51" fill="none" xmlns="http://www.w3.org/2000/svg">
<circle cx="25.667" cy="25.5" r="25" fill="#34C759" fill-opacity="0.15"/>
<path d="M31.117 36.25C29.987 36.25 28.797 35.98 27.567 35.46C26.367 34.95 25.157 34.25 23.977 33.4C22.807 32.54 21.677 31.58 20.607 30.53C19.547 29.46 18.587 28.33 17.737 27.17C16.877 25.97 16.187 24.77 15.697 23.61C15.177 22.37 14.917 21.17 14.917 20.04C14.917 19.26 15.057 18.52 15.327 17.83C15.607 17.12 16.057 16.46 16.667 15.89C17.437 15.13 18.317 14.75 19.257 14.75C19.647 14.75 20.047 14.84 20.387 15C20.777 15.18 21.107 15.45 21.347 15.81L23.667 19.08C23.877 19.37 24.037 19.65 24.147 19.93C24.277 20.23 24.347 20.53 24.347 20.82C24.347 21.2 24.237 21.57 24.027 21.92C23.877 22.19 23.647 22.48 23.357 22.77L22.677 23.48C22.687 23.51 22.697 23.53 22.707 23.55C22.827 23.76 23.067 24.12 23.527 24.66C24.017 25.22 24.477 25.73 24.937 26.2C25.527 26.78 26.017 27.24 26.477 27.62C27.047 28.1 27.417 28.34 27.637 28.45L27.617 28.5L28.347 27.78C28.657 27.47 28.957 27.24 29.247 27.09C29.797 26.75 30.497 26.69 31.197 26.98C31.457 27.09 31.737 27.24 32.037 27.45L35.357 29.81C35.727 30.06 35.997 30.38 36.157 30.76C36.307 31.14 36.377 31.49 36.377 31.84C36.377 32.32 36.267 32.8 36.057 33.25C35.847 33.7 35.587 34.09 35.257 34.45C34.687 35.08 34.067 35.53 33.347 35.82C32.657 36.1 31.907 36.25 31.117 36.25ZM19.257 16.25C18.707 16.25 18.197 16.49 17.707 16.97C17.247 17.4 16.927 17.87 16.727 18.38C16.517 18.9 16.417 19.45 16.417 20.04C16.417 20.97 16.637 21.98 17.077 23.02C17.527 24.08 18.157 25.18 18.957 26.28C19.757 27.38 20.667 28.45 21.667 29.46C22.667 30.45 23.747 31.37 24.857 32.18C25.937 32.97 27.047 33.61 28.147 34.07C29.857 34.8 31.457 34.97 32.777 34.42C33.287 34.21 33.737 33.89 34.147 33.43C34.377 33.18 34.557 32.91 34.707 32.59C34.827 32.34 34.887 32.08 34.887 31.82C34.887 31.66 34.857 31.5 34.777 31.32C34.747 31.26 34.687 31.15 34.497 31.02L31.177 28.66C30.977 28.52 30.797 28.42 30.627 28.35C30.407 28.26 30.317 28.17 29.977 28.38C29.777 28.48 29.597 28.63 29.397 28.83L28.637 29.58C28.247 29.96 27.647 30.05 27.187 29.88L26.917 29.76C26.507 29.54 26.027 29.2 25.497 28.75C25.017 28.34 24.497 27.86 23.867 27.24C23.377 26.74 22.887 26.21 22.377 25.62C21.907 25.07 21.567 24.6 21.357 24.21L21.237 23.91C21.177 23.68 21.157 23.55 21.157 23.41C21.157 23.05 21.287 22.73 21.537 22.48L22.287 21.7C22.487 21.5 22.637 21.31 22.737 21.14C22.817 21.01 22.847 20.9 22.847 20.8C22.847 20.72 22.817 20.6 22.767 20.48C22.697 20.32 22.587 20.14 22.447 19.95L20.127 16.67C20.027 16.53 19.907 16.43 19.757 16.36C19.597 16.29 19.427 16.25 19.257 16.25ZM27.617 28.51L27.457 29.19L27.727 28.49C27.677 28.48 27.637 28.49 27.617 28.51Z" fill="#34C759"/>
</svg>
