<svg width="328" height="220" viewBox="0 0 328 220" fill="none" xmlns="http://www.w3.org/2000/svg">
<g clip-path="url(#clip0_5662_8832)">
<path d="M244.158 148.973C241.48 148.973 239.31 151.143 239.31 153.82C239.31 156.498 241.48 158.668 244.158 158.668C246.835 158.668 249.005 156.498 249.005 153.82C249.005 151.143 246.835 148.973 244.158 148.973Z" fill="#FCAE17"/>
<path d="M260.199 85.1267C256.391 85.1267 253.304 88.2137 253.304 92.0217C253.304 95.8296 256.391 98.9166 260.199 98.9166C264.007 98.9166 267.094 95.8296 267.094 92.0217C267.094 88.2137 264.007 85.1267 260.199 85.1267Z" fill="#FCAE17"/>
<path d="M79.5887 104.249C77.3847 104.249 75.5979 106.036 75.5979 108.24C75.5979 110.444 77.3847 112.231 79.5887 112.231C81.7927 112.231 83.5795 110.444 83.5795 108.24C83.5795 106.036 81.7927 104.249 79.5887 104.249Z" fill="#FCAE17"/>
<path d="M113.728 190.443C111.218 190.443 109.183 188.409 109.183 185.898C109.183 183.388 111.218 181.354 113.728 181.354C116.238 181.354 118.273 183.388 118.273 185.898C118.273 188.409 116.238 190.443 113.728 190.443Z" fill="#FCAE17"/>
<path d="M134.436 125.544C133.265 125.544 132.315 124.595 132.315 123.423C132.315 122.252 133.265 121.302 134.436 121.302C135.608 121.302 136.557 122.252 136.557 123.423C136.557 124.595 135.608 125.544 134.436 125.544Z" fill="#FCAE17"/>
<path d="M219.844 190.23C218.338 190.23 217.117 189.009 217.117 187.503C217.117 185.997 218.338 184.776 219.844 184.776C221.35 184.776 222.571 185.997 222.571 187.503C222.571 189.009 221.35 190.23 219.844 190.23Z" fill="#E1E4E5"/>
<path d="M71.4991 148.675C69.3238 148.675 67.5604 146.912 67.5604 144.736C67.5604 142.561 69.3238 140.798 71.4991 140.798C73.6744 140.798 75.4379 142.561 75.4379 144.736C75.4379 146.912 73.6744 148.675 71.4991 148.675Z" fill="#E1E4E5"/>
<path d="M267.231 147.686C265.576 147.686 264.234 146.344 264.234 144.688C264.234 143.033 265.576 141.691 267.231 141.691C268.887 141.691 270.229 143.033 270.229 144.688C270.229 146.344 268.887 147.686 267.231 147.686Z" fill="#E1E4E5"/>
<path d="M247.453 62.4936C245.612 62.4936 244.12 61.0014 244.12 59.1607C244.12 57.3201 245.612 55.8279 247.453 55.8279C249.294 55.8279 250.786 57.3201 250.786 59.1607C250.786 61.0014 249.294 62.4936 247.453 62.4936Z" fill="#E1E4E5"/>
<path d="M64.665 87.493C65.0929 89.0896 64.1453 90.7308 62.5487 91.1586C60.952 91.5864 59.3109 90.6389 58.883 89.0422C58.4552 87.4456 59.4027 85.8044 60.9994 85.3766C62.5961 84.9488 64.2372 85.8963 64.665 87.493Z" fill="#E1E4E5"/>
<path d="M110.79 49.3602C108.591 49.3602 106.809 47.5775 106.809 45.3785C106.809 43.1795 108.591 41.3969 110.79 41.3969C112.989 41.3969 114.772 43.1795 114.772 45.3785C114.772 47.5775 112.989 49.3602 110.79 49.3602Z" fill="#E1E4E5"/>
<path d="M221.445 34.1547C221.445 36.6682 219.407 38.7058 216.894 38.7058C214.38 38.7058 212.343 36.6682 212.343 34.1547C212.343 31.6411 214.38 29.6035 216.894 29.6035C219.407 29.6035 221.445 31.6411 221.445 34.1547Z" fill="#E1E4E5"/>
<path d="M78.6291 66.6896H78.6727C78.9311 70.3499 81.6537 70.4063 81.6537 70.4063C81.6537 70.4063 78.6516 70.4649 78.6516 74.6948C78.6516 70.4649 75.6495 70.4063 75.6495 70.4063C75.6495 70.4063 78.3707 70.3499 78.6291 66.6896ZM81.7559 164.767H81.7978C82.0456 168.417 84.6594 168.474 84.6594 168.474C84.6594 168.474 81.7774 168.532 81.7774 172.749C81.7774 168.532 78.8951 168.474 78.8951 168.474C78.8951 168.474 81.5078 168.417 81.7559 164.767Z" fill="#E1E4E5"/>
<path fill-rule="evenodd" clip-rule="evenodd" d="M223.115 127.039V158.705C223.115 161.621 222.322 164.483 220.822 166.984C219.321 169.486 217.169 171.532 214.595 172.904L173.564 194.812C171.234 196.054 168.634 196.704 165.994 196.704C163.353 196.704 160.753 196.054 158.423 194.812L117.393 172.904C114.819 171.532 112.667 169.486 111.166 166.985C109.666 164.483 108.873 161.621 108.873 158.705V127.039" fill="white"/>
<path d="M223.115 127.039V158.705C223.115 161.621 222.322 164.483 220.822 166.984C219.321 169.486 217.169 171.532 214.595 172.904L173.564 194.812C171.234 196.054 168.634 196.704 165.994 196.704C163.353 196.704 160.753 196.054 158.423 194.812L117.393 172.904C114.819 171.532 112.667 169.486 111.166 166.985C109.666 164.483 108.873 161.621 108.873 158.705V127.039" stroke="#E1E4E5" stroke-width="1.45555"/>
<path fill-rule="evenodd" clip-rule="evenodd" d="M142.969 53.6831L239.97 103.748C241.274 104.421 242.369 105.438 243.137 106.689C243.904 107.939 244.315 109.376 244.325 110.843C244.335 112.31 243.944 113.753 243.193 115.013C242.442 116.274 241.361 117.306 240.067 117.996L203.863 137.305C201.566 138.53 199.006 139.18 196.402 139.198C193.798 139.216 191.229 138.602 188.915 137.409L91.9387 87.3279C90.6347 86.6549 89.5397 85.6382 88.772 84.3877C88.0043 83.1372 87.5933 81.7006 87.5833 80.2333C87.5733 78.766 87.9649 77.3239 88.7155 76.0631C89.4661 74.8023 90.5472 73.7708 91.8419 73.0802L128.045 53.7715C130.341 52.5526 132.897 51.9079 135.496 51.8925C138.095 51.8771 140.659 52.4915 142.969 53.6831Z" fill="white" stroke="#E1E4E5" stroke-width="1.45555"/>
<path d="M197.331 124.574C195.639 124.574 194.268 123.477 194.268 122.124C194.268 120.771 195.639 119.674 197.331 119.674C199.022 119.674 200.394 120.771 200.394 122.124C200.394 123.477 199.022 124.574 197.331 124.574Z" fill="#E1E4E5"/>
<path d="M188.939 53.6831L91.9386 103.748C90.6346 104.421 89.5395 105.438 88.7718 106.689C88.004 107.939 87.5929 109.376 87.5829 110.843C87.573 112.31 87.9645 113.753 88.7152 115.013C89.4659 116.274 90.5471 117.306 91.8418 117.996L128.045 137.305C130.342 138.53 132.903 139.18 135.506 139.198C138.11 139.216 140.679 138.602 142.993 137.409L239.97 87.3279C241.274 86.6549 242.369 85.6382 243.136 84.3877C243.904 83.1372 244.315 81.7006 244.325 80.2333C244.335 78.766 243.943 77.3239 243.193 76.0631C242.442 74.8023 241.361 73.7708 240.066 73.0802L203.863 53.7715C201.568 52.5526 199.011 51.9079 196.412 51.8925C193.813 51.8771 191.249 52.4915 188.939 53.6831Z" stroke="#E1E4E5" stroke-width="1.45555"/>
<path d="M165.955 196.703V125.535" stroke="#E1E4E5" stroke-width="1.45555"/>
<path d="M88.0488 172.421H95.4182M79.696 168.491H95.4182M88.54 176.597H95.4182M239.977 172.421H232.608M248.33 168.491H232.608M239.486 176.597H232.608" stroke="#E1E4E5" stroke-width="1.47229" stroke-linecap="round" stroke-linejoin="round"/>
<path fill-rule="evenodd" clip-rule="evenodd" d="M128.236 70.6636V51.5711C128.236 48.4151 129.064 45.3143 130.637 42.5783C132.211 39.8422 134.474 37.5666 137.201 35.9785L155.243 25.4785C157.999 23.8753 161.13 23.0308 164.318 23.0308C167.506 23.0308 170.638 23.8753 173.393 25.4785L191.436 35.9788C194.164 37.5661 196.428 39.8413 198.002 42.5774C199.576 45.3135 200.404 48.4147 200.404 51.5711V70.6636C200.404 73.8196 199.576 76.9203 198.003 79.6563C196.43 82.3922 194.167 84.6678 191.44 86.2559L173.397 96.7566C170.642 98.3597 167.51 99.2041 164.322 99.2041C161.134 99.2041 158.003 98.3597 155.247 96.7566L137.205 86.2559C134.477 84.6687 132.212 82.3934 130.639 79.6573C129.065 76.9212 128.236 73.8201 128.236 70.6636Z" fill="#FCAE17"/>
<path d="M164.321 61.1174V43.0754M164.317 75.1504C164.185 75.1502 164.055 75.176 163.933 75.2264C163.812 75.2767 163.702 75.3506 163.609 75.4437C163.516 75.5369 163.442 75.6475 163.393 75.7691C163.343 75.8908 163.317 76.0211 163.318 76.1526C163.327 76.4127 163.436 76.6593 163.623 76.8402C163.81 77.0212 164.06 77.1224 164.32 77.1224C164.581 77.1224 164.831 77.0212 165.018 76.8402C165.205 76.6593 165.314 76.4127 165.323 76.1526C165.322 76.0207 165.296 75.8901 165.246 75.7684C165.195 75.6466 165.121 75.536 165.027 75.4429C164.934 75.3499 164.823 75.2761 164.701 75.2259C164.579 75.1757 164.448 75.1501 164.317 75.1504Z" stroke="white" stroke-width="5.6723" stroke-linecap="round" stroke-linejoin="round"/>
</g>
<defs>
<clipPath id="clip0_5662_8832">
<rect width="327.5" height="218.333" fill="white" transform="translate(0.25 0.833374)"/>
</clipPath>
</defs>
</svg>
