<svg width="300" height="200" viewBox="0 0 300 200" fill="none" xmlns="http://www.w3.org/2000/svg">
<g clip-path="url(#clip0_8735_67731)">
<path d="M217.342 118.29C218.402 137.823 180.214 177.54 133.145 162.84C111.254 156.002 113.108 144.653 96.4616 129.696C86.5396 120.781 72.2836 114.04 68.3186 101.082C64.8932 89.8969 66.9936 77.8749 72.9322 70.0553C86.2876 52.4696 113.249 40.4276 139.815 68.1353C166.381 95.8429 214.602 67.9143 217.342 118.29Z" fill="url(#paint0_linear_8735_67731)"/>
<path d="M193.768 62.1245C190.605 67.7699 183.678 68.5456 172.579 67.4725C164.232 66.6642 156.621 66.0389 148.273 61.4875C142.43 58.3042 137.805 53.9975 134.43 49.8145C130.772 45.2829 125.666 40.1112 128.169 34.9732C131.609 27.9152 151.5 21.9709 170.815 31.6919C192.032 42.3735 196.863 56.6069 193.768 62.1245Z" fill="url(#paint1_linear_8735_67731)"/>
<path fill-rule="evenodd" clip-rule="evenodd" d="M172.934 152.571H122.979C116.663 152.571 111.414 147.697 110.943 141.392L105.531 68.1069H190.201L184.97 141.362C184.518 147.678 179.263 152.571 172.934 152.571Z" fill="#B3B3B3" stroke="#B3B3B3" stroke-width="8.13467" stroke-linecap="round" stroke-linejoin="round"/>
<path d="M147.969 92.2397V128.439" stroke="white" stroke-width="8.13467" stroke-linecap="round" stroke-linejoin="round"/>
<path d="M99.7031 68.1068H196.234M178.134 68.1068L172.023 51.8051C171.16 49.5046 169.616 47.5222 167.597 46.1228C165.578 44.7235 163.179 43.9738 160.722 43.9741H135.214C132.758 43.9738 130.359 44.7235 128.34 46.1228C126.321 47.5222 124.777 49.5046 123.914 51.8051L117.802 68.1068" stroke="#B3B3B3" stroke-width="8.13467" stroke-linecap="round" stroke-linejoin="round"/>
<path d="M168.662 92.2397L166.068 128.439M127.274 92.2397L129.869 128.439" stroke="white" stroke-width="8.13467" stroke-linecap="round" stroke-linejoin="round"/>
<path d="M199.069 148.583C198.87 147.98 198.453 147.495 198.136 146.96C195.785 142.936 193.77 138.756 192.227 134.346C191.288 131.666 190.361 128.979 189.733 126.205C189.18 123.767 188.701 121.316 188.452 118.822C188.321 117.528 188.197 116.241 188.153 114.941C188.128 114.244 188.01 113.548 188.066 112.851C188.172 111.582 188.135 110.301 188.47 109.057C188.533 108.827 188.595 108.59 188.688 108.373C189.217 107.098 190.405 106.843 191.412 107.769C191.898 108.217 192.246 108.765 192.569 109.331C194.068 111.949 195.312 114.692 196.413 117.497C198.105 121.801 199.629 126.167 201.047 130.565C201.302 131.361 201.551 132.163 201.911 132.953C201.911 132.524 201.974 132.082 201.899 131.666C201.781 131.062 201.818 130.465 201.781 129.868C201.551 126.161 201.582 122.448 201.675 118.735C201.712 117.254 201.849 115.762 202.023 114.281C202.141 113.28 202.229 112.272 202.365 111.277C202.77 108.398 203.168 105.512 204.244 102.781C204.455 102.24 204.735 101.73 205.146 101.313C205.973 100.461 206.999 100.523 207.752 101.456C208.479 102.358 208.834 103.44 209.145 104.529C209.53 105.897 209.73 107.297 209.91 108.709C210.215 111.097 210.283 113.498 210.37 115.905C210.426 117.541 210.488 119.183 210.439 120.818C210.383 122.647 210.389 124.482 210.289 126.31C210.19 128.139 210.128 129.961 210.034 131.79C210.034 131.84 210.047 131.883 210.065 131.995C210.314 131.591 210.345 131.174 210.439 130.789C211.589 125.931 213.063 121.173 215.01 116.577C216.217 113.734 217.554 110.954 219.401 108.454C220.148 107.44 220.944 106.469 222.045 105.823C222.629 105.481 223.245 105.213 223.96 105.4C224.707 105.592 225.142 106.102 225.403 106.793C225.776 107.782 225.87 108.814 225.783 109.847C225.647 111.475 225.421 113.095 225.105 114.698C224.526 117.634 223.668 120.489 222.617 123.288C220.676 128.469 218.45 133.544 216.316 138.657C216.223 138.874 216.074 139.079 216.123 139.341C216.049 139.353 216.011 139.397 216.011 139.465C216.011 139.484 216.055 139.502 216.08 139.521C216.099 139.459 216.111 139.403 216.13 139.341C216.54 139.055 216.733 138.594 217 138.209C218.462 136.113 219.967 134.054 221.622 132.107C223.233 130.216 224.906 128.382 227.039 127.051C227.798 126.578 228.575 126.142 229.514 126.149C230.578 126.155 231.3 126.634 231.635 127.66C231.853 128.326 231.909 128.997 231.828 129.713C231.555 132.076 230.572 134.147 229.322 136.106C227.58 138.831 225.565 141.343 223.407 143.751C221.242 146.164 218.792 148.254 216.26 150.256C214.015 152.035 211.807 153.864 209.586 155.668C208.989 156.153 208.38 156.625 207.739 157.055C207.099 157.49 206.414 157.596 205.68 157.39C202.757 156.557 199.884 155.618 197.191 154.175C195.082 153.043 193.123 151.699 191.276 150.175C189.503 148.72 187.799 147.196 186.238 145.517C184.863 144.03 183.569 142.475 182.63 140.666C182.332 140.093 182.195 139.496 182.257 138.856C182.319 138.209 182.811 137.661 183.457 137.599C184.005 137.549 184.558 137.556 185.099 137.73C186.549 138.196 187.768 139.061 188.925 140.006C191.493 142.115 194.043 144.242 196.481 146.5C197.203 147.171 197.956 147.812 198.696 148.465C198.789 148.546 198.882 148.621 199.007 148.633C199.038 148.745 199.081 148.838 199.206 148.876C199.212 148.894 199.218 148.913 199.231 148.925C199.237 148.932 199.255 148.932 199.268 148.932C199.243 148.913 199.218 148.9 199.193 148.882C199.224 148.764 199.181 148.664 199.069 148.583ZM80.3805 148.583C80.1811 147.98 79.7645 147.495 79.4475 146.96C77.0965 142.936 75.0811 138.756 73.5385 134.346C72.5995 131.666 71.6728 128.979 71.0445 126.205C70.4908 123.767 70.0121 121.316 69.7631 118.822C69.6325 117.528 69.5081 116.241 69.4648 114.941C69.4398 114.244 69.3218 113.548 69.3775 112.851C69.4835 111.582 69.4461 110.301 69.7818 109.057C69.8441 108.827 69.9065 108.59 69.9995 108.373C70.5281 107.098 71.7161 106.843 72.7238 107.769C73.2091 108.217 73.5571 108.765 73.8808 109.331C75.3798 111.949 76.6235 114.692 77.7245 117.497C79.4161 121.801 80.9401 126.167 82.3581 130.565C82.6131 131.361 82.8621 132.163 83.2228 132.953C83.2228 132.524 83.2848 132.082 83.2105 131.666C83.0921 131.062 83.1295 130.465 83.0921 129.868C82.8621 126.161 82.8931 122.448 82.9865 118.735C83.0238 117.254 83.1605 115.762 83.3348 114.281C83.4528 113.28 83.5398 112.272 83.6768 111.277C84.0811 108.398 84.4791 105.512 85.5551 102.781C85.7665 102.24 86.0465 101.73 86.4571 101.313C87.2841 100.461 88.3105 100.523 89.0631 101.456C89.7908 102.358 90.1455 103.44 90.4561 104.529C90.8418 105.897 91.0408 107.297 91.2215 108.709C91.5261 111.097 91.5945 113.498 91.6815 115.905C91.7375 117.541 91.7998 119.183 91.7501 120.818C91.6941 122.647 91.7001 124.482 91.6008 126.31C91.5011 128.139 91.4391 129.961 91.3458 131.79C91.3458 131.84 91.3582 131.883 91.3768 131.995C91.6255 131.591 91.6568 131.174 91.7501 130.789C92.9008 125.931 94.3748 121.173 96.3215 116.577C97.5281 113.734 98.8655 110.954 100.712 108.454C101.459 107.44 102.255 106.469 103.356 105.823C103.941 105.481 104.556 105.213 105.272 105.4C106.018 105.592 106.453 106.102 106.715 106.793C107.088 107.782 107.181 108.814 107.094 109.847C106.958 111.475 106.732 113.095 106.416 114.698C105.838 117.634 104.979 120.489 103.928 123.288C101.988 128.469 99.7611 133.544 97.6275 138.657C97.5345 138.874 97.3851 139.079 97.4348 139.341C97.3601 139.353 97.3228 139.397 97.3228 139.465C97.3228 139.484 97.3665 139.502 97.3911 139.521C97.4098 139.459 97.4225 139.403 97.4411 139.341C97.8515 139.055 98.0445 138.594 98.3118 138.209C99.7735 136.113 101.278 134.054 102.933 132.107C104.544 130.216 106.217 128.382 108.35 127.051C109.109 126.578 109.887 126.142 110.826 126.149C111.889 126.155 112.611 126.634 112.947 127.66C113.164 128.326 113.22 128.997 113.14 129.713C112.866 132.076 111.883 134.147 110.633 136.106C108.891 138.831 106.876 141.343 104.718 143.751C102.554 146.164 100.103 148.254 97.5718 150.256C95.3265 152.035 93.1185 153.864 90.8978 155.668C90.3008 156.153 89.6911 156.625 89.0505 157.055C88.4101 157.49 87.7258 157.596 86.9918 157.39C84.0685 156.557 81.1951 155.618 78.5018 154.175C76.3935 153.043 74.4341 151.699 72.5871 150.175C70.8145 148.72 69.1101 147.196 67.5491 145.517C66.1745 144.03 64.8808 142.475 63.9415 140.666C63.6431 140.093 63.5061 139.496 63.5685 138.856C63.6305 138.209 64.1218 137.661 64.7688 137.599C65.3161 137.549 65.8698 137.556 66.4108 137.73C67.8601 138.196 69.0791 139.061 70.2358 140.006C72.8048 142.115 75.3548 144.242 77.7928 146.5C78.5145 147.171 79.2671 147.812 80.0071 148.465C80.1005 148.546 80.1938 148.621 80.3181 148.633C80.3491 148.745 80.3928 148.838 80.5171 148.876C80.5235 148.894 80.5295 148.913 80.5421 148.925C80.5481 148.932 80.5668 148.932 80.5795 148.932C80.5545 148.913 80.5295 148.9 80.5048 148.882C80.5358 148.764 80.4921 148.664 80.3805 148.583Z" fill="#E1E1E1"/>
<path d="M74.0418 150.473C74.1592 151.932 74.3032 153.39 74.3908 154.853C74.4248 155.449 74.4858 156.045 74.4092 156.646C74.3878 156.81 74.3425 156.956 74.2592 157.096C74.0655 157.403 73.7498 157.522 73.3985 157.428C73.0905 157.342 72.8552 157.15 72.6275 156.943C71.9078 156.301 71.2982 155.56 70.6805 154.822C68.0938 151.709 66.1325 148.235 64.7185 144.449C64.3059 143.355 63.9354 142.245 63.6078 141.123C63.2292 139.837 63.0828 138.519 63.0172 137.188C62.9398 135.5 63.0408 133.821 63.3362 132.158C63.4345 131.595 63.6248 131.05 63.8502 130.53C64.0142 130.147 64.1678 130.109 64.5648 130.152C65.3805 130.249 65.9868 130.726 66.6008 131.187C68.2728 132.451 69.6298 133.995 70.6742 135.8C71.6072 137.409 72.2732 139.134 72.7288 140.929C72.9935 141.97 73.2122 143.021 73.3932 144.08C73.7058 145.864 73.8402 147.668 73.9878 149.471C74.0185 149.802 74.0408 150.137 74.0662 150.465C74.0555 150.473 74.0472 150.476 74.0418 150.473ZM227.658 147.005C228.127 145.441 228.741 143.954 229.34 142.461C229.735 141.484 230.141 140.511 230.558 139.543C231.324 137.76 232.016 135.951 232.61 134.103C233.114 132.515 233.529 130.899 233.853 129.264C234.337 126.831 234.602 124.382 234.589 121.904C234.573 119.594 234.35 117.31 233.669 115.09C233.326 113.966 232.831 112.914 232.062 112.008C231.641 111.512 231.157 111.084 230.559 110.811C229.519 110.335 228.532 110.485 227.604 111.118C226.821 111.658 226.272 112.402 225.802 113.216C225.173 114.301 224.751 115.472 224.394 116.666C222.88 121.751 222.619 126.937 223.131 132.192C223.334 134.262 223.646 136.318 223.916 138.381C224.291 141.253 224.311 144.129 224.11 147.01C224.01 148.457 223.957 149.903 223.99 151.35C223.998 151.684 224.022 152.011 224.107 152.334C224.277 152.971 224.693 153.233 225.35 153.118C225.646 153.069 225.929 152.958 226.179 152.791C226.719 152.428 227.233 152.031 227.638 151.526C228.014 151.054 228.484 150.744 228.995 150.453C232.699 148.348 236.122 145.865 239.166 142.874C240.832 141.237 242.37 139.487 243.619 137.502C243.965 136.955 244.293 136.402 244.496 135.783C244.532 135.68 244.564 135.575 244.589 135.467C244.793 134.552 244.238 133.931 243.309 134.05C242.701 134.127 242.171 134.411 241.654 134.717C240.458 135.428 239.354 136.27 238.271 137.137C235.365 139.461 232.565 141.912 229.951 144.562C229.23 145.292 228.559 146.066 227.896 146.842C227.84 146.904 227.815 147.012 227.658 147.005Z" fill="#E1E1E1"/>
<path d="M52.1354 113.41C54.2981 117.477 60.2831 118.526 60.2831 118.526C60.2831 118.526 62.7581 112.981 60.5921 108.915C58.4294 104.848 52.4478 103.797 52.4478 103.797C52.4478 103.797 49.9728 109.343 52.1354 113.41Z" fill="url(#paint2_linear_8735_67731)"/>
<path d="M206.937 46.6928C208.596 44.2498 207.4 40.5425 207.4 40.5425C207.4 40.5425 203.515 40.7988 201.858 43.2435C200.199 45.6868 201.394 49.3925 201.394 49.3925C201.394 49.3925 205.278 49.1361 206.937 46.6928Z" fill="url(#paint3_linear_8735_67731)"/>
<path d="M213.957 81.5828C209.082 80.5971 206.152 74.7264 206.152 74.7264C206.152 74.7264 211.129 70.4568 216.004 71.4461C220.88 72.4318 223.809 78.2988 223.809 78.2988C223.809 78.2988 218.832 82.5684 213.957 81.5828Z" fill="url(#paint4_linear_8735_67731)"/>
<path d="M209.864 59.9984C211.954 59.9984 213.649 58.304 213.649 56.214C213.649 54.124 211.954 52.4297 209.864 52.4297C207.774 52.4297 206.08 54.124 206.08 56.214C206.08 58.304 207.774 59.9984 209.864 59.9984Z" fill="#E1E1E1"/>
<path d="M223.235 95.0731C224.931 95.0731 226.305 93.6986 226.305 92.0031C226.305 90.3076 224.931 88.9331 223.235 88.9331C221.54 88.9331 220.165 90.3076 220.165 92.0031C220.165 93.6986 221.54 95.0731 223.235 95.0731Z" fill="#E1E4E5"/>
<path d="M113.089 38.3626C114.989 38.3626 116.529 36.8223 116.529 34.9223C116.529 33.0222 114.989 31.4819 113.089 31.4819C111.189 31.4819 109.648 33.0222 109.648 34.9223C109.648 36.8223 111.189 38.3626 113.089 38.3626Z" fill="#E1E4E5"/>
<path d="M217.637 157.593C217.637 159.026 218.798 160.186 220.23 160.186C221.662 160.186 222.823 159.026 222.823 157.593C222.823 156.161 221.662 155 220.23 155C218.798 155 217.637 156.161 217.637 157.593Z" fill="#E1E4E5"/>
<path d="M78.7784 45.7237C78.2742 47.6052 79.3908 49.5392 81.2724 50.0434C83.1539 50.5475 85.0879 49.4309 85.592 47.5494C86.0962 45.6679 84.9796 43.7339 83.0981 43.2297C81.2165 42.7256 79.2825 43.8422 78.7784 45.7237Z" fill="#E1E4E5"/>
</g>
<defs>
<linearGradient id="paint0_linear_8735_67731" x1="171.699" y1="235.372" x2="100.267" y2="-86.9061" gradientUnits="userSpaceOnUse">
<stop stop-color="white"/>
<stop offset="1" stop-color="#EEEEEE"/>
</linearGradient>
<linearGradient id="paint1_linear_8735_67731" x1="172.459" y1="98.7112" x2="144.265" y2="-27.9805" gradientUnits="userSpaceOnUse">
<stop stop-color="white"/>
<stop offset="1" stop-color="#EEEEEE"/>
</linearGradient>
<linearGradient id="paint2_linear_8735_67731" x1="61.2998" y1="127.828" x2="49.3071" y2="86.1224" gradientUnits="userSpaceOnUse">
<stop stop-color="white"/>
<stop offset="1" stop-color="#EEEEEE"/>
</linearGradient>
<linearGradient id="paint3_linear_8735_67731" x1="212.369" y1="37.1828" x2="192.313" y2="56.4618" gradientUnits="userSpaceOnUse">
<stop stop-color="white"/>
<stop offset="1" stop-color="#EEEEEE"/>
</linearGradient>
<linearGradient id="paint4_linear_8735_67731" x1="196.213" y1="76.5394" x2="243.069" y2="76.1048" gradientUnits="userSpaceOnUse">
<stop stop-color="white"/>
<stop offset="1" stop-color="#EEEEEE"/>
</linearGradient>
<clipPath id="clip0_8735_67731">
<rect width="300" height="200" fill="white"/>
</clipPath>
</defs>
</svg>
