<svg width="24" height="25" viewBox="0 0 24 25" fill="none" xmlns="http://www.w3.org/2000/svg">
<path d="M9.47001 15.7799C9.28001 15.7799 9.09001 15.7099 8.94001 15.5599C8.12001 14.7399 7.67001 13.6499 7.67001 12.4999C7.67001 10.1099 9.61001 8.16992 12 8.16992C13.15 8.16992 14.24 8.61992 15.06 9.43992C15.2 9.57992 15.28 9.76992 15.28 9.96992C15.28 10.1699 15.2 10.3599 15.06 10.4999L10 15.5599C9.85001 15.7099 9.66001 15.7799 9.47001 15.7799ZM12 9.66992C10.44 9.66992 9.17001 10.9399 9.17001 12.4999C9.17001 12.9999 9.30001 13.4799 9.54001 13.8999L13.4 10.0399C12.98 9.79992 12.5 9.66992 12 9.66992Z" fill="#292D32"/>
<path d="M5.6 19.0105C5.43 19.0105 5.25 18.9505 5.11 18.8305C4.04 17.9205 3.08 16.8005 2.26 15.5005C1.2 13.8505 1.2 11.1605 2.26 9.50047C4.7 5.68047 8.25 3.48047 12 3.48047C14.2 3.48047 16.37 4.24047 18.27 5.67047C18.6 5.92047 18.67 6.39047 18.42 6.72047C18.17 7.05047 17.7 7.12047 17.37 6.87047C15.73 5.63047 13.87 4.98047 12 4.98047C8.77 4.98047 5.68 6.92047 3.52 10.3105C2.77 11.4805 2.77 13.5205 3.52 14.6905C4.27 15.8605 5.13 16.8705 6.08 17.6905C6.39 17.9605 6.43 18.4305 6.16 18.7505C6.02 18.9205 5.81 19.0105 5.6 19.0105Z" fill="#292D32"/>
<path d="M12 21.5205C10.67 21.5205 9.37 21.2505 8.12 20.7205C7.74 20.5605 7.56 20.1205 7.72 19.7405C7.88 19.3605 8.32 19.1805 8.7 19.3405C9.76 19.7905 10.87 20.0205 11.99 20.0205C15.22 20.0205 18.31 18.0805 20.47 14.6905C21.22 13.5205 21.22 11.4805 20.47 10.3105C20.16 9.82049 19.82 9.35049 19.46 8.91049C19.2 8.59049 19.25 8.12049 19.57 7.85049C19.89 7.59049 20.36 7.63049 20.63 7.96049C21.02 8.44049 21.4 8.96049 21.74 9.50049C22.8 11.1505 22.8 13.8405 21.74 15.5005C19.3 19.3205 15.75 21.5205 12 21.5205Z" fill="#292D32"/>
<path d="M12.69 16.7703C12.34 16.7703 12.02 16.5203 11.95 16.1603C11.87 15.7503 12.14 15.3603 12.55 15.2903C13.65 15.0903 14.57 14.1703 14.77 13.0703C14.85 12.6603 15.24 12.4003 15.65 12.4703C16.06 12.5503 16.33 12.9403 16.25 13.3503C15.93 15.0803 14.55 16.4503 12.83 16.7703C12.78 16.7603 12.74 16.7703 12.69 16.7703Z" fill="#292D32"/>
<path d="M2 23.2497C1.81 23.2497 1.62 23.1797 1.47 23.0297C1.18 22.7397 1.18 22.2597 1.47 21.9697L8.94 14.4997C9.23 14.2097 9.71 14.2097 10 14.4997C10.29 14.7897 10.29 15.2697 10 15.5597L2.53 23.0297C2.38 23.1797 2.19 23.2497 2 23.2497Z" fill="#292D32"/>
<path d="M14.53 10.7204C14.34 10.7204 14.15 10.6504 14 10.5004C13.71 10.2104 13.71 9.73043 14 9.44043L21.47 1.97043C21.76 1.68043 22.24 1.68043 22.53 1.97043C22.82 2.26043 22.82 2.74043 22.53 3.03043L15.06 10.5004C14.91 10.6504 14.72 10.7204 14.53 10.7204Z" fill="#292D32"/>
</svg>
