<svg width="20" height="20" viewBox="0 0 20 20" fill="none" xmlns="http://www.w3.org/2000/svg">
<path d="M10.0001 13.1083C8.28459 13.1083 6.89178 11.7155 6.89178 10C6.89178 8.28448 8.28459 6.89167 10.0001 6.89167C11.7156 6.89167 13.1085 8.28448 13.1085 10C13.1085 11.7155 11.7156 13.1083 10.0001 13.1083ZM10.0001 7.14167C8.42398 7.14167 7.14178 8.42386 7.14178 10C7.14178 11.5761 8.42398 12.8583 10.0001 12.8583C11.5763 12.8583 12.8585 11.5761 12.8585 10C12.8585 8.42386 11.5763 7.14167 10.0001 7.14167Z" fill="#292D32" stroke="#999999"/>
<path d="M2.29652 12.2308L2.29582 12.2297C1.91711 11.6402 1.71265 10.8355 1.71265 10.0031C1.71265 9.17109 1.91696 8.3638 2.29628 7.76953C4.26891 4.69406 7.08411 2.98333 10.0001 2.98333C12.9164 2.98333 15.7314 4.69424 17.6954 7.76915L17.6961 7.77025C18.0749 8.35975 18.2793 9.1645 18.2793 9.99687C18.2793 10.8291 18.0749 11.6366 17.6954 12.2309C15.7313 15.3058 12.9163 17.0167 10.0001 17.0167C7.07537 17.0167 4.26045 15.3055 2.29652 12.2308ZM10.0001 3.23333C7.09522 3.23333 4.37846 4.97703 2.51217 7.90574C2.13452 8.49521 1.96473 9.26508 1.96473 10C1.96473 10.7347 2.13441 11.5043 2.5118 12.0937C4.3781 15.0227 7.09503 16.7667 10.0001 16.7667C12.9051 16.7667 15.6218 15.023 17.4881 12.0943C17.8658 11.5048 18.0356 10.7349 18.0356 10C18.0356 9.26532 17.8659 8.49571 17.4885 7.90632C15.6222 4.97726 12.9053 3.23333 10.0001 3.23333Z" fill="#292D32" stroke="#999999"/>
</svg>
