<svg width="1248" height="210" viewBox="0 0 1248 210" fill="none" xmlns="http://www.w3.org/2000/svg">
<path d="M657.333 44.8333H590.667V103.167L629.385 64.4437C631.012 62.8165 633.65 62.8163 635.277 64.4434L657.333 86.5433V44.8333ZM582.333 40.6392C582.333 38.3532 584.23 36.5 586.466 36.5H661.534C663.817 36.5 665.667 38.354 665.667 40.6392V107.361C665.667 109.647 663.77 111.5 661.534 111.5H586.466C584.183 111.5 582.333 109.646 582.333 107.361V40.6392ZM607.333 69.8333C602.731 69.8333 599 66.1025 599 61.5C599 56.8976 602.731 53.1667 607.333 53.1667C611.936 53.1667 615.667 56.8976 615.667 61.5C615.667 66.1025 611.936 69.8333 607.333 69.8333Z" fill="#E6E6E6"/>
<path d="M488.185 157V145.8H492.569C493.369 145.8 494.089 145.933 494.729 146.2C495.38 146.467 495.935 146.851 496.393 147.352C496.852 147.853 497.204 148.445 497.449 149.128C497.695 149.811 497.817 150.568 497.817 151.4C497.817 152.232 497.695 152.995 497.449 153.688C497.204 154.371 496.852 154.963 496.393 155.464C495.945 155.955 495.396 156.333 494.745 156.6C494.095 156.867 493.369 157 492.569 157H488.185ZM489.913 155.512L489.865 155.336H492.489C493.055 155.336 493.556 155.245 493.993 155.064C494.441 154.883 494.815 154.627 495.113 154.296C495.423 153.955 495.657 153.539 495.817 153.048C495.977 152.557 496.057 152.008 496.057 151.4C496.057 150.792 495.977 150.248 495.817 149.768C495.657 149.277 495.423 148.861 495.113 148.52C494.804 148.179 494.431 147.917 493.993 147.736C493.556 147.555 493.055 147.464 492.489 147.464H489.817L489.913 147.32V155.512ZM499.738 157V148.6H501.402V151.24L501.242 150.6C501.359 150.195 501.557 149.827 501.834 149.496C502.122 149.165 502.447 148.904 502.81 148.712C503.183 148.52 503.567 148.424 503.962 148.424C504.143 148.424 504.314 148.44 504.474 148.472C504.645 148.504 504.778 148.541 504.874 148.584L504.442 150.376C504.314 150.323 504.17 150.28 504.01 150.248C503.861 150.205 503.711 150.184 503.562 150.184C503.274 150.184 502.997 150.243 502.73 150.36C502.474 150.467 502.245 150.621 502.042 150.824C501.85 151.016 501.695 151.245 501.578 151.512C501.461 151.768 501.402 152.051 501.402 152.36V157H499.738ZM509.064 157.16C508.37 157.16 507.736 156.968 507.16 156.584C506.594 156.2 506.141 155.677 505.8 155.016C505.458 154.355 505.288 153.608 505.288 152.776C505.288 151.933 505.458 151.187 505.8 150.536C506.152 149.875 506.621 149.357 507.208 148.984C507.805 148.611 508.472 148.424 509.208 148.424C509.645 148.424 510.045 148.488 510.408 148.616C510.77 148.744 511.085 148.925 511.352 149.16C511.629 149.384 511.853 149.645 512.024 149.944C512.205 150.243 512.317 150.563 512.36 150.904L511.992 150.776V148.6H513.656V157H511.992V155L512.376 154.888C512.312 155.176 512.178 155.459 511.976 155.736C511.784 156.003 511.533 156.243 511.224 156.456C510.925 156.669 510.589 156.84 510.216 156.968C509.853 157.096 509.469 157.16 509.064 157.16ZM509.496 155.64C509.997 155.64 510.44 155.517 510.824 155.272C511.208 155.027 511.506 154.691 511.72 154.264C511.944 153.827 512.056 153.331 512.056 152.776C512.056 152.232 511.944 151.747 511.72 151.32C511.506 150.893 511.208 150.557 510.824 150.312C510.44 150.067 509.997 149.944 509.496 149.944C509.005 149.944 508.568 150.067 508.184 150.312C507.81 150.557 507.512 150.893 507.288 151.32C507.074 151.747 506.968 152.232 506.968 152.776C506.968 153.331 507.074 153.827 507.288 154.264C507.512 154.691 507.81 155.027 508.184 155.272C508.568 155.517 509.005 155.64 509.496 155.64ZM519.717 160.68C519.119 160.68 518.522 160.584 517.925 160.392C517.338 160.211 516.863 159.971 516.501 159.672L517.109 158.392C517.322 158.552 517.573 158.691 517.861 158.808C518.149 158.936 518.453 159.032 518.773 159.096C519.093 159.171 519.407 159.208 519.717 159.208C520.303 159.208 520.794 159.112 521.189 158.92C521.583 158.728 521.882 158.445 522.085 158.072C522.287 157.699 522.389 157.235 522.389 156.68V155.064L522.565 155.176C522.511 155.507 522.335 155.827 522.037 156.136C521.749 156.435 521.386 156.68 520.949 156.872C520.511 157.064 520.063 157.16 519.605 157.16C518.805 157.16 518.09 156.973 517.461 156.6C516.842 156.216 516.351 155.699 515.989 155.048C515.626 154.387 515.445 153.635 515.445 152.792C515.445 151.949 515.621 151.203 515.973 150.552C516.335 149.891 516.826 149.373 517.445 149C518.074 148.616 518.778 148.424 519.557 148.424C519.877 148.424 520.186 148.467 520.485 148.552C520.783 148.627 521.061 148.739 521.317 148.888C521.573 149.027 521.802 149.181 522.005 149.352C522.207 149.523 522.373 149.704 522.501 149.896C522.629 150.088 522.709 150.269 522.741 150.44L522.389 150.568V148.6H524.037V156.488C524.037 157.16 523.935 157.752 523.733 158.264C523.541 158.787 523.258 159.224 522.885 159.576C522.511 159.939 522.058 160.211 521.525 160.392C520.991 160.584 520.389 160.68 519.717 160.68ZM519.781 155.64C520.303 155.64 520.767 155.517 521.173 155.272C521.578 155.027 521.893 154.691 522.117 154.264C522.341 153.837 522.453 153.347 522.453 152.792C522.453 152.237 522.335 151.747 522.101 151.32C521.877 150.883 521.562 150.541 521.157 150.296C520.762 150.051 520.303 149.928 519.781 149.928C519.269 149.928 518.81 150.056 518.405 150.312C518.01 150.557 517.695 150.899 517.461 151.336C517.237 151.763 517.125 152.248 517.125 152.792C517.125 153.336 517.237 153.827 517.461 154.264C517.695 154.691 518.01 155.027 518.405 155.272C518.81 155.517 519.269 155.64 519.781 155.64ZM538.88 157L537.424 155.448L537.168 155.16L534.4 152.072C534.133 151.773 533.877 151.469 533.632 151.16C533.386 150.84 533.168 150.525 532.976 150.216C532.794 149.907 532.645 149.608 532.528 149.32C532.421 149.021 532.368 148.744 532.368 148.488C532.368 147.944 532.506 147.459 532.784 147.032C533.072 146.595 533.461 146.253 533.952 146.008C534.453 145.763 535.029 145.64 535.68 145.64C536.16 145.64 536.608 145.731 537.024 145.912C537.44 146.083 537.797 146.328 538.096 146.648C538.405 146.957 538.629 147.32 538.768 147.736L537.52 148.536C537.317 148.045 537.066 147.688 536.768 147.464C536.48 147.24 536.117 147.128 535.68 147.128C535.349 147.128 535.072 147.181 534.848 147.288C534.624 147.384 534.453 147.528 534.336 147.72C534.218 147.912 534.16 148.152 534.16 148.44C534.16 148.675 534.224 148.936 534.352 149.224C534.49 149.501 534.661 149.784 534.864 150.072C535.066 150.36 535.274 150.627 535.488 150.872C535.701 151.117 535.888 151.331 536.048 151.512L538.272 153.992L538.736 154.504L541.024 157H538.88ZM534.576 157.16C533.818 157.16 533.13 157 532.512 156.68C531.893 156.349 531.397 155.917 531.024 155.384C530.661 154.84 530.48 154.248 530.48 153.608C530.48 152.765 530.709 152.035 531.168 151.416C531.637 150.797 532.32 150.323 533.216 149.992L534.24 151.224C533.557 151.373 533.05 151.624 532.72 151.976C532.389 152.317 532.224 152.781 532.224 153.368C532.224 153.816 532.33 154.211 532.544 154.552C532.757 154.893 533.061 155.16 533.456 155.352C533.861 155.544 534.341 155.64 534.896 155.64C535.376 155.64 535.813 155.549 536.208 155.368C536.613 155.176 536.976 154.909 537.296 154.568C537.616 154.227 537.877 153.816 538.08 153.336C538.293 152.856 538.448 152.323 538.544 151.736H540.016C539.93 152.387 539.776 152.989 539.552 153.544C539.338 154.099 539.066 154.6 538.736 155.048C538.416 155.496 538.042 155.88 537.616 156.2C537.2 156.509 536.736 156.749 536.224 156.92C535.712 157.08 535.162 157.16 534.576 157.16ZM547.56 157V145.8H551.944C552.744 145.8 553.464 145.933 554.104 146.2C554.755 146.467 555.31 146.851 555.768 147.352C556.227 147.853 556.579 148.445 556.824 149.128C557.07 149.811 557.192 150.568 557.192 151.4C557.192 152.232 557.07 152.995 556.824 153.688C556.579 154.371 556.227 154.963 555.768 155.464C555.32 155.955 554.771 156.333 554.12 156.6C553.47 156.867 552.744 157 551.944 157H547.56ZM549.288 155.512L549.24 155.336H551.864C552.43 155.336 552.931 155.245 553.368 155.064C553.816 154.883 554.19 154.627 554.488 154.296C554.798 153.955 555.032 153.539 555.192 153.048C555.352 152.557 555.432 152.008 555.432 151.4C555.432 150.792 555.352 150.248 555.192 149.768C555.032 149.277 554.798 148.861 554.488 148.52C554.179 148.179 553.806 147.917 553.368 147.736C552.931 147.555 552.43 147.464 551.864 147.464H549.192L549.288 147.32V155.512ZM559.113 157V148.6H560.777V151.24L560.617 150.6C560.734 150.195 560.932 149.827 561.209 149.496C561.497 149.165 561.822 148.904 562.185 148.712C562.558 148.52 562.942 148.424 563.337 148.424C563.518 148.424 563.689 148.44 563.849 148.472C564.02 148.504 564.153 148.541 564.249 148.584L563.817 150.376C563.689 150.323 563.545 150.28 563.385 150.248C563.236 150.205 563.086 150.184 562.937 150.184C562.649 150.184 562.372 150.243 562.105 150.36C561.849 150.467 561.62 150.621 561.417 150.824C561.225 151.016 561.07 151.245 560.953 151.512C560.836 151.768 560.777 152.051 560.777 152.36V157H559.113ZM568.983 157.16C568.161 157.16 567.425 156.973 566.775 156.6C566.135 156.216 565.628 155.699 565.255 155.048C564.881 154.387 564.695 153.635 564.695 152.792C564.695 151.949 564.881 151.203 565.255 150.552C565.628 149.891 566.135 149.373 566.775 149C567.425 148.616 568.161 148.424 568.983 148.424C569.793 148.424 570.519 148.616 571.159 149C571.809 149.373 572.321 149.891 572.695 150.552C573.068 151.203 573.255 151.949 573.255 152.792C573.255 153.635 573.068 154.387 572.695 155.048C572.321 155.699 571.809 156.216 571.159 156.6C570.519 156.973 569.793 157.16 568.983 157.16ZM568.983 155.656C569.484 155.656 569.932 155.533 570.327 155.288C570.721 155.032 571.031 154.691 571.255 154.264C571.479 153.827 571.585 153.336 571.575 152.792C571.585 152.237 571.479 151.747 571.255 151.32C571.031 150.883 570.721 150.541 570.327 150.296C569.932 150.051 569.484 149.928 568.983 149.928C568.481 149.928 568.028 150.056 567.623 150.312C567.228 150.557 566.919 150.899 566.695 151.336C566.471 151.763 566.364 152.248 566.375 152.792C566.364 153.336 566.471 153.827 566.695 154.264C566.919 154.691 567.228 155.032 567.623 155.288C568.028 155.533 568.481 155.656 568.983 155.656ZM575.05 160.52V148.6H576.714V150.52L576.458 150.376C576.522 150.056 576.704 149.752 577.002 149.464C577.301 149.165 577.664 148.925 578.09 148.744C578.528 148.552 578.976 148.456 579.434 148.456C580.192 148.456 580.864 148.643 581.45 149.016C582.037 149.389 582.501 149.901 582.842 150.552C583.184 151.203 583.354 151.949 583.354 152.792C583.354 153.624 583.184 154.371 582.842 155.032C582.512 155.683 582.053 156.2 581.466 156.584C580.88 156.957 580.218 157.144 579.482 157.144C578.992 157.144 578.517 157.048 578.058 156.856C577.6 156.653 577.21 156.397 576.89 156.088C576.57 155.779 576.373 155.459 576.298 155.128L576.714 154.904V160.52H575.05ZM579.21 155.624C579.701 155.624 580.138 155.501 580.522 155.256C580.906 155.011 581.21 154.675 581.434 154.248C581.658 153.821 581.77 153.336 581.77 152.792C581.77 152.248 581.658 151.768 581.434 151.352C581.221 150.925 580.922 150.589 580.538 150.344C580.154 150.099 579.712 149.976 579.21 149.976C578.709 149.976 578.266 150.099 577.882 150.344C577.498 150.579 577.194 150.909 576.97 151.336C576.746 151.763 576.634 152.248 576.634 152.792C576.634 153.336 576.746 153.821 576.97 154.248C577.194 154.675 577.498 155.011 577.882 155.256C578.266 155.501 578.709 155.624 579.21 155.624ZM589.901 157V148.6H591.549V157H589.901ZM590.701 146.744C590.349 146.744 590.077 146.653 589.885 146.472C589.693 146.291 589.597 146.035 589.597 145.704C589.597 145.395 589.693 145.144 589.885 144.952C590.087 144.76 590.359 144.664 590.701 144.664C591.053 144.664 591.325 144.755 591.517 144.936C591.709 145.117 591.805 145.373 591.805 145.704C591.805 146.013 591.703 146.264 591.501 146.456C591.309 146.648 591.042 146.744 590.701 146.744ZM594.05 157V148.6H595.714V150.392L595.41 150.584C595.495 150.307 595.628 150.04 595.81 149.784C596.002 149.528 596.231 149.304 596.498 149.112C596.775 148.909 597.068 148.749 597.378 148.632C597.698 148.515 598.023 148.456 598.354 148.456C598.834 148.456 599.255 148.536 599.618 148.696C599.98 148.856 600.279 149.096 600.514 149.416C600.748 149.736 600.919 150.136 601.026 150.616L600.77 150.552L600.882 150.28C600.999 150.035 601.159 149.805 601.362 149.592C601.575 149.368 601.815 149.171 602.082 149C602.348 148.829 602.631 148.696 602.93 148.6C603.228 148.504 603.522 148.456 603.81 148.456C604.439 148.456 604.956 148.584 605.362 148.84C605.778 149.096 606.087 149.485 606.29 150.008C606.503 150.531 606.61 151.181 606.61 151.96V157H604.946V152.056C604.946 151.576 604.882 151.187 604.754 150.888C604.636 150.579 604.455 150.349 604.21 150.2C603.964 150.051 603.65 149.976 603.266 149.976C602.967 149.976 602.684 150.029 602.418 150.136C602.162 150.232 601.938 150.371 601.746 150.552C601.554 150.733 601.404 150.947 601.298 151.192C601.191 151.427 601.138 151.688 601.138 151.976V157H599.474V152.024C599.474 151.587 599.41 151.219 599.282 150.92C599.154 150.611 598.967 150.376 598.722 150.216C598.476 150.056 598.178 149.976 597.826 149.976C597.527 149.976 597.25 150.029 596.994 150.136C596.738 150.232 596.514 150.371 596.322 150.552C596.13 150.723 595.98 150.931 595.874 151.176C595.767 151.411 595.714 151.667 595.714 151.944V157H594.05ZM612.048 157.16C611.355 157.16 610.72 156.968 610.144 156.584C609.579 156.2 609.125 155.677 608.784 155.016C608.443 154.355 608.272 153.608 608.272 152.776C608.272 151.933 608.443 151.187 608.784 150.536C609.136 149.875 609.605 149.357 610.192 148.984C610.789 148.611 611.456 148.424 612.192 148.424C612.629 148.424 613.029 148.488 613.392 148.616C613.755 148.744 614.069 148.925 614.336 149.16C614.613 149.384 614.837 149.645 615.008 149.944C615.189 150.243 615.301 150.563 615.344 150.904L614.976 150.776V148.6H616.64V157H614.976V155L615.36 154.888C615.296 155.176 615.163 155.459 614.96 155.736C614.768 156.003 614.517 156.243 614.208 156.456C613.909 156.669 613.573 156.84 613.2 156.968C612.837 157.096 612.453 157.16 612.048 157.16ZM612.48 155.64C612.981 155.64 613.424 155.517 613.808 155.272C614.192 155.027 614.491 154.691 614.704 154.264C614.928 153.827 615.04 153.331 615.04 152.776C615.04 152.232 614.928 151.747 614.704 151.32C614.491 150.893 614.192 150.557 613.808 150.312C613.424 150.067 612.981 149.944 612.48 149.944C611.989 149.944 611.552 150.067 611.168 150.312C610.795 150.557 610.496 150.893 610.272 151.32C610.059 151.747 609.952 152.232 609.952 152.776C609.952 153.331 610.059 153.827 610.272 154.264C610.496 154.691 610.795 155.027 611.168 155.272C611.552 155.517 611.989 155.64 612.48 155.64ZM622.701 160.68C622.104 160.68 621.506 160.584 620.909 160.392C620.322 160.211 619.848 159.971 619.485 159.672L620.093 158.392C620.306 158.552 620.557 158.691 620.845 158.808C621.133 158.936 621.437 159.032 621.757 159.096C622.077 159.171 622.392 159.208 622.701 159.208C623.288 159.208 623.778 159.112 624.173 158.92C624.568 158.728 624.866 158.445 625.069 158.072C625.272 157.699 625.373 157.235 625.373 156.68V155.064L625.549 155.176C625.496 155.507 625.32 155.827 625.021 156.136C624.733 156.435 624.37 156.68 623.933 156.872C623.496 157.064 623.048 157.16 622.589 157.16C621.789 157.16 621.074 156.973 620.445 156.6C619.826 156.216 619.336 155.699 618.973 155.048C618.61 154.387 618.429 153.635 618.429 152.792C618.429 151.949 618.605 151.203 618.957 150.552C619.32 149.891 619.81 149.373 620.429 149C621.058 148.616 621.762 148.424 622.541 148.424C622.861 148.424 623.17 148.467 623.469 148.552C623.768 148.627 624.045 148.739 624.301 148.888C624.557 149.027 624.786 149.181 624.989 149.352C625.192 149.523 625.357 149.704 625.485 149.896C625.613 150.088 625.693 150.269 625.725 150.44L625.373 150.568V148.6H627.021V156.488C627.021 157.16 626.92 157.752 626.717 158.264C626.525 158.787 626.242 159.224 625.869 159.576C625.496 159.939 625.042 160.211 624.509 160.392C623.976 160.584 623.373 160.68 622.701 160.68ZM622.765 155.64C623.288 155.64 623.752 155.517 624.157 155.272C624.562 155.027 624.877 154.691 625.101 154.264C625.325 153.837 625.437 153.347 625.437 152.792C625.437 152.237 625.32 151.747 625.085 151.32C624.861 150.883 624.546 150.541 624.141 150.296C623.746 150.051 623.288 149.928 622.765 149.928C622.253 149.928 621.794 150.056 621.389 150.312C620.994 150.557 620.68 150.899 620.445 151.336C620.221 151.763 620.109 152.248 620.109 152.792C620.109 153.336 620.221 153.827 620.445 154.264C620.68 154.691 620.994 155.027 621.389 155.272C621.794 155.517 622.253 155.64 622.765 155.64ZM633.252 157.16C632.388 157.16 631.62 156.979 630.948 156.616C630.286 156.243 629.764 155.736 629.38 155.096C629.006 154.456 628.82 153.72 628.82 152.888C628.82 152.227 628.926 151.624 629.14 151.08C629.353 150.536 629.646 150.067 630.02 149.672C630.404 149.267 630.857 148.957 631.38 148.744C631.913 148.52 632.489 148.408 633.108 148.408C633.652 148.408 634.158 148.515 634.628 148.728C635.097 148.931 635.502 149.213 635.844 149.576C636.196 149.939 636.462 150.371 636.644 150.872C636.836 151.363 636.926 151.901 636.916 152.488L636.9 153.192H630.036L629.668 151.88H635.476L635.236 152.152V151.768C635.204 151.416 635.086 151.101 634.884 150.824C634.681 150.547 634.425 150.328 634.116 150.168C633.806 150.008 633.47 149.928 633.108 149.928C632.532 149.928 632.046 150.04 631.652 150.264C631.257 150.477 630.958 150.797 630.756 151.224C630.553 151.64 630.452 152.157 630.452 152.776C630.452 153.363 630.574 153.875 630.82 154.312C631.065 154.739 631.412 155.069 631.86 155.304C632.308 155.539 632.825 155.656 633.412 155.656C633.828 155.656 634.212 155.587 634.564 155.448C634.926 155.309 635.316 155.059 635.732 154.696L636.564 155.864C636.308 156.12 635.993 156.344 635.62 156.536C635.257 156.728 634.868 156.883 634.452 157C634.046 157.107 633.646 157.16 633.252 157.16ZM643.191 157V145.16H644.839V150.328L644.551 150.52C644.658 150.147 644.866 149.805 645.175 149.496C645.484 149.176 645.852 148.92 646.279 148.728C646.706 148.525 647.143 148.424 647.591 148.424C648.231 148.424 648.764 148.552 649.191 148.808C649.618 149.053 649.938 149.432 650.151 149.944C650.364 150.456 650.471 151.101 650.471 151.88V157H648.823V151.992C648.823 151.512 648.759 151.117 648.631 150.808C648.503 150.488 648.306 150.259 648.039 150.12C647.772 149.971 647.442 149.907 647.047 149.928C646.727 149.928 646.434 149.981 646.167 150.088C645.9 150.184 645.666 150.323 645.463 150.504C645.271 150.685 645.116 150.899 644.999 151.144C644.892 151.379 644.839 151.635 644.839 151.912V157H644.023C643.884 157 643.746 157 643.607 157C643.468 157 643.33 157 643.191 157ZM656.627 157.16C655.763 157.16 654.995 156.979 654.323 156.616C653.661 156.243 653.139 155.736 652.755 155.096C652.381 154.456 652.195 153.72 652.195 152.888C652.195 152.227 652.301 151.624 652.515 151.08C652.728 150.536 653.021 150.067 653.395 149.672C653.779 149.267 654.232 148.957 654.755 148.744C655.288 148.52 655.864 148.408 656.483 148.408C657.027 148.408 657.533 148.515 658.003 148.728C658.472 148.931 658.877 149.213 659.219 149.576C659.571 149.939 659.837 150.371 660.019 150.872C660.211 151.363 660.301 151.901 660.291 152.488L660.275 153.192H653.411L653.043 151.88H658.851L658.611 152.152V151.768C658.579 151.416 658.461 151.101 658.259 150.824C658.056 150.547 657.8 150.328 657.491 150.168C657.181 150.008 656.845 149.928 656.483 149.928C655.907 149.928 655.421 150.04 655.027 150.264C654.632 150.477 654.333 150.797 654.131 151.224C653.928 151.64 653.827 152.157 653.827 152.776C653.827 153.363 653.949 153.875 654.195 154.312C654.44 154.739 654.787 155.069 655.235 155.304C655.683 155.539 656.2 155.656 656.787 155.656C657.203 155.656 657.587 155.587 657.939 155.448C658.301 155.309 658.691 155.059 659.107 154.696L659.939 155.864C659.683 156.12 659.368 156.344 658.995 156.536C658.632 156.728 658.243 156.883 657.827 157C657.421 157.107 657.021 157.16 656.627 157.16ZM662.082 157V148.6H663.746V151.24L663.586 150.6C663.703 150.195 663.9 149.827 664.178 149.496C664.466 149.165 664.791 148.904 665.154 148.712C665.527 148.52 665.911 148.424 666.306 148.424C666.487 148.424 666.658 148.44 666.818 148.472C666.988 148.504 667.122 148.541 667.218 148.584L666.786 150.376C666.658 150.323 666.514 150.28 666.354 150.248C666.204 150.205 666.055 150.184 665.906 150.184C665.618 150.184 665.34 150.243 665.074 150.36C664.818 150.467 664.588 150.621 664.386 150.824C664.194 151.016 664.039 151.245 663.922 151.512C663.804 151.768 663.746 152.051 663.746 152.36V157H662.082ZM672.095 157.16C671.231 157.16 670.463 156.979 669.791 156.616C669.13 156.243 668.607 155.736 668.223 155.096C667.85 154.456 667.663 153.72 667.663 152.888C667.663 152.227 667.77 151.624 667.983 151.08C668.197 150.536 668.49 150.067 668.863 149.672C669.247 149.267 669.701 148.957 670.223 148.744C670.757 148.52 671.333 148.408 671.951 148.408C672.495 148.408 673.002 148.515 673.471 148.728C673.941 148.931 674.346 149.213 674.687 149.576C675.039 149.939 675.306 150.371 675.487 150.872C675.679 151.363 675.77 151.901 675.759 152.488L675.743 153.192H668.879L668.511 151.88H674.319L674.079 152.152V151.768C674.047 151.416 673.93 151.101 673.727 150.824C673.525 150.547 673.269 150.328 672.959 150.168C672.65 150.008 672.314 149.928 671.951 149.928C671.375 149.928 670.89 150.04 670.495 150.264C670.101 150.477 669.802 150.797 669.599 151.224C669.397 151.64 669.295 152.157 669.295 152.776C669.295 153.363 669.418 153.875 669.663 154.312C669.909 154.739 670.255 155.069 670.703 155.304C671.151 155.539 671.669 155.656 672.255 155.656C672.671 155.656 673.055 155.587 673.407 155.448C673.77 155.309 674.159 155.059 674.575 154.696L675.407 155.864C675.151 156.12 674.837 156.344 674.463 156.536C674.101 156.728 673.711 156.883 673.295 157C672.89 157.107 672.49 157.16 672.095 157.16ZM677.806 159.864L677.198 159.128C677.572 158.915 677.876 158.669 678.11 158.392C678.345 158.115 678.462 157.875 678.462 157.672C678.462 157.565 678.436 157.459 678.382 157.352C678.329 157.256 678.217 157.117 678.046 156.936C677.833 156.733 677.694 156.563 677.63 156.424C677.566 156.285 677.534 156.136 677.534 155.976C677.534 155.72 677.625 155.517 677.806 155.368C677.988 155.208 678.222 155.128 678.51 155.128C678.777 155.128 679.017 155.208 679.23 155.368C679.454 155.517 679.625 155.731 679.742 156.008C679.87 156.275 679.934 156.584 679.934 156.936C679.934 157.256 679.881 157.565 679.774 157.864C679.668 158.163 679.518 158.44 679.326 158.696C679.134 158.952 678.91 159.181 678.654 159.384C678.398 159.587 678.116 159.747 677.806 159.864ZM690.076 157.16C689.255 157.16 688.519 156.973 687.868 156.6C687.228 156.216 686.722 155.699 686.348 155.048C685.975 154.387 685.788 153.635 685.788 152.792C685.788 151.949 685.975 151.203 686.348 150.552C686.722 149.891 687.228 149.373 687.868 149C688.519 148.616 689.255 148.424 690.076 148.424C690.887 148.424 691.612 148.616 692.252 149C692.903 149.373 693.415 149.891 693.788 150.552C694.162 151.203 694.348 151.949 694.348 152.792C694.348 153.635 694.162 154.387 693.788 155.048C693.415 155.699 692.903 156.216 692.252 156.6C691.612 156.973 690.887 157.16 690.076 157.16ZM690.076 155.656C690.578 155.656 691.026 155.533 691.42 155.288C691.815 155.032 692.124 154.691 692.348 154.264C692.572 153.827 692.679 153.336 692.668 152.792C692.679 152.237 692.572 151.747 692.348 151.32C692.124 150.883 691.815 150.541 691.42 150.296C691.026 150.051 690.578 149.928 690.076 149.928C689.575 149.928 689.122 150.056 688.716 150.312C688.322 150.557 688.012 150.899 687.788 151.336C687.564 151.763 687.458 152.248 687.468 152.792C687.458 153.336 687.564 153.827 687.788 154.264C688.012 154.691 688.322 155.032 688.716 155.288C689.122 155.533 689.575 155.656 690.076 155.656ZM696.144 157V148.6H697.808V151.24L697.648 150.6C697.766 150.195 697.963 149.827 698.24 149.496C698.528 149.165 698.854 148.904 699.216 148.712C699.59 148.52 699.974 148.424 700.368 148.424C700.55 148.424 700.72 148.44 700.88 148.472C701.051 148.504 701.184 148.541 701.28 148.584L700.848 150.376C700.72 150.323 700.576 150.28 700.416 150.248C700.267 150.205 700.118 150.184 699.968 150.184C699.68 150.184 699.403 150.243 699.136 150.36C698.88 150.467 698.651 150.621 698.448 150.824C698.256 151.016 698.102 151.245 697.984 151.512C697.867 151.768 697.808 152.051 697.808 152.36V157H696.144ZM711.498 157.16C711.135 157.16 710.772 157.101 710.41 156.984C710.058 156.867 709.732 156.712 709.434 156.52C709.146 156.317 708.9 156.099 708.698 155.864C708.506 155.619 708.378 155.373 708.314 155.128L708.73 154.904V156.952H707.082V145.16H708.73V150.52L708.474 150.376C708.527 150.131 708.644 149.896 708.826 149.672C709.007 149.437 709.236 149.229 709.514 149.048C709.802 148.856 710.111 148.707 710.442 148.6C710.772 148.483 711.108 148.424 711.45 148.424C712.207 148.424 712.879 148.611 713.466 148.984C714.052 149.357 714.516 149.875 714.858 150.536C715.199 151.187 715.37 151.933 715.37 152.776C715.37 153.619 715.199 154.371 714.858 155.032C714.527 155.693 714.068 156.216 713.482 156.6C712.895 156.973 712.234 157.16 711.498 157.16ZM711.226 155.656C711.716 155.656 712.154 155.533 712.538 155.288C712.922 155.032 713.226 154.691 713.45 154.264C713.674 153.827 713.786 153.331 713.786 152.776C713.786 152.232 713.674 151.747 713.45 151.32C713.236 150.883 712.938 150.541 712.554 150.296C712.17 150.051 711.727 149.928 711.226 149.928C710.724 149.928 710.282 150.051 709.898 150.296C709.514 150.541 709.21 150.883 708.986 151.32C708.762 151.747 708.65 152.232 708.65 152.776C708.65 153.331 708.762 153.827 708.986 154.264C709.21 154.691 709.514 155.032 709.898 155.288C710.282 155.533 710.724 155.656 711.226 155.656ZM717.16 157V148.6H718.824V151.24L718.664 150.6C718.781 150.195 718.978 149.827 719.256 149.496C719.544 149.165 719.869 148.904 720.232 148.712C720.605 148.52 720.989 148.424 721.384 148.424C721.565 148.424 721.736 148.44 721.896 148.472C722.066 148.504 722.2 148.541 722.296 148.584L721.864 150.376C721.736 150.323 721.592 150.28 721.432 150.248C721.282 150.205 721.133 150.184 720.984 150.184C720.696 150.184 720.418 150.243 720.152 150.36C719.896 150.467 719.666 150.621 719.464 150.824C719.272 151.016 719.117 151.245 719 151.512C718.882 151.768 718.824 152.051 718.824 152.36V157H717.16ZM727.03 157.16C726.208 157.16 725.472 156.973 724.822 156.6C724.182 156.216 723.675 155.699 723.302 155.048C722.928 154.387 722.742 153.635 722.742 152.792C722.742 151.949 722.928 151.203 723.302 150.552C723.675 149.891 724.182 149.373 724.822 149C725.472 148.616 726.208 148.424 727.03 148.424C727.84 148.424 728.566 148.616 729.206 149C729.856 149.373 730.368 149.891 730.742 150.552C731.115 151.203 731.302 151.949 731.302 152.792C731.302 153.635 731.115 154.387 730.742 155.048C730.368 155.699 729.856 156.216 729.206 156.6C728.566 156.973 727.84 157.16 727.03 157.16ZM727.03 155.656C727.531 155.656 727.979 155.533 728.374 155.288C728.768 155.032 729.078 154.691 729.302 154.264C729.526 153.827 729.632 153.336 729.622 152.792C729.632 152.237 729.526 151.747 729.302 151.32C729.078 150.883 728.768 150.541 728.374 150.296C727.979 150.051 727.531 149.928 727.03 149.928C726.528 149.928 726.075 150.056 725.67 150.312C725.275 150.557 724.966 150.899 724.742 151.336C724.518 151.763 724.411 152.248 724.422 152.792C724.411 153.336 724.518 153.827 724.742 154.264C724.966 154.691 725.275 155.032 725.67 155.288C726.075 155.533 726.528 155.656 727.03 155.656ZM734.849 157L731.985 148.6L733.649 148.584L735.697 154.872L735.329 154.84L737.553 149.928H738.545L740.785 154.856L740.353 154.888L742.417 148.6H744.081L741.249 157H740.113L737.777 151.656L738.145 151.704L735.969 157H734.849ZM748.304 157.16C747.6 157.16 746.965 157.037 746.4 156.792C745.834 156.547 745.365 156.184 744.992 155.704L746.112 154.744C746.432 155.117 746.778 155.389 747.152 155.56C747.536 155.72 747.968 155.8 748.448 155.8C748.64 155.8 748.816 155.779 748.976 155.736C749.146 155.683 749.29 155.608 749.408 155.512C749.536 155.416 749.632 155.304 749.696 155.176C749.76 155.037 749.792 154.888 749.792 154.728C749.792 154.451 749.69 154.227 749.488 154.056C749.381 153.981 749.21 153.901 748.976 153.816C748.752 153.72 748.458 153.624 748.096 153.528C747.477 153.368 746.97 153.187 746.576 152.984C746.181 152.781 745.877 152.552 745.664 152.296C745.504 152.093 745.386 151.875 745.312 151.64C745.237 151.395 745.2 151.128 745.2 150.84C745.2 150.488 745.274 150.168 745.424 149.88C745.584 149.581 745.797 149.325 746.064 149.112C746.341 148.888 746.661 148.717 747.024 148.6C747.397 148.483 747.792 148.424 748.208 148.424C748.602 148.424 748.992 148.477 749.376 148.584C749.77 148.691 750.133 148.845 750.464 149.048C750.794 149.251 751.072 149.491 751.296 149.768L750.352 150.808C750.149 150.605 749.925 150.429 749.68 150.28C749.445 150.12 749.205 149.997 748.96 149.912C748.714 149.827 748.49 149.784 748.288 149.784C748.064 149.784 747.861 149.805 747.68 149.848C747.498 149.891 747.344 149.955 747.216 150.04C747.098 150.125 747.008 150.232 746.944 150.36C746.88 150.488 746.848 150.632 746.848 150.792C746.858 150.931 746.89 151.064 746.944 151.192C747.008 151.309 747.093 151.411 747.2 151.496C747.317 151.581 747.493 151.672 747.728 151.768C747.962 151.864 748.261 151.955 748.624 152.04C749.157 152.179 749.594 152.333 749.936 152.504C750.288 152.664 750.565 152.851 750.768 153.064C750.981 153.267 751.13 153.501 751.216 153.768C751.301 154.035 751.344 154.333 751.344 154.664C751.344 155.144 751.205 155.576 750.928 155.96C750.661 156.333 750.298 156.627 749.84 156.84C749.381 157.053 748.869 157.16 748.304 157.16ZM757.08 157.16C756.216 157.16 755.448 156.979 754.776 156.616C754.114 156.243 753.592 155.736 753.208 155.096C752.834 154.456 752.648 153.72 752.648 152.888C752.648 152.227 752.754 151.624 752.968 151.08C753.181 150.536 753.474 150.067 753.848 149.672C754.232 149.267 754.685 148.957 755.208 148.744C755.741 148.52 756.317 148.408 756.936 148.408C757.48 148.408 757.986 148.515 758.456 148.728C758.925 148.931 759.33 149.213 759.672 149.576C760.024 149.939 760.29 150.371 760.472 150.872C760.664 151.363 760.754 151.901 760.744 152.488L760.728 153.192H753.864L753.496 151.88H759.304L759.064 152.152V151.768C759.032 151.416 758.914 151.101 758.712 150.824C758.509 150.547 758.253 150.328 757.944 150.168C757.634 150.008 757.298 149.928 756.936 149.928C756.36 149.928 755.874 150.04 755.48 150.264C755.085 150.477 754.786 150.797 754.584 151.224C754.381 151.64 754.28 152.157 754.28 152.776C754.28 153.363 754.402 153.875 754.648 154.312C754.893 154.739 755.24 155.069 755.688 155.304C756.136 155.539 756.653 155.656 757.24 155.656C757.656 155.656 758.04 155.587 758.392 155.448C758.754 155.309 759.144 155.059 759.56 154.696L760.392 155.864C760.136 156.12 759.821 156.344 759.448 156.536C759.085 156.728 758.696 156.883 758.28 157C757.874 157.107 757.474 157.16 757.08 157.16Z" fill="#186F3D"/>
<path d="M552.989 179.13C552.495 179.13 552.036 179.065 551.611 178.935C551.195 178.805 550.814 178.61 550.467 178.35C550.129 178.081 549.826 177.752 549.557 177.362L550.519 176.257C550.944 176.864 551.351 177.284 551.741 177.518C552.131 177.752 552.595 177.869 553.132 177.869C553.462 177.869 553.761 177.817 554.029 177.713C554.298 177.609 554.51 177.466 554.666 177.284C554.822 177.102 554.9 176.894 554.9 176.66C554.9 176.504 554.874 176.357 554.822 176.218C554.77 176.079 554.688 175.954 554.575 175.841C554.471 175.728 554.333 175.624 554.159 175.529C553.995 175.434 553.8 175.351 553.574 175.282C553.349 175.204 553.089 175.139 552.794 175.087C552.326 174.992 551.919 174.866 551.572 174.71C551.226 174.554 550.935 174.359 550.701 174.125C550.467 173.891 550.294 173.627 550.181 173.332C550.069 173.029 550.012 172.691 550.012 172.318C550.012 171.954 550.09 171.616 550.246 171.304C550.411 170.992 550.632 170.723 550.909 170.498C551.195 170.264 551.529 170.086 551.91 169.965C552.292 169.835 552.703 169.77 553.145 169.77C553.613 169.77 554.042 169.831 554.432 169.952C554.822 170.073 555.169 170.255 555.472 170.498C555.776 170.732 556.027 171.022 556.226 171.369L555.238 172.344C555.065 172.058 554.87 171.82 554.653 171.629C554.437 171.43 554.198 171.282 553.938 171.187C553.678 171.083 553.401 171.031 553.106 171.031C552.768 171.031 552.474 171.083 552.222 171.187C551.971 171.291 551.772 171.438 551.624 171.629C551.486 171.811 551.416 172.028 551.416 172.279C551.416 172.461 551.451 172.63 551.52 172.786C551.59 172.933 551.694 173.068 551.832 173.189C551.98 173.302 552.175 173.406 552.417 173.501C552.66 173.588 552.95 173.666 553.288 173.735C553.765 173.839 554.19 173.973 554.562 174.138C554.935 174.294 555.251 174.48 555.511 174.697C555.771 174.914 555.966 175.156 556.096 175.425C556.235 175.694 556.304 175.984 556.304 176.296C556.304 176.877 556.17 177.379 555.901 177.804C555.633 178.229 555.251 178.558 554.757 178.792C554.263 179.017 553.674 179.13 552.989 179.13ZM560.348 179.13C559.862 179.13 559.438 179.017 559.074 178.792C558.718 178.567 558.441 178.25 558.242 177.843C558.051 177.436 557.956 176.95 557.956 176.387V172.175H559.295V176.023C559.295 176.422 559.355 176.768 559.477 177.063C559.607 177.349 559.789 177.57 560.023 177.726C560.265 177.882 560.556 177.96 560.894 177.96C561.145 177.96 561.375 177.921 561.583 177.843C561.791 177.756 561.968 177.639 562.116 177.492C562.272 177.345 562.393 177.167 562.48 176.959C562.566 176.751 562.61 176.526 562.61 176.283V172.175H563.949V179H562.61V177.57L562.844 177.414C562.74 177.735 562.562 178.025 562.311 178.285C562.068 178.545 561.778 178.753 561.44 178.909C561.102 179.056 560.738 179.13 560.348 179.13ZM565.827 181.86V172.175H567.179V173.735L566.971 173.618C567.023 173.358 567.17 173.111 567.413 172.877C567.655 172.634 567.95 172.439 568.297 172.292C568.652 172.136 569.016 172.058 569.389 172.058C570.004 172.058 570.55 172.21 571.027 172.513C571.503 172.816 571.88 173.232 572.158 173.761C572.435 174.29 572.574 174.896 572.574 175.581C572.574 176.257 572.435 176.864 572.158 177.401C571.889 177.93 571.516 178.35 571.04 178.662C570.563 178.965 570.026 179.117 569.428 179.117C569.029 179.117 568.643 179.039 568.271 178.883C567.898 178.718 567.582 178.51 567.322 178.259C567.062 178.008 566.901 177.748 566.841 177.479L567.179 177.297V181.86H565.827ZM569.207 177.882C569.605 177.882 569.961 177.782 570.273 177.583C570.585 177.384 570.832 177.111 571.014 176.764C571.196 176.417 571.287 176.023 571.287 175.581C571.287 175.139 571.196 174.749 571.014 174.411C570.84 174.064 570.598 173.791 570.286 173.592C569.974 173.393 569.614 173.293 569.207 173.293C568.799 173.293 568.44 173.393 568.128 173.592C567.816 173.783 567.569 174.051 567.387 174.398C567.205 174.745 567.114 175.139 567.114 175.581C567.114 176.023 567.205 176.417 567.387 176.764C567.569 177.111 567.816 177.384 568.128 177.583C568.44 177.782 568.799 177.882 569.207 177.882ZM574.028 181.86V172.175H575.38V173.735L575.172 173.618C575.224 173.358 575.371 173.111 575.614 172.877C575.856 172.634 576.151 172.439 576.498 172.292C576.853 172.136 577.217 172.058 577.59 172.058C578.205 172.058 578.751 172.21 579.228 172.513C579.704 172.816 580.081 173.232 580.359 173.761C580.636 174.29 580.775 174.896 580.775 175.581C580.775 176.257 580.636 176.864 580.359 177.401C580.09 177.93 579.717 178.35 579.241 178.662C578.764 178.965 578.227 179.117 577.629 179.117C577.23 179.117 576.844 179.039 576.472 178.883C576.099 178.718 575.783 178.51 575.523 178.259C575.263 178.008 575.102 177.748 575.042 177.479L575.38 177.297V181.86H574.028ZM577.408 177.882C577.806 177.882 578.162 177.782 578.474 177.583C578.786 177.384 579.033 177.111 579.215 176.764C579.397 176.417 579.488 176.023 579.488 175.581C579.488 175.139 579.397 174.749 579.215 174.411C579.041 174.064 578.799 173.791 578.487 173.592C578.175 173.393 577.815 173.293 577.408 173.293C577 173.293 576.641 173.393 576.329 173.592C576.017 173.783 575.77 174.051 575.588 174.398C575.406 174.745 575.315 175.139 575.315 175.581C575.315 176.023 575.406 176.417 575.588 176.764C575.77 177.111 576.017 177.384 576.329 177.583C576.641 177.782 577 177.882 577.408 177.882ZM585.297 179.13C584.63 179.13 584.032 178.978 583.503 178.675C582.983 178.363 582.571 177.943 582.268 177.414C581.965 176.877 581.813 176.266 581.813 175.581C581.813 174.896 581.965 174.29 582.268 173.761C582.571 173.224 582.983 172.803 583.503 172.5C584.032 172.188 584.63 172.032 585.297 172.032C585.956 172.032 586.545 172.188 587.065 172.5C587.594 172.803 588.01 173.224 588.313 173.761C588.616 174.29 588.768 174.896 588.768 175.581C588.768 176.266 588.616 176.877 588.313 177.414C588.01 177.943 587.594 178.363 587.065 178.675C586.545 178.978 585.956 179.13 585.297 179.13ZM585.297 177.908C585.704 177.908 586.068 177.808 586.389 177.609C586.71 177.401 586.961 177.124 587.143 176.777C587.325 176.422 587.412 176.023 587.403 175.581C587.412 175.13 587.325 174.732 587.143 174.385C586.961 174.03 586.71 173.752 586.389 173.553C586.068 173.354 585.704 173.254 585.297 173.254C584.89 173.254 584.521 173.358 584.192 173.566C583.871 173.765 583.62 174.043 583.438 174.398C583.256 174.745 583.169 175.139 583.178 175.581C583.169 176.023 583.256 176.422 583.438 176.777C583.62 177.124 583.871 177.401 584.192 177.609C584.521 177.808 584.89 177.908 585.297 177.908ZM590.227 179V172.175H591.579V174.32L591.449 173.8C591.544 173.471 591.705 173.172 591.93 172.903C592.164 172.634 592.428 172.422 592.723 172.266C593.026 172.11 593.338 172.032 593.659 172.032C593.806 172.032 593.945 172.045 594.075 172.071C594.214 172.097 594.322 172.127 594.4 172.162L594.049 173.618C593.945 173.575 593.828 173.54 593.698 173.514C593.577 173.479 593.455 173.462 593.334 173.462C593.1 173.462 592.875 173.51 592.658 173.605C592.45 173.692 592.264 173.817 592.099 173.982C591.943 174.138 591.817 174.324 591.722 174.541C591.627 174.749 591.579 174.979 591.579 175.23V179H590.227ZM596.569 179V170.433H597.908V179H596.569ZM595.152 173.475V172.175H599.494V173.475H595.152ZM603.242 179.13C602.67 179.13 602.155 179.03 601.695 178.831C601.236 178.632 600.855 178.337 600.551 177.947L601.461 177.167C601.721 177.47 602.003 177.691 602.306 177.83C602.618 177.96 602.969 178.025 603.359 178.025C603.515 178.025 603.658 178.008 603.788 177.973C603.927 177.93 604.044 177.869 604.139 177.791C604.243 177.713 604.321 177.622 604.373 177.518C604.425 177.405 604.451 177.284 604.451 177.154C604.451 176.929 604.369 176.747 604.204 176.608C604.118 176.547 603.979 176.482 603.788 176.413C603.606 176.335 603.368 176.257 603.073 176.179C602.571 176.049 602.159 175.902 601.838 175.737C601.518 175.572 601.271 175.386 601.097 175.178C600.967 175.013 600.872 174.836 600.811 174.645C600.751 174.446 600.72 174.229 600.72 173.995C600.72 173.709 600.781 173.449 600.902 173.215C601.032 172.972 601.206 172.764 601.422 172.591C601.648 172.409 601.908 172.27 602.202 172.175C602.506 172.08 602.826 172.032 603.164 172.032C603.485 172.032 603.801 172.075 604.113 172.162C604.434 172.249 604.729 172.374 604.997 172.539C605.266 172.704 605.491 172.899 605.673 173.124L604.906 173.969C604.742 173.804 604.56 173.661 604.36 173.54C604.17 173.41 603.975 173.31 603.775 173.241C603.576 173.172 603.394 173.137 603.229 173.137C603.047 173.137 602.883 173.154 602.735 173.189C602.588 173.224 602.462 173.276 602.358 173.345C602.263 173.414 602.189 173.501 602.137 173.605C602.085 173.709 602.059 173.826 602.059 173.956C602.068 174.069 602.094 174.177 602.137 174.281C602.189 174.376 602.259 174.459 602.345 174.528C602.441 174.597 602.584 174.671 602.774 174.749C602.965 174.827 603.208 174.901 603.502 174.97C603.936 175.083 604.291 175.208 604.568 175.347C604.854 175.477 605.08 175.629 605.244 175.802C605.418 175.967 605.539 176.157 605.608 176.374C605.678 176.591 605.712 176.833 605.712 177.102C605.712 177.492 605.6 177.843 605.374 178.155C605.158 178.458 604.863 178.697 604.49 178.87C604.118 179.043 603.702 179.13 603.242 179.13ZM607.734 179.13C607.448 179.13 607.227 179.048 607.071 178.883C606.915 178.71 606.837 178.467 606.837 178.155C606.837 177.869 606.919 177.635 607.084 177.453C607.249 177.271 607.465 177.18 607.734 177.18C608.02 177.18 608.241 177.267 608.397 177.44C608.553 177.605 608.631 177.843 608.631 178.155C608.631 178.441 608.549 178.675 608.384 178.857C608.219 179.039 608.003 179.13 607.734 179.13ZM607.734 173.995C607.448 173.995 607.227 173.913 607.071 173.748C606.915 173.575 606.837 173.332 606.837 173.02C606.837 172.734 606.919 172.5 607.084 172.318C607.249 172.136 607.465 172.045 607.734 172.045C608.02 172.045 608.241 172.132 608.397 172.305C608.553 172.47 608.631 172.708 608.631 173.02C608.631 173.306 608.549 173.54 608.384 173.722C608.219 173.904 608.003 173.995 607.734 173.995ZM612.971 181.561L612.464 180.534C612.802 180.534 613.079 180.473 613.296 180.352C613.521 180.239 613.69 180.066 613.803 179.832C613.915 179.607 613.972 179.325 613.972 178.987V172.175H615.311V179.312C615.311 179.754 615.211 180.144 615.012 180.482C614.821 180.82 614.548 181.084 614.193 181.275C613.846 181.466 613.439 181.561 612.971 181.561ZM614.674 170.667C614.388 170.667 614.167 170.593 614.011 170.446C613.855 170.299 613.777 170.091 613.777 169.822C613.777 169.571 613.855 169.367 614.011 169.211C614.175 169.055 614.396 168.977 614.674 168.977C614.96 168.977 615.181 169.051 615.337 169.198C615.493 169.345 615.571 169.553 615.571 169.822C615.571 170.073 615.488 170.277 615.324 170.433C615.168 170.589 614.951 170.667 614.674 170.667ZM617.23 181.86V172.175H618.582V173.735L618.374 173.618C618.426 173.358 618.573 173.111 618.816 172.877C619.059 172.634 619.353 172.439 619.7 172.292C620.055 172.136 620.419 172.058 620.792 172.058C621.407 172.058 621.953 172.21 622.43 172.513C622.907 172.816 623.284 173.232 623.561 173.761C623.838 174.29 623.977 174.896 623.977 175.581C623.977 176.257 623.838 176.864 623.561 177.401C623.292 177.93 622.92 178.35 622.443 178.662C621.966 178.965 621.429 179.117 620.831 179.117C620.432 179.117 620.047 179.039 619.674 178.883C619.301 178.718 618.985 178.51 618.725 178.259C618.465 178.008 618.305 177.748 618.244 177.479L618.582 177.297V181.86H617.23ZM620.61 177.882C621.009 177.882 621.364 177.782 621.676 177.583C621.988 177.384 622.235 177.111 622.417 176.764C622.599 176.417 622.69 176.023 622.69 175.581C622.69 175.139 622.599 174.749 622.417 174.411C622.244 174.064 622.001 173.791 621.689 173.592C621.377 173.393 621.017 173.293 620.61 173.293C620.203 173.293 619.843 173.393 619.531 173.592C619.219 173.783 618.972 174.051 618.79 174.398C618.608 174.745 618.517 175.139 618.517 175.581C618.517 176.023 618.608 176.417 618.79 176.764C618.972 177.111 619.219 177.384 619.531 177.583C619.843 177.782 620.203 177.882 620.61 177.882ZM628.616 179.13C627.914 179.13 627.29 178.983 626.744 178.688C626.207 178.385 625.782 177.973 625.47 177.453C625.167 176.933 625.015 176.335 625.015 175.659C625.015 175.122 625.102 174.632 625.275 174.19C625.448 173.748 625.687 173.367 625.99 173.046C626.302 172.717 626.67 172.465 627.095 172.292C627.528 172.11 627.996 172.019 628.499 172.019C628.941 172.019 629.353 172.106 629.734 172.279C630.115 172.444 630.445 172.673 630.722 172.968C631.008 173.263 631.225 173.614 631.372 174.021C631.528 174.42 631.602 174.857 631.593 175.334L631.58 175.906H626.003L625.704 174.84H630.423L630.228 175.061V174.749C630.202 174.463 630.107 174.207 629.942 173.982C629.777 173.757 629.569 173.579 629.318 173.449C629.067 173.319 628.794 173.254 628.499 173.254C628.031 173.254 627.637 173.345 627.316 173.527C626.995 173.7 626.753 173.96 626.588 174.307C626.423 174.645 626.341 175.065 626.341 175.568C626.341 176.045 626.441 176.461 626.64 176.816C626.839 177.163 627.121 177.431 627.485 177.622C627.849 177.813 628.269 177.908 628.746 177.908C629.084 177.908 629.396 177.852 629.682 177.739C629.977 177.626 630.293 177.423 630.631 177.128L631.307 178.077C631.099 178.285 630.843 178.467 630.54 178.623C630.245 178.779 629.929 178.905 629.591 179C629.262 179.087 628.937 179.13 628.616 179.13ZM636.04 181.99C635.554 181.99 635.069 181.912 634.584 181.756C634.107 181.609 633.721 181.414 633.427 181.171L633.921 180.131C634.094 180.261 634.298 180.374 634.532 180.469C634.766 180.573 635.013 180.651 635.273 180.703C635.533 180.764 635.788 180.794 636.04 180.794C636.516 180.794 636.915 180.716 637.236 180.56C637.556 180.404 637.799 180.174 637.964 179.871C638.128 179.568 638.211 179.191 638.211 178.74V177.427L638.354 177.518C638.31 177.787 638.167 178.047 637.925 178.298C637.691 178.541 637.396 178.74 637.041 178.896C636.685 179.052 636.321 179.13 635.949 179.13C635.299 179.13 634.718 178.978 634.207 178.675C633.704 178.363 633.305 177.943 633.011 177.414C632.716 176.877 632.569 176.266 632.569 175.581C632.569 174.896 632.712 174.29 632.998 173.761C633.292 173.224 633.691 172.803 634.194 172.5C634.705 172.188 635.277 172.032 635.91 172.032C636.17 172.032 636.421 172.067 636.664 172.136C636.906 172.197 637.132 172.288 637.34 172.409C637.548 172.522 637.734 172.647 637.899 172.786C638.063 172.925 638.198 173.072 638.302 173.228C638.406 173.384 638.471 173.531 638.497 173.67L638.211 173.774V172.175H639.55V178.584C639.55 179.13 639.467 179.611 639.303 180.027C639.147 180.452 638.917 180.807 638.614 181.093C638.31 181.388 637.942 181.609 637.509 181.756C637.075 181.912 636.586 181.99 636.04 181.99ZM636.092 177.895C636.516 177.895 636.893 177.795 637.223 177.596C637.552 177.397 637.808 177.124 637.99 176.777C638.172 176.43 638.263 176.032 638.263 175.581C638.263 175.13 638.167 174.732 637.977 174.385C637.795 174.03 637.539 173.752 637.21 173.553C636.889 173.354 636.516 173.254 636.092 173.254C635.676 173.254 635.303 173.358 634.974 173.566C634.653 173.765 634.397 174.043 634.207 174.398C634.025 174.745 633.934 175.139 633.934 175.581C633.934 176.023 634.025 176.422 634.207 176.777C634.397 177.124 634.653 177.397 634.974 177.596C635.303 177.795 635.676 177.895 636.092 177.895ZM641.597 181.327L641.103 180.729C641.406 180.556 641.653 180.356 641.844 180.131C642.035 179.906 642.13 179.711 642.13 179.546C642.13 179.459 642.108 179.373 642.065 179.286C642.022 179.208 641.931 179.095 641.792 178.948C641.619 178.783 641.506 178.645 641.454 178.532C641.402 178.419 641.376 178.298 641.376 178.168C641.376 177.96 641.45 177.795 641.597 177.674C641.744 177.544 641.935 177.479 642.169 177.479C642.386 177.479 642.581 177.544 642.754 177.674C642.936 177.795 643.075 177.969 643.17 178.194C643.274 178.411 643.326 178.662 643.326 178.948C643.326 179.208 643.283 179.459 643.196 179.702C643.109 179.945 642.988 180.17 642.832 180.378C642.676 180.586 642.494 180.772 642.286 180.937C642.078 181.102 641.848 181.232 641.597 181.327ZM648.499 181.86V172.175H649.851V173.735L649.643 173.618C649.695 173.358 649.842 173.111 650.085 172.877C650.327 172.634 650.622 172.439 650.969 172.292C651.324 172.136 651.688 172.058 652.061 172.058C652.676 172.058 653.222 172.21 653.699 172.513C654.175 172.816 654.552 173.232 654.83 173.761C655.107 174.29 655.246 174.896 655.246 175.581C655.246 176.257 655.107 176.864 654.83 177.401C654.561 177.93 654.188 178.35 653.712 178.662C653.235 178.965 652.698 179.117 652.1 179.117C651.701 179.117 651.315 179.039 650.943 178.883C650.57 178.718 650.254 178.51 649.994 178.259C649.734 178.008 649.573 177.748 649.513 177.479L649.851 177.297V181.86H648.499ZM651.879 177.882C652.277 177.882 652.633 177.782 652.945 177.583C653.257 177.384 653.504 177.111 653.686 176.764C653.868 176.417 653.959 176.023 653.959 175.581C653.959 175.139 653.868 174.749 653.686 174.411C653.512 174.064 653.27 173.791 652.958 173.592C652.646 173.393 652.286 173.293 651.879 173.293C651.471 173.293 651.112 173.393 650.8 173.592C650.488 173.783 650.241 174.051 650.059 174.398C649.877 174.745 649.786 175.139 649.786 175.581C649.786 176.023 649.877 176.417 650.059 176.764C650.241 177.111 650.488 177.384 650.8 177.583C651.112 177.782 651.471 177.882 651.879 177.882ZM656.7 179V172.175H658.039V173.579L657.805 173.735C657.891 173.432 658.06 173.154 658.312 172.903C658.563 172.643 658.862 172.435 659.209 172.279C659.555 172.114 659.911 172.032 660.275 172.032C660.795 172.032 661.228 172.136 661.575 172.344C661.921 172.543 662.181 172.851 662.355 173.267C662.528 173.683 662.615 174.207 662.615 174.84V179H661.276V174.931C661.276 174.541 661.224 174.22 661.12 173.969C661.016 173.709 660.855 173.523 660.639 173.41C660.422 173.289 660.153 173.237 659.833 173.254C659.573 173.254 659.334 173.297 659.118 173.384C658.901 173.462 658.71 173.575 658.546 173.722C658.39 173.869 658.264 174.043 658.169 174.242C658.082 174.433 658.039 174.641 658.039 174.866V179H657.376C657.263 179 657.15 179 657.038 179C656.925 179 656.812 179 656.7 179ZM667.486 181.99C667.001 181.99 666.515 181.912 666.03 181.756C665.553 181.609 665.168 181.414 664.873 181.171L665.367 180.131C665.54 180.261 665.744 180.374 665.978 180.469C666.212 180.573 666.459 180.651 666.719 180.703C666.979 180.764 667.235 180.794 667.486 180.794C667.963 180.794 668.361 180.716 668.682 180.56C669.003 180.404 669.245 180.174 669.41 179.871C669.575 179.568 669.657 179.191 669.657 178.74V177.427L669.8 177.518C669.757 177.787 669.614 178.047 669.371 178.298C669.137 178.541 668.842 178.74 668.487 178.896C668.132 179.052 667.768 179.13 667.395 179.13C666.745 179.13 666.164 178.978 665.653 178.675C665.15 178.363 664.752 177.943 664.457 177.414C664.162 176.877 664.015 176.266 664.015 175.581C664.015 174.896 664.158 174.29 664.444 173.761C664.739 173.224 665.137 172.803 665.64 172.5C666.151 172.188 666.723 172.032 667.356 172.032C667.616 172.032 667.867 172.067 668.11 172.136C668.353 172.197 668.578 172.288 668.786 172.409C668.994 172.522 669.18 172.647 669.345 172.786C669.51 172.925 669.644 173.072 669.748 173.228C669.852 173.384 669.917 173.531 669.943 173.67L669.657 173.774V172.175H670.996V178.584C670.996 179.13 670.914 179.611 670.749 180.027C670.593 180.452 670.363 180.807 670.06 181.093C669.757 181.388 669.388 181.609 668.955 181.756C668.522 181.912 668.032 181.99 667.486 181.99ZM667.538 177.895C667.963 177.895 668.34 177.795 668.669 177.596C668.998 177.397 669.254 177.124 669.436 176.777C669.618 176.43 669.709 176.032 669.709 175.581C669.709 175.13 669.614 174.732 669.423 174.385C669.241 174.03 668.985 173.752 668.656 173.553C668.335 173.354 667.963 173.254 667.538 173.254C667.122 173.254 666.749 173.358 666.42 173.566C666.099 173.765 665.844 174.043 665.653 174.398C665.471 174.745 665.38 175.139 665.38 175.581C665.38 176.023 665.471 176.422 665.653 176.777C665.844 177.124 666.099 177.397 666.42 177.596C666.749 177.795 667.122 177.895 667.538 177.895ZM673.043 181.327L672.549 180.729C672.853 180.556 673.1 180.356 673.29 180.131C673.481 179.906 673.576 179.711 673.576 179.546C673.576 179.459 673.555 179.373 673.511 179.286C673.468 179.208 673.377 179.095 673.238 178.948C673.065 178.783 672.952 178.645 672.9 178.532C672.848 178.419 672.822 178.298 672.822 178.168C672.822 177.96 672.896 177.795 673.043 177.674C673.191 177.544 673.381 177.479 673.615 177.479C673.832 177.479 674.027 177.544 674.2 177.674C674.382 177.795 674.521 177.969 674.616 178.194C674.72 178.411 674.772 178.662 674.772 178.948C674.772 179.208 674.729 179.459 674.642 179.702C674.556 179.945 674.434 180.17 674.278 180.378C674.122 180.586 673.94 180.772 673.732 180.937C673.524 181.102 673.295 181.232 673.043 181.327ZM679.126 181.561L678.619 180.534C678.957 180.534 679.234 180.473 679.451 180.352C679.676 180.239 679.845 180.066 679.958 179.832C680.07 179.607 680.127 179.325 680.127 178.987V172.175H681.466V179.312C681.466 179.754 681.366 180.144 681.167 180.482C680.976 180.82 680.703 181.084 680.348 181.275C680.001 181.466 679.594 181.561 679.126 181.561ZM680.829 170.667C680.543 170.667 680.322 170.593 680.166 170.446C680.01 170.299 679.932 170.091 679.932 169.822C679.932 169.571 680.01 169.367 680.166 169.211C680.33 169.055 680.551 168.977 680.829 168.977C681.115 168.977 681.336 169.051 681.492 169.198C681.648 169.345 681.726 169.553 681.726 169.822C681.726 170.073 681.643 170.277 681.479 170.433C681.323 170.589 681.106 170.667 680.829 170.667ZM683.385 181.86V172.175H684.737V173.735L684.529 173.618C684.581 173.358 684.729 173.111 684.971 172.877C685.214 172.634 685.509 172.439 685.855 172.292C686.211 172.136 686.575 172.058 686.947 172.058C687.563 172.058 688.109 172.21 688.585 172.513C689.062 172.816 689.439 173.232 689.716 173.761C689.994 174.29 690.132 174.896 690.132 175.581C690.132 176.257 689.994 176.864 689.716 177.401C689.448 177.93 689.075 178.35 688.598 178.662C688.122 178.965 687.584 179.117 686.986 179.117C686.588 179.117 686.202 179.039 685.829 178.883C685.457 178.718 685.14 178.51 684.88 178.259C684.62 178.008 684.46 177.748 684.399 177.479L684.737 177.297V181.86H683.385ZM686.765 177.882C687.164 177.882 687.519 177.782 687.831 177.583C688.143 177.384 688.39 177.111 688.572 176.764C688.754 176.417 688.845 176.023 688.845 175.581C688.845 175.139 688.754 174.749 688.572 174.411C688.399 174.064 688.156 173.791 687.844 173.592C687.532 173.393 687.173 173.293 686.765 173.293C686.358 173.293 685.998 173.393 685.686 173.592C685.374 173.783 685.127 174.051 684.945 174.398C684.763 174.745 684.672 175.139 684.672 175.581C684.672 176.023 684.763 176.417 684.945 176.764C685.127 177.111 685.374 177.384 685.686 177.583C685.998 177.782 686.358 177.882 686.765 177.882ZM694.641 181.99C694.156 181.99 693.671 181.912 693.185 181.756C692.709 181.609 692.323 181.414 692.028 181.171L692.522 180.131C692.696 180.261 692.899 180.374 693.133 180.469C693.367 180.573 693.614 180.651 693.874 180.703C694.134 180.764 694.39 180.794 694.641 180.794C695.118 180.794 695.517 180.716 695.837 180.56C696.158 180.404 696.401 180.174 696.565 179.871C696.73 179.568 696.812 179.191 696.812 178.74V177.427L696.955 177.518C696.912 177.787 696.769 178.047 696.526 178.298C696.292 178.541 695.998 178.74 695.642 178.896C695.287 179.052 694.923 179.13 694.55 179.13C693.9 179.13 693.32 178.978 692.808 178.675C692.306 178.363 691.907 177.943 691.612 177.414C691.318 176.877 691.17 176.266 691.17 175.581C691.17 174.896 691.313 174.29 691.599 173.761C691.894 173.224 692.293 172.803 692.795 172.5C693.307 172.188 693.879 172.032 694.511 172.032C694.771 172.032 695.023 172.067 695.265 172.136C695.508 172.197 695.733 172.288 695.941 172.409C696.149 172.522 696.336 172.647 696.5 172.786C696.665 172.925 696.799 173.072 696.903 173.228C697.007 173.384 697.072 173.531 697.098 173.67L696.812 173.774V172.175H698.151V178.584C698.151 179.13 698.069 179.611 697.904 180.027C697.748 180.452 697.519 180.807 697.215 181.093C696.912 181.388 696.544 181.609 696.11 181.756C695.677 181.912 695.187 181.99 694.641 181.99ZM694.693 177.895C695.118 177.895 695.495 177.795 695.824 177.596C696.154 177.397 696.409 177.124 696.591 176.777C696.773 176.43 696.864 176.032 696.864 175.581C696.864 175.13 696.769 174.732 696.578 174.385C696.396 174.03 696.141 173.752 695.811 173.553C695.491 173.354 695.118 173.254 694.693 173.254C694.277 173.254 693.905 173.358 693.575 173.566C693.255 173.765 692.999 174.043 692.808 174.398C692.626 174.745 692.535 175.139 692.535 175.581C692.535 176.023 692.626 176.422 692.808 176.777C692.999 177.124 693.255 177.397 693.575 177.596C693.905 177.795 694.277 177.895 694.693 177.895Z" fill="#B3B3B3"/>
<rect x="0.25" y="0.25" width="1247.5" height="209.5" rx="3.75" stroke="#B3B3B3" stroke-width="0.5" stroke-dasharray="20 10"/>
</svg>
