<svg width="8" height="15" viewBox="0 0 8 15" fill="none" xmlns="http://www.w3.org/2000/svg">
<path d="M1.42499 14.725C1.26666 14.725 1.10833 14.6667 0.983328 14.5417C0.741662 14.3 0.741662 13.9 0.983328 13.6583L6.41666 8.22499C6.81666 7.82499 6.81666 7.17499 6.41666 6.77499L0.983328 1.34165C0.741662 1.09999 0.741662 0.699986 0.983328 0.458319C1.22499 0.216652 1.62499 0.216652 1.86666 0.458319L7.3 5.89165C7.725 6.31665 7.96666 6.89165 7.96666 7.49999C7.96666 8.10832 7.73333 8.68332 7.3 9.10832L1.86666 14.5417C1.74166 14.6583 1.58333 14.725 1.42499 14.725Z" fill="#186F3D"/>
</svg>
