<svg width="20" height="21" viewBox="0 0 20 21" fill="none" xmlns="http://www.w3.org/2000/svg">
<path d="M7.97501 16.1833C7.81668 16.1833 7.65835 16.125 7.53335 16L2.47501 10.9416C2.23335 10.7 2.23335 10.3 2.47501 10.0583L7.53335 4.99998C7.77501 4.75831 8.17501 4.75831 8.41668 4.99998C8.65835 5.24164 8.65835 5.64164 8.41668 5.88331L3.80001 10.5L8.41668 15.1166C8.65835 15.3583 8.65835 15.7583 8.41668 16C8.30001 16.125 8.13335 16.1833 7.97501 16.1833Z" fill="#999999"/>
<path d="M17.0833 11.125H3.05832C2.71665 11.125 2.43332 10.8417 2.43332 10.5C2.43332 10.1583 2.71665 9.875 3.05832 9.875H17.0833C17.425 9.875 17.7083 10.1583 17.7083 10.5C17.7083 10.8417 17.425 11.125 17.0833 11.125Z" fill="#999999"/>
</svg>
