<svg width="20" height="21" viewBox="0 0 20 21" fill="none" xmlns="http://www.w3.org/2000/svg">
<path d="M18.3333 8.20825H1.66663C1.32496 8.20825 1.04163 7.92492 1.04163 7.58325C1.04163 7.24159 1.32496 6.95825 1.66663 6.95825H18.3333C18.675 6.95825 18.9583 7.24159 18.9583 7.58325C18.9583 7.92492 18.675 8.20825 18.3333 8.20825Z" fill="white"/>
<path d="M6.66667 14.875H5C4.65833 14.875 4.375 14.5917 4.375 14.25C4.375 13.9083 4.65833 13.625 5 13.625H6.66667C7.00833 13.625 7.29167 13.9083 7.29167 14.25C7.29167 14.5917 7.00833 14.875 6.66667 14.875Z" fill="white"/>
<path d="M12.0833 14.875H8.75C8.40833 14.875 8.125 14.5917 8.125 14.25C8.125 13.9083 8.40833 13.625 8.75 13.625H12.0833C12.425 13.625 12.7083 13.9083 12.7083 14.25C12.7083 14.5917 12.425 14.875 12.0833 14.875Z" fill="white"/>
<path d="M14.6333 18.2084H5.36663C2.04996 18.2084 1.04163 17.2084 1.04163 13.9251V7.07508C1.04163 3.79175 2.04996 2.79175 5.36663 2.79175H14.625C17.9416 2.79175 18.95 3.79175 18.95 7.07508V13.9167C18.9583 17.2084 17.95 18.2084 14.6333 18.2084ZM5.36663 4.04175C2.74996 4.04175 2.29163 4.49175 2.29163 7.07508V13.9167C2.29163 16.5001 2.74996 16.9501 5.36663 16.9501H14.625C17.2416 16.9501 17.7 16.5001 17.7 13.9167V7.07508C17.7 4.49175 17.2416 4.04175 14.625 4.04175H5.36663Z" fill="white"/>
</svg>
