<svg width="20" height="21" viewBox="0 0 20 21" fill="none" xmlns="http://www.w3.org/2000/svg">
<path d="M7.42498 17.725C7.26665 17.725 7.10831 17.6667 6.98331 17.5417C6.74165 17.3 6.74165 16.9 6.98331 16.6583L12.4166 11.225C12.8166 10.825 12.8166 10.175 12.4166 9.77502L6.98331 4.34168C6.74165 4.10002 6.74165 3.70002 6.98331 3.45835C7.22498 3.21668 7.62498 3.21668 7.86665 3.45835L13.3 8.89168C13.725 9.31668 13.9666 9.89168 13.9666 10.5C13.9666 11.1084 13.7333 11.6834 13.3 12.1084L7.86665 17.5417C7.74165 17.6584 7.58331 17.725 7.42498 17.725Z" fill="#333333"/>
</svg>
