<svg width="20" height="21" viewBox="0 0 20 21" fill="none" xmlns="http://www.w3.org/2000/svg">
<path d="M9.16667 15C8.98257 15 8.83333 14.8508 8.83333 14.6667C8.83333 14.4826 8.98257 14.3333 9.16667 14.3333H10.8333C11.0174 14.3333 11.1667 14.4826 11.1667 14.6667C11.1667 14.8508 11.0174 15 10.8333 15H9.16667ZM3 6.33333C3 6.14924 3.14924 6 3.33333 6H16.6667C16.8508 6 17 6.14924 17 6.33333C17 6.51743 16.8508 6.66667 16.6667 6.66667H3.33333C3.14924 6.66667 3 6.51743 3 6.33333ZM5.83333 10.8333C5.64924 10.8333 5.5 10.6841 5.5 10.5C5.5 10.3159 5.64924 10.1667 5.83333 10.1667H14.1667C14.3508 10.1667 14.5 10.3159 14.5 10.5C14.5 10.6841 14.3508 10.8333 14.1667 10.8333H5.83333Z" fill="#333333" stroke="#333333"/>
</svg>
