<svg width="20" height="21" viewBox="0 0 20 21" fill="none" xmlns="http://www.w3.org/2000/svg">
<path d="M9.99991 11.5833C9.89157 11.5833 9.78324 11.5583 9.68324 11.5L2.32491 7.24168C2.03324 7.06668 1.92491 6.68335 2.09991 6.38335C2.27491 6.08335 2.65824 5.98335 2.95824 6.15835L9.99991 10.2333L16.9999 6.18335C17.2999 6.00835 17.6832 6.11668 17.8582 6.40835C18.0332 6.70835 17.9249 7.09168 17.6332 7.26668L10.3249 11.5C10.2166 11.55 10.1082 11.5833 9.99991 11.5833Z" fill="#999999"/>
<path d="M10 19.1333C9.65833 19.1333 9.375 18.85 9.375 18.5083V10.95C9.375 10.6083 9.65833 10.325 10 10.325C10.3417 10.325 10.625 10.6083 10.625 10.95V18.5083C10.625 18.85 10.3417 19.1333 10 19.1333Z" fill="#999999"/>
<path d="M10 19.4583C9.2667 19.4583 8.5417 19.3 7.9667 18.9833L3.5167 16.5083C2.30837 15.8417 1.3667 14.2333 1.3667 12.85V8.14166C1.3667 6.75832 2.30837 5.15832 3.5167 4.48332L7.9667 2.01666C9.10837 1.38332 10.8917 1.38332 12.0334 2.01666L16.4834 4.49166C17.6917 5.15832 18.6334 6.76666 18.6334 8.14999V12.8583C18.6334 14.2417 17.6917 15.8417 16.4834 16.5167L12.0334 18.9833C11.4584 19.3 10.7334 19.4583 10 19.4583ZM10 2.79166C9.47503 2.79166 8.95837 2.89999 8.57503 3.10832L4.12503 5.58332C3.32503 6.02499 2.6167 7.22499 2.6167 8.14166V12.85C2.6167 13.7667 3.32503 14.9667 4.12503 15.4167L8.57503 17.8917C9.33337 18.3167 10.6667 18.3167 11.425 17.8917L15.875 15.4167C16.675 14.9667 17.3834 13.775 17.3834 12.85V8.14166C17.3834 7.22499 16.675 6.02499 15.875 5.57499L11.425 3.09999C11.0417 2.89999 10.525 2.79166 10 2.79166Z" fill="#999999"/>
</svg>
