<svg width="20" height="21" viewBox="0 0 20 21" fill="none" xmlns="http://www.w3.org/2000/svg">
<path d="M10.0001 19.4583C5.05841 19.4583 1.04175 15.4416 1.04175 10.5C1.04175 5.55829 5.05841 1.54163 10.0001 1.54163C14.9417 1.54163 18.9584 5.55829 18.9584 10.5C18.9584 15.4416 14.9417 19.4583 10.0001 19.4583ZM10.0001 2.79163C5.75008 2.79163 2.29175 6.24996 2.29175 10.5C2.29175 14.75 5.75008 18.2083 10.0001 18.2083C14.2501 18.2083 17.7084 14.75 17.7084 10.5C17.7084 6.24996 14.2501 2.79163 10.0001 2.79163Z" fill="#999999"/>
<path d="M10 11.9583C9.65833 11.9583 9.375 11.675 9.375 11.3333V7.16663C9.375 6.82496 9.65833 6.54163 10 6.54163C10.3417 6.54163 10.625 6.82496 10.625 7.16663V11.3333C10.625 11.675 10.3417 11.9583 10 11.9583Z" fill="#999999"/>
<path d="M10.0001 14.6667C9.89175 14.6667 9.78341 14.6417 9.68341 14.6C9.58341 14.5583 9.49175 14.5 9.40841 14.425C9.33341 14.3417 9.27508 14.2583 9.23341 14.15C9.19175 14.05 9.16675 13.9417 9.16675 13.8333C9.16675 13.725 9.19175 13.6167 9.23341 13.5167C9.27508 13.4167 9.33341 13.325 9.40841 13.2417C9.49175 13.1667 9.58341 13.1083 9.68341 13.0667C9.88341 12.9833 10.1167 12.9833 10.3167 13.0667C10.4167 13.1083 10.5084 13.1667 10.5917 13.2417C10.6667 13.325 10.7251 13.4167 10.7667 13.5167C10.8084 13.6167 10.8334 13.725 10.8334 13.8333C10.8334 13.9417 10.8084 14.05 10.7667 14.15C10.7251 14.2583 10.6667 14.3417 10.5917 14.425C10.5084 14.5 10.4167 14.5583 10.3167 14.6C10.2167 14.6417 10.1084 14.6667 10.0001 14.6667Z" fill="#999999"/>
</svg>
