<svg width="24" height="25" viewBox="0 0 24 25" fill="none" xmlns="http://www.w3.org/2000/svg">
<path d="M9.46992 15.78C9.27992 15.78 9.08992 15.71 8.93992 15.56C8.11992 14.74 7.66992 13.65 7.66992 12.5C7.66992 10.11 9.60992 8.17 11.9999 8.17C13.1499 8.17 14.2399 8.62 15.0599 9.44C15.1999 9.58 15.2799 9.77 15.2799 9.97C15.2799 10.17 15.1999 10.36 15.0599 10.5L9.99992 15.56C9.84992 15.71 9.65992 15.78 9.46992 15.78ZM11.9999 9.67C10.4399 9.67 9.16992 10.94 9.16992 12.5C9.16992 13 9.29992 13.48 9.53992 13.9L13.3999 10.04C12.9799 9.8 12.4999 9.67 11.9999 9.67Z" fill="#292D32"/>
<path d="M5.59984 19.01C5.42984 19.01 5.24984 18.95 5.10984 18.83C4.03984 17.92 3.07984 16.8 2.25984 15.5C1.19984 13.85 1.19984 11.16 2.25984 9.5C4.69984 5.68 8.24984 3.48 11.9998 3.48C14.1998 3.48 16.3698 4.24 18.2698 5.67C18.5998 5.92 18.6698 6.39 18.4198 6.72C18.1698 7.05 17.6998 7.12 17.3698 6.87C15.7298 5.63 13.8698 4.98 11.9998 4.98C8.76984 4.98 5.67984 6.92 3.51984 10.31C2.76984 11.48 2.76984 13.52 3.51984 14.69C4.26984 15.86 5.12984 16.87 6.07984 17.69C6.38984 17.96 6.42984 18.43 6.15984 18.75C6.01984 18.92 5.80984 19.01 5.59984 19.01Z" fill="#292D32"/>
<path d="M11.9996 21.52C10.6696 21.52 9.36957 21.25 8.11957 20.72C7.73957 20.56 7.55957 20.12 7.71957 19.74C7.87957 19.36 8.31957 19.18 8.69957 19.34C9.75957 19.79 10.8696 20.02 11.9896 20.02C15.2196 20.02 18.3096 18.08 20.4696 14.69C21.2196 13.52 21.2196 11.48 20.4696 10.31C20.1596 9.82 19.8196 9.35 19.4596 8.91C19.1996 8.59 19.2496 8.12 19.5696 7.85C19.8896 7.59 20.3596 7.63 20.6296 7.96C21.0196 8.44 21.3996 8.96 21.7396 9.5C22.7996 11.15 22.7996 13.84 21.7396 15.5C19.2996 19.32 15.7496 21.52 11.9996 21.52Z" fill="#292D32"/>
<path d="M12.6896 16.77C12.3396 16.77 12.0196 16.52 11.9496 16.16C11.8696 15.75 12.1396 15.36 12.5496 15.29C13.6496 15.09 14.5696 14.17 14.7696 13.07C14.8496 12.66 15.2396 12.4 15.6496 12.47C16.0596 12.55 16.3296 12.94 16.2496 13.35C15.9296 15.08 14.5496 16.45 12.8296 16.77C12.7796 16.76 12.7396 16.77 12.6896 16.77Z" fill="#292D32"/>
<path d="M2.00043 23.25C1.81043 23.25 1.62043 23.18 1.47043 23.03C1.18043 22.74 1.18043 22.26 1.47043 21.97L8.94043 14.5C9.23043 14.21 9.71043 14.21 10.0004 14.5C10.2904 14.79 10.2904 15.27 10.0004 15.56L2.53043 23.03C2.38043 23.18 2.19043 23.25 2.00043 23.25Z" fill="#292D32"/>
<path d="M14.5297 10.72C14.3397 10.72 14.1497 10.65 13.9997 10.5C13.7097 10.21 13.7097 9.73 13.9997 9.44L21.4697 1.97C21.7597 1.68 22.2397 1.68 22.5297 1.97C22.8197 2.26 22.8197 2.74 22.5297 3.03L15.0597 10.5C14.9097 10.65 14.7197 10.72 14.5297 10.72Z" fill="#292D32"/>
</svg>
