<svg width="20" height="21" viewBox="0 0 20 21" fill="none" xmlns="http://www.w3.org/2000/svg">
<path d="M10 19.4584C5.05833 19.4584 1.04167 15.4417 1.04167 10.5001C1.04167 5.55841 5.05833 1.54175 10 1.54175C14.9417 1.54175 18.9583 5.55841 18.9583 10.5001C18.9583 15.4417 14.9417 19.4584 10 19.4584ZM10 2.79175C5.75 2.79175 2.29167 6.25008 2.29167 10.5001C2.29167 14.7501 5.75 18.2084 10 18.2084C14.25 18.2084 17.7083 14.7501 17.7083 10.5001C17.7083 6.25008 14.25 2.79175 10 2.79175Z" fill="white"/>
<path d="M10 11.9584C9.65833 11.9584 9.375 11.6751 9.375 11.3334V7.16675C9.375 6.82508 9.65833 6.54175 10 6.54175C10.3417 6.54175 10.625 6.82508 10.625 7.16675V11.3334C10.625 11.6751 10.3417 11.9584 10 11.9584Z" fill="white"/>
<path d="M10 14.6667C9.89167 14.6667 9.78333 14.6417 9.68333 14.6C9.58333 14.5583 9.49167 14.5 9.40833 14.425C9.33333 14.3417 9.275 14.2583 9.23333 14.15C9.19167 14.05 9.16667 13.9417 9.16667 13.8333C9.16667 13.725 9.19167 13.6167 9.23333 13.5167C9.275 13.4167 9.33333 13.325 9.40833 13.2417C9.49167 13.1667 9.58333 13.1083 9.68333 13.0667C9.88333 12.9833 10.1167 12.9833 10.3167 13.0667C10.4167 13.1083 10.5083 13.1667 10.5917 13.2417C10.6667 13.325 10.725 13.4167 10.7667 13.5167C10.8083 13.6167 10.8333 13.725 10.8333 13.8333C10.8333 13.9417 10.8083 14.05 10.7667 14.15C10.725 14.2583 10.6667 14.3417 10.5917 14.425C10.5083 14.5 10.4167 14.5583 10.3167 14.6C10.2167 14.6417 10.1083 14.6667 10 14.6667Z" fill="white"/>
</svg>
