<svg width="18" height="19" viewBox="0 0 18 19" fill="none" xmlns="http://www.w3.org/2000/svg">
<path d="M11.25 17.5625H6.75C2.6775 17.5625 0.9375 15.8225 0.9375 11.75V7.25C0.9375 3.1775 2.6775 1.4375 6.75 1.4375H8.25C8.5575 1.4375 8.8125 1.6925 8.8125 2C8.8125 2.3075 8.5575 2.5625 8.25 2.5625H6.75C3.2925 2.5625 2.0625 3.7925 2.0625 7.25V11.75C2.0625 15.2075 3.2925 16.4375 6.75 16.4375H11.25C14.7075 16.4375 15.9375 15.2075 15.9375 11.75V10.25C15.9375 9.9425 16.1925 9.6875 16.5 9.6875C16.8075 9.6875 17.0625 9.9425 17.0625 10.25V11.75C17.0625 15.8225 15.3225 17.5625 11.25 17.5625Z" fill="#007AFF"/>
<path d="M5.24221 11.9125L5.24247 11.9106L5.56498 9.65313L5.56531 9.65074C5.61003 9.32651 5.84362 8.8634 6.07605 8.63097L11.9861 2.72098C12.6765 2.03056 13.3087 1.74805 13.8825 1.74805C14.4563 1.74805 15.0885 2.03056 15.7789 2.72098C16.5307 3.4727 16.8012 4.16679 16.7447 4.80261C16.6919 5.32355 16.4112 5.88102 15.7809 6.50441L15.7789 6.50637L9.86895 12.4164C9.63652 12.6488 9.17341 12.8824 8.84918 12.9271L8.84679 12.9274L6.58929 13.2499L6.56827 13.253L6.54757 13.2577C6.53399 13.2609 6.51457 13.2638 6.48532 13.2655C6.45449 13.2673 6.42206 13.2674 6.375 13.2674C6.04004 13.2674 5.74902 13.1481 5.54138 12.9467C5.30129 12.7051 5.17974 12.3384 5.24221 11.9125ZM12.0755 2.80735L12.0739 2.80887L6.16394 8.71887C6.03887 8.84395 5.93368 9.01531 5.86002 9.16153C5.78632 9.30785 5.71217 9.49256 5.68581 9.66389L5.68578 9.66389L5.68502 9.66921L5.36252 11.9267L5.36219 11.9291C5.31949 12.2387 5.36994 12.5995 5.63144 12.861C5.89295 13.1225 6.25374 13.1729 6.56332 13.1302L6.56571 13.1299L8.82321 12.8074L8.82321 12.8074L8.82853 12.8066C8.99853 12.7805 9.18438 12.7071 9.33236 12.6331C9.47536 12.5616 9.65107 12.4557 9.77741 12.3246L15.6836 6.41848C16.2016 5.90046 16.5544 5.36134 16.6079 4.78352L16.6079 4.78338C16.6732 4.07566 16.2932 3.419 15.6859 2.80369L15.6859 2.80368L15.6836 2.80137C15.0342 2.15204 14.3895 1.82182 13.7117 1.88455C13.0622 1.94467 12.5293 2.35744 12.0755 2.80735Z" fill="#292D32" stroke="#007AFF"/>
<path d="M14.8875 7.87246C14.835 7.87246 14.7825 7.86496 14.7375 7.84996C12.765 7.29496 11.1975 5.72746 10.6425 3.75496C10.56 3.45496 10.7325 3.14746 11.0325 3.05746C11.3325 2.97496 11.64 3.14746 11.7225 3.44746C12.1725 5.04496 13.44 6.31246 15.0375 6.76246C15.3375 6.84496 15.51 7.15996 15.4275 7.45996C15.36 7.71496 15.135 7.87246 14.8875 7.87246Z" fill="#007AFF"/>
</svg>
