<svg width="18" height="19" viewBox="0 0 18 19" fill="none" xmlns="http://www.w3.org/2000/svg">
<path d="M15.75 5.5476C15.735 5.5476 15.7125 5.5476 15.69 5.5476C11.7225 5.1501 7.7625 5.0001 3.84 5.3976L2.31 5.5476C1.995 5.5776 1.7175 5.3526 1.6875 5.0376C1.6575 4.7226 1.8825 4.4526 2.19 4.4226L3.72 4.2726C7.71 3.8676 11.7525 4.0251 15.8025 4.4226C16.11 4.4526 16.335 4.7301 16.305 5.0376C16.2825 5.3301 16.035 5.5476 15.75 5.5476Z" fill="#FF3B30"/>
<path d="M6.37501 4.29L6.36353 4.28996C6.3511 4.28773 6.33588 4.27967 6.32388 4.26281C6.31205 4.2462 6.31104 4.23215 6.31252 4.22369L6.3131 4.22031L6.4781 3.23781L6.4782 3.2372C6.54159 2.85686 6.60061 2.56195 6.77959 2.34082C6.93074 2.15408 7.24239 1.9375 8.01751 1.9375H9.98251C10.7561 1.9375 11.0702 2.16016 11.2235 2.35269C11.4046 2.58012 11.4622 2.8791 11.5215 3.24296L11.5215 3.24296L11.522 3.24593L11.687 4.22093L11.6871 4.22165C11.6899 4.23798 11.6862 4.25431 11.6761 4.26844C11.666 4.28273 11.6551 4.28701 11.6483 4.28803L11.6483 4.28793L11.6384 4.28963C11.622 4.29242 11.6057 4.28869 11.5916 4.27863C11.5773 4.26845 11.573 4.25763 11.572 4.25083L11.5721 4.25082L11.5705 4.24157L11.4058 3.2686L11.4036 3.25455C11.3797 3.10629 11.3546 2.94991 11.317 2.81693C11.2764 2.67323 11.2067 2.49909 11.0563 2.35468C10.9032 2.20762 10.7196 2.14177 10.5489 2.10906C10.3845 2.07754 10.1945 2.07 9.99001 2.07H8.02501C7.82331 2.07 7.6357 2.076 7.47446 2.10443C7.30762 2.13386 7.12212 2.1949 6.96614 2.3409C6.81253 2.48467 6.74233 2.66017 6.70157 2.80276C6.66444 2.93266 6.63844 3.08715 6.61345 3.2357C6.61223 3.24295 6.61101 3.25018 6.6098 3.2574L6.43765 4.23039L6.4376 4.23038L6.43645 4.23746C6.43163 4.26722 6.40554 4.29 6.37501 4.29Z" fill="#FF3B30" stroke="#FF3B30"/>
<path d="M11.4075 17.5624H6.59248C3.97498 17.5624 3.86999 16.1149 3.78749 14.9449L3.29999 7.39243C3.27749 7.08493 3.51748 6.81493 3.82498 6.79243C4.13998 6.77743 4.40249 7.00993 4.42499 7.31743L4.91249 14.8699C4.99499 16.0099 5.02498 16.4374 6.59248 16.4374H11.4075C12.9825 16.4374 13.0125 16.0099 13.0875 14.8699L13.575 7.31743C13.5975 7.00993 13.8675 6.77743 14.175 6.79243C14.4825 6.81493 14.7225 7.07743 14.7 7.39243L14.2125 14.9449C14.13 16.1149 14.025 17.5624 11.4075 17.5624Z" fill="#FF3B30"/>
<path d="M10.245 13.4375H7.7475C7.44 13.4375 7.185 13.1825 7.185 12.875C7.185 12.5675 7.44 12.3125 7.7475 12.3125H10.245C10.5525 12.3125 10.8075 12.5675 10.8075 12.875C10.8075 13.1825 10.5525 13.4375 10.245 13.4375Z" fill="#FF3B30"/>
<path d="M10.875 10.4375H7.125C6.8175 10.4375 6.5625 10.1825 6.5625 9.875C6.5625 9.5675 6.8175 9.3125 7.125 9.3125H10.875C11.1825 9.3125 11.4375 9.5675 11.4375 9.875C11.4375 10.1825 11.1825 10.4375 10.875 10.4375Z" fill="#FF3B30"/>
</svg>
