<svg width="20" height="21" viewBox="0 0 20 21" fill="none" xmlns="http://www.w3.org/2000/svg">
<path d="M5.15011 19.4583C5.06678 19.4583 4.97511 19.45 4.90011 19.4416L3.09178 19.1916C2.22511 19.075 1.44178 18.3 1.30845 17.4166L1.05845 15.5916C0.975114 15.0083 1.22511 14.25 1.64178 13.825L5.30011 10.1666C4.70845 7.79998 5.39178 5.29998 7.13345 3.57498C9.83345 0.88331 14.2251 0.874977 16.9334 3.57498C18.2418 4.88331 18.9584 6.62498 18.9584 8.47498C18.9584 10.325 18.2418 12.0666 16.9334 13.375C15.1834 15.1083 12.6918 15.7916 10.3418 15.1916L6.67511 18.85C6.32511 19.2166 5.70011 19.4583 5.15011 19.4583ZM12.0251 2.79998C10.5668 2.79998 9.11678 3.34998 8.00845 4.45831C6.50845 5.94998 5.96678 8.13331 6.59178 10.1666C6.65845 10.3916 6.60011 10.625 6.43345 10.7916L2.51678 14.7083C2.37511 14.85 2.25845 15.2166 2.28345 15.4083L2.53345 17.2333C2.58345 17.55 2.92511 17.9083 3.24178 17.95L5.05845 18.2C5.25845 18.2333 5.62511 18.1166 5.76678 17.975L9.70011 14.05C9.86678 13.8833 10.1084 13.8333 10.3251 13.9C12.3334 14.5333 14.5251 13.9916 16.0251 12.4916C17.0918 11.425 17.6834 9.99164 17.6834 8.47498C17.6834 6.94998 17.0918 5.52498 16.0251 4.45831C14.9418 3.35831 13.4834 2.79998 12.0251 2.79998Z" fill="#999999"/>
<path d="M7.65824 17.1166C7.64055 17.1166 7.62503 17.1134 7.61171 17.108C7.59885 17.1028 7.5848 17.0944 7.57012 17.0797L5.65346 15.1631C5.63193 15.1415 5.61865 15.1108 5.61865 15.0749C5.61865 15.0391 5.63193 15.0084 5.65346 14.9868C5.67498 14.9653 5.70572 14.952 5.74157 14.952C5.77742 14.952 5.80816 14.9653 5.82968 14.9868L7.74635 16.9035C7.76788 16.925 7.78115 16.9558 7.78115 16.9916C7.78115 17.0275 7.76788 17.0582 7.74635 17.0797C7.73167 17.0944 7.71762 17.1028 7.70476 17.108C7.69144 17.1134 7.67592 17.1166 7.65824 17.1166Z" fill="#292D32" stroke="#999999"/>
<path d="M12.0833 10.2916C11.0499 10.2916 10.2083 9.44996 10.2083 8.41663C10.2083 7.38329 11.0499 6.54163 12.0833 6.54163C13.1166 6.54163 13.9583 7.38329 13.9583 8.41663C13.9583 9.44996 13.1166 10.2916 12.0833 10.2916ZM12.0833 7.79163C11.7416 7.79163 11.4583 8.07496 11.4583 8.41663C11.4583 8.75829 11.7416 9.04163 12.0833 9.04163C12.4249 9.04163 12.7083 8.75829 12.7083 8.41663C12.7083 8.07496 12.4249 7.79163 12.0833 7.79163Z" fill="#999999"/>
</svg>
