<svg width="16" height="16" viewBox="0 0 16 16" fill="none" xmlns="http://www.w3.org/2000/svg">
<path fill-rule="evenodd" clip-rule="evenodd" d="M11.3317 0.577793C10.2479 0.568375 9.20382 0.984992 8.42426 1.73791L8.42421 1.73785L8.416 1.74601L7.26933 2.88601C6.956 3.19752 6.95453 3.70405 7.26603 4.01738C7.57754 4.33071 8.08407 4.33218 8.3974 4.02068L9.53968 2.88503C10.0171 2.42593 10.6553 2.17198 11.3178 2.17773C11.982 2.1835 12.6174 2.44993 13.0871 2.91963C13.5568 3.38933 13.8232 4.02473 13.829 4.68896C13.8347 5.35103 13.5811 5.98895 13.1224 6.46623L11.1277 8.46099L11.1276 8.46109C10.8708 8.71801 10.5617 8.91669 10.2213 9.04365C9.88097 9.17061 9.51729 9.22289 9.15495 9.19694C8.79261 9.17099 8.44009 9.06742 8.1213 8.89325C7.80251 8.71908 7.5249 8.47839 7.30731 8.18749C7.04267 7.83369 6.54132 7.76142 6.18752 8.02606C5.83372 8.29071 5.76144 8.79206 6.02609 9.14586C6.3811 9.62047 6.83404 10.0132 7.35417 10.2974C7.8743 10.5815 8.44947 10.7505 9.04065 10.7929C9.63184 10.8352 10.2252 10.7499 10.7805 10.5427C11.3358 10.3356 11.84 10.0115 12.2591 9.59236L12.2592 9.59226L14.2591 7.59236L14.2591 7.59245L14.2688 7.58245C15.0217 6.80289 15.4383 5.7588 15.4289 4.67505C15.4195 3.59131 14.9848 2.55462 14.2185 1.78826C13.4521 1.02191 12.4154 0.58721 11.3317 0.577793ZM6.95934 5.20709C6.36816 5.16475 5.77478 5.25005 5.21946 5.4572C4.66419 5.66434 4.15995 5.98846 3.74094 6.40759L3.74084 6.40769L1.74094 8.40759L1.74086 8.4075L1.7312 8.4175C0.978278 9.19706 0.561662 10.2411 0.571079 11.3249C0.580497 12.4086 1.01519 13.4453 1.78155 14.2117C2.5479 14.978 3.58459 15.4127 4.66834 15.4222C5.75209 15.4316 6.79618 15.015 7.57573 14.262L7.57582 14.2621L7.58565 14.2523L8.72565 13.1123C9.03807 12.7999 9.03807 12.2933 8.72565 11.9809C8.41323 11.6685 7.9067 11.6685 7.59428 11.9809L6.45953 13.1157C5.98224 13.5743 5.34432 13.828 4.68224 13.8222C4.01801 13.8164 3.38262 13.55 2.91292 13.0803C2.44322 12.6106 2.17679 11.9752 2.17102 11.311C2.16527 10.6489 2.41894 10.011 2.87757 9.5337L4.87231 7.53896L4.87242 7.53885C5.12924 7.28194 5.43831 7.08326 5.77867 6.9563C6.11903 6.82934 6.48271 6.77706 6.84505 6.80301C7.20739 6.82896 7.55991 6.93253 7.8787 7.1067C8.19749 7.28087 8.47509 7.52156 8.69268 7.81245C8.95733 8.16625 9.45868 8.23853 9.81248 7.97388C10.1663 7.70924 10.2386 7.20789 9.97391 6.85409C9.61889 6.37948 9.16596 5.98676 8.64583 5.70259C8.12569 5.41842 7.55053 5.24943 6.95934 5.20709Z" fill="#333333"/>
</svg>
