<svg width="20" height="21" viewBox="0 0 20 21" fill="none" xmlns="http://www.w3.org/2000/svg">
<path d="M7.29991 19.0586H7.40824C11.1082 19.0586 12.8916 17.6002 13.1999 14.3336C13.2332 13.9919 12.9832 13.6836 12.6332 13.6502C12.2999 13.6169 11.9832 13.8752 11.9499 14.2169C11.7082 16.8336 10.4749 17.8086 7.39991 17.8086H7.29157C3.89991 17.8086 2.69991 16.6086 2.69991 13.2169V7.78356C2.69991 4.39189 3.89991 3.19189 7.29157 3.19189H7.39991C10.4916 3.19189 11.7249 4.18356 11.9499 6.85023C11.9916 7.19189 12.2832 7.45023 12.6332 7.41689C12.9832 7.39189 13.2332 7.08356 13.2082 6.74189C12.9249 3.42523 11.1332 1.94189 7.40824 1.94189H7.29991C3.20824 1.94189 1.45824 3.69189 1.45824 7.78356V13.2169C1.45824 17.3086 3.20824 19.0586 7.29991 19.0586Z" fill="#FF3B30"/>
<path d="M7.50006 11.125H16.9834C17.3251 11.125 17.6084 10.8417 17.6084 10.5C17.6084 10.1583 17.3251 9.875 16.9834 9.875H7.50006C7.1584 9.875 6.87506 10.1583 6.87506 10.5C6.87506 10.8417 7.1584 11.125 7.50006 11.125Z" fill="#FF3B30"/>
<path d="M15.1255 13.9167C15.2838 13.9167 15.4421 13.8584 15.5671 13.7334L18.3588 10.9417C18.6005 10.7 18.6005 10.3 18.3588 10.0584L15.5671 7.2667C15.3255 7.02503 14.9255 7.02503 14.6838 7.2667C14.4421 7.50837 14.4421 7.90837 14.6838 8.15003L17.0338 10.5L14.6838 12.85C14.4421 13.0917 14.4421 13.4917 14.6838 13.7334C14.8005 13.8584 14.9671 13.9167 15.1255 13.9167Z" fill="#FF3B30"/>
</svg>
