<svg width="20" height="21" viewBox="0 0 20 21" fill="none" xmlns="http://www.w3.org/2000/svg">
<path d="M17.5 6.95837H2.5C2.15833 6.95837 1.875 6.67504 1.875 6.33337C1.875 5.99171 2.15833 5.70837 2.5 5.70837H17.5C17.8417 5.70837 18.125 5.99171 18.125 6.33337C18.125 6.67504 17.8417 6.95837 17.5 6.95837Z" fill="#999999"/>
<path d="M17.5 11.125H2.5C2.15833 11.125 1.875 10.8417 1.875 10.5C1.875 10.1583 2.15833 9.875 2.5 9.875H17.5C17.8417 9.875 18.125 10.1583 18.125 10.5C18.125 10.8417 17.8417 11.125 17.5 11.125Z" fill="#999999"/>
<path d="M17.5 15.2916H2.5C2.15833 15.2916 1.875 15.0083 1.875 14.6666C1.875 14.325 2.15833 14.0416 2.5 14.0416H17.5C17.8417 14.0416 18.125 14.325 18.125 14.6666C18.125 15.0083 17.8417 15.2916 17.5 15.2916Z" fill="#999999"/>
</svg>
