<svg width="211" height="140" viewBox="0 0 211 140" fill="none" xmlns="http://www.w3.org/2000/svg">
<g clip-path="url(#clip0_2884_30211)">
<mask id="mask0_2884_30211" style="mask-type:luminance" maskUnits="userSpaceOnUse" x="0" y="0" width="211" height="140">
<path d="M0.5 0H210.5V140H0.5V0Z" fill="white"/>
</mask>
<g mask="url(#mask0_2884_30211)">
<path d="M141.423 74.798C135.845 71.0827 129.253 70.0803 123.208 71.4754C124.767 65.6199 122.532 59.1698 117.207 55.6227C110.516 51.166 101.48 52.9725 97.0275 59.6573C96.1153 61.0274 95.4416 62.542 95.0348 64.137C81.3748 55.5364 63.2735 59.3383 54.2797 72.8411C45.14 86.5625 48.8647 105.1 62.5992 114.249C76.3336 123.397 94.8752 119.69 104.015 105.969C104.914 104.617 105.703 103.195 106.375 101.717C107.975 106.434 111.084 110.677 115.552 113.654C126.292 120.807 140.792 117.908 147.938 107.179C155.085 96.4495 152.162 81.9516 141.423 74.798ZM108.421 82.254C108.35 82.3676 108.286 82.4801 108.22 82.5963C108.192 82.4763 108.161 82.3541 108.134 82.2341C108.229 82.2442 108.324 82.254 108.421 82.254Z" fill="url(#paint0_linear_2884_30211)"/>
<path d="M144.077 63.0016C138.837 66.321 131.134 63.563 131.134 63.563C131.134 63.563 131.931 55.4248 137.174 52.1092C142.413 48.79 150.113 51.5443 150.113 51.5443C150.113 51.5443 149.316 59.6825 144.077 63.0016Z" fill="url(#paint1_linear_2884_30211)"/>
<path d="M131.204 116.62C131.106 116.581 131.026 116.507 130.981 116.412C130.935 116.317 130.927 116.208 130.957 116.108C130.988 116.007 131.056 115.921 131.147 115.868C131.238 115.815 131.346 115.798 131.449 115.821C132.463 116.054 133.484 116.257 134.51 116.432C134.564 116.441 134.616 116.461 134.663 116.49C134.709 116.52 134.749 116.558 134.781 116.603C134.813 116.648 134.835 116.698 134.847 116.752C134.859 116.806 134.861 116.861 134.851 116.915C134.832 117.024 134.771 117.122 134.68 117.186C134.59 117.25 134.478 117.275 134.368 117.257C133.326 117.079 132.29 116.873 131.259 116.637C131.241 116.632 131.222 116.627 131.204 116.62ZM137.399 117.689C137.304 117.652 137.226 117.582 137.179 117.492C137.132 117.401 137.12 117.297 137.144 117.198C137.169 117.099 137.229 117.012 137.313 116.954C137.396 116.896 137.498 116.871 137.6 116.883C138.636 117.006 139.68 117.104 140.705 117.175C140.816 117.182 140.918 117.234 140.991 117.317C141.064 117.4 141.101 117.509 141.094 117.62C141.087 117.731 141.036 117.834 140.952 117.907C140.869 117.98 140.76 118.017 140.649 118.01C139.609 117.94 138.551 117.84 137.5 117.715C137.466 117.709 137.432 117.701 137.399 117.689ZM143.664 118.108C143.572 118.072 143.496 118.006 143.449 117.92C143.402 117.834 143.386 117.735 143.405 117.638C143.423 117.542 143.475 117.456 143.551 117.394C143.627 117.332 143.722 117.298 143.82 117.299C144.859 117.313 145.897 117.295 146.934 117.246C146.989 117.243 147.044 117.252 147.096 117.27C147.147 117.289 147.195 117.317 147.235 117.354C147.276 117.391 147.309 117.436 147.332 117.486C147.355 117.535 147.369 117.589 147.371 117.644C147.382 117.875 147.204 118.071 146.973 118.082C145.939 118.132 144.875 118.15 143.809 118.135C143.759 118.136 143.71 118.126 143.664 118.108ZM149.932 117.804C149.861 117.777 149.798 117.73 149.751 117.67C149.704 117.609 149.675 117.537 149.667 117.46C149.661 117.406 149.665 117.351 149.68 117.298C149.696 117.245 149.721 117.196 149.755 117.153C149.789 117.11 149.832 117.074 149.88 117.047C149.928 117.021 149.981 117.004 150.035 116.998C151.081 116.877 152.114 116.72 153.107 116.531C153.161 116.52 153.217 116.521 153.271 116.532C153.325 116.543 153.376 116.564 153.421 116.595C153.467 116.626 153.505 116.666 153.535 116.712C153.565 116.758 153.586 116.81 153.596 116.864C153.617 116.973 153.593 117.086 153.531 117.178C153.469 117.269 153.373 117.333 153.264 117.354C152.225 117.552 151.18 117.711 150.129 117.831C150.062 117.837 149.995 117.828 149.932 117.804ZM156.09 116.616C156.029 116.593 155.974 116.556 155.93 116.507C155.886 116.459 155.854 116.401 155.837 116.337C155.808 116.23 155.822 116.116 155.876 116.019C155.931 115.922 156.022 115.851 156.129 115.821C157.124 115.543 158.105 115.218 159.07 114.848C159.173 114.808 159.288 114.811 159.39 114.856C159.491 114.901 159.57 114.985 159.61 115.088C159.692 115.304 159.584 115.546 159.369 115.63C158.38 116.01 157.374 116.342 156.353 116.627C156.267 116.652 156.174 116.648 156.09 116.616ZM161.931 114.356C161.834 114.319 161.755 114.247 161.708 114.154C161.658 114.055 161.649 113.94 161.684 113.835C161.718 113.729 161.793 113.641 161.892 113.591C162.809 113.123 163.699 112.604 164.558 112.036C164.604 112.006 164.655 111.985 164.709 111.974C164.763 111.964 164.819 111.964 164.873 111.975C164.927 111.986 164.978 112.007 165.023 112.038C165.069 112.068 165.108 112.108 165.138 112.154C165.2 112.246 165.222 112.359 165.199 112.468C165.177 112.577 165.113 112.673 165.021 112.735C164.135 113.32 163.218 113.856 162.272 114.338C162.22 114.365 162.162 114.38 162.103 114.383C162.045 114.385 161.986 114.376 161.931 114.356ZM167.139 110.893C167.072 110.867 167.012 110.823 166.966 110.767C166.92 110.711 166.89 110.644 166.878 110.572C166.866 110.501 166.873 110.427 166.898 110.359C166.923 110.291 166.965 110.23 167.02 110.183C167.802 109.517 168.543 108.803 169.239 108.047C169.276 108.006 169.321 107.973 169.371 107.95C169.421 107.927 169.474 107.914 169.529 107.912C169.584 107.909 169.639 107.918 169.691 107.937C169.742 107.956 169.79 107.984 169.83 108.022C169.87 108.059 169.903 108.104 169.926 108.153C169.949 108.203 169.963 108.257 169.965 108.312C169.967 108.367 169.959 108.422 169.94 108.473C169.921 108.525 169.892 108.572 169.855 108.613C169.136 109.395 168.371 110.132 167.562 110.821C167.438 110.923 167.276 110.946 167.139 110.893ZM171.373 106.293C171.313 106.27 171.259 106.234 171.216 106.187C171.172 106.14 171.14 106.084 171.122 106.022C171.104 105.961 171.1 105.896 171.11 105.833C171.121 105.77 171.146 105.71 171.184 105.658C171.784 104.823 172.338 103.956 172.842 103.059C172.869 103.011 172.905 102.969 172.948 102.935C172.992 102.901 173.041 102.876 173.094 102.861C173.147 102.846 173.203 102.842 173.257 102.849C173.312 102.856 173.364 102.873 173.412 102.901C173.46 102.928 173.502 102.964 173.536 103.007C173.57 103.051 173.595 103.1 173.61 103.153C173.625 103.206 173.629 103.262 173.622 103.316C173.616 103.371 173.598 103.424 173.571 103.472C173.051 104.396 172.481 105.29 171.861 106.151C171.806 106.224 171.729 106.278 171.641 106.304C171.553 106.329 171.459 106.326 171.373 106.293ZM174.488 100.86L174.46 100.849C174.41 100.826 174.366 100.794 174.328 100.753C174.291 100.713 174.262 100.665 174.244 100.614C174.225 100.562 174.216 100.507 174.219 100.452C174.221 100.397 174.234 100.343 174.258 100.294C174.693 99.3559 175.087 98.3995 175.439 97.4272C175.456 97.3743 175.484 97.3255 175.521 97.2836C175.558 97.2417 175.602 97.2076 175.653 97.1832C175.703 97.1588 175.757 97.1448 175.813 97.1418C175.868 97.1388 175.924 97.1469 175.976 97.1658C176.029 97.1846 176.077 97.2138 176.118 97.2515C176.159 97.2892 176.192 97.3347 176.215 97.3854C176.238 97.4361 176.251 97.4909 176.253 97.5466C176.255 97.6023 176.245 97.6578 176.225 97.7097C176.146 97.9307 176.061 98.1568 175.975 98.3808C175.68 99.1469 175.36 99.9029 175.015 100.648C174.97 100.743 174.891 100.817 174.793 100.857C174.695 100.896 174.587 100.897 174.488 100.86ZM176.584 94.9517C176.489 94.915 176.411 94.8453 176.364 94.7555C176.317 94.6658 176.304 94.562 176.327 94.4634C176.574 93.4346 176.75 92.4126 176.851 91.4275C176.862 91.3172 176.917 91.2159 177.003 91.1457C177.088 91.0756 177.199 91.0424 177.309 91.0534C177.363 91.0591 177.416 91.0755 177.465 91.1017C177.513 91.1278 177.556 91.1633 177.59 91.206C177.625 91.2486 177.651 91.2977 177.666 91.3504C177.682 91.403 177.687 91.4583 177.681 91.5129C177.575 92.5358 177.393 93.5928 177.138 94.658C177.112 94.7659 177.045 94.8591 176.95 94.9171C176.856 94.9751 176.742 94.9932 176.634 94.9674C176.619 94.9632 176.6 94.958 176.584 94.9517ZM177.197 88.7283C177.122 88.6991 177.056 88.649 177.009 88.584C176.962 88.5189 176.934 88.4416 176.929 88.3612C176.87 87.3203 176.718 86.3039 176.477 85.3414C176.45 85.2338 176.467 85.1198 176.524 85.0245C176.581 84.9292 176.673 84.8604 176.781 84.8332C176.834 84.8197 176.889 84.8169 176.943 84.8248C176.998 84.8328 177.05 84.8513 177.097 84.8795C177.144 84.9077 177.185 84.9449 177.218 84.9889C177.251 85.033 177.274 85.0831 177.288 85.1363C177.541 86.1488 177.701 87.217 177.764 88.3118C177.767 88.3666 177.76 88.4216 177.742 88.4735C177.724 88.5254 177.695 88.5732 177.659 88.6142C177.622 88.6552 177.578 88.6886 177.528 88.7125C177.479 88.7364 177.425 88.7503 177.37 88.7535C177.309 88.7581 177.25 88.7488 177.197 88.7283ZM164.567 83.3667C164.468 83.3286 164.387 83.254 164.341 83.1583C164.295 83.0626 164.287 82.9528 164.319 82.8515C164.352 82.7455 164.426 82.6569 164.525 82.6054C164.623 82.5538 164.738 82.5434 164.844 82.5764C165.769 82.8672 166.794 83.02 167.808 83.0184C167.917 83.0211 168.021 83.0665 168.097 83.1449C168.174 83.2233 168.216 83.3284 168.216 83.4379C168.216 83.5473 168.173 83.6524 168.097 83.7305C168.02 83.8087 167.916 83.8538 167.807 83.8563C166.709 83.8577 165.598 83.6904 164.592 83.3761C164.584 83.3714 164.574 83.3693 164.567 83.3667ZM161.842 81.8685C161.792 81.8491 161.747 81.8207 161.707 81.785C160.68 80.8269 160.279 79.685 160.581 78.5706C160.61 78.4636 160.68 78.3726 160.776 78.3172C160.872 78.2619 160.986 78.2469 161.093 78.2754C161.146 78.2898 161.196 78.3145 161.239 78.3481C161.283 78.3818 161.319 78.4236 161.346 78.4713C161.374 78.519 161.391 78.5716 161.398 78.6262C161.405 78.6807 161.401 78.736 161.386 78.789C161.109 79.8154 161.717 80.6521 162.275 81.1736C162.346 81.2395 162.392 81.328 162.404 81.424C162.417 81.5199 162.396 81.6173 162.345 81.6995C162.294 81.7817 162.216 81.8435 162.124 81.8743C162.032 81.9051 161.932 81.9031 161.842 81.8685ZM170.745 83.3583C170.686 83.3359 170.632 83.3002 170.589 83.254C170.546 83.2078 170.514 83.1524 170.495 83.0919C170.462 82.9859 170.473 82.8712 170.524 82.7729C170.575 82.6746 170.663 82.6005 170.769 82.5669C171.726 82.2674 172.628 81.8144 173.439 81.2254C173.484 81.193 173.534 81.1697 173.587 81.1569C173.641 81.144 173.696 81.1418 173.75 81.1504C173.805 81.159 173.857 81.1783 173.904 81.207C173.95 81.2358 173.991 81.2735 174.023 81.3181C174.056 81.3626 174.079 81.413 174.092 81.4665C174.104 81.52 174.106 81.5755 174.098 81.6298C174.089 81.6841 174.07 81.7362 174.041 81.7831C174.012 81.83 173.975 81.8707 173.93 81.903C173.046 82.5458 172.062 83.0399 171.019 83.3658C170.927 83.3961 170.83 83.3908 170.745 83.3583ZM175.657 82.6905C175.559 82.653 175.479 82.5801 175.432 82.4861C174.984 81.5771 174.43 80.7241 173.782 79.9449C173.747 79.9027 173.72 79.854 173.704 79.8016C173.688 79.7492 173.682 79.694 173.687 79.6393C173.692 79.5846 173.708 79.5314 173.733 79.4828C173.759 79.4342 173.794 79.3911 173.836 79.356C173.878 79.3208 173.927 79.2943 173.979 79.2779C174.031 79.2616 174.086 79.2557 174.141 79.2606C174.195 79.2654 174.248 79.281 174.297 79.3065C174.346 79.3319 174.389 79.3666 174.424 79.4087C175.113 80.2391 175.703 81.1473 176.181 82.1149C176.283 82.3212 176.2 82.5741 175.992 82.6763C175.882 82.7281 175.762 82.7307 175.657 82.6905ZM162.831 76.7436C162.758 76.715 162.694 76.6663 162.647 76.6031C162.599 76.54 162.571 76.4648 162.565 76.3863C162.558 76.3077 162.574 76.229 162.61 76.159C162.647 76.0891 162.702 76.0307 162.77 75.9906C163.697 75.4497 164.775 75.1632 165.972 75.1401C166.027 75.139 166.081 75.1488 166.133 75.1689C166.184 75.189 166.23 75.219 166.27 75.2571C166.309 75.2952 166.341 75.3408 166.363 75.3911C166.384 75.4415 166.396 75.4957 166.397 75.5505C166.398 75.6054 166.388 75.66 166.368 75.7111C166.348 75.7623 166.318 75.8089 166.28 75.8485C166.242 75.888 166.196 75.9197 166.146 75.9416C166.096 75.9636 166.041 75.9754 165.987 75.9764C164.934 75.9969 163.994 76.244 163.191 76.7128C163.137 76.7447 163.077 76.7641 163.014 76.7694C162.952 76.7748 162.889 76.7659 162.831 76.7436ZM175.741 79.7428C175.706 79.7291 175.673 79.7115 175.643 79.6903C175.598 79.6578 175.561 79.6169 175.532 79.5698C175.504 79.5227 175.485 79.4705 175.476 79.416C175.468 79.3616 175.47 79.3061 175.484 79.2526C175.497 79.1991 175.52 79.1488 175.553 79.1044C176.122 78.327 176.61 77.4338 177.002 76.4512C177.043 76.3492 177.122 76.2673 177.223 76.2231C177.323 76.1789 177.437 76.1759 177.54 76.2148L177.545 76.2167C177.648 76.2579 177.73 76.3382 177.774 76.4401C177.818 76.542 177.819 76.6571 177.778 76.7601C177.359 77.809 176.838 78.7645 176.226 79.5989C176.172 79.6727 176.095 79.7268 176.008 79.7528C175.92 79.7789 175.826 79.7753 175.741 79.7428ZM171.668 77.9324C171.634 77.9191 171.602 77.9019 171.573 77.8811C170.734 77.2781 169.835 76.8045 168.914 76.4794C168.809 76.4422 168.724 76.365 168.676 76.2648C168.629 76.1646 168.623 76.0496 168.66 75.9451C168.678 75.8932 168.706 75.8455 168.743 75.8046C168.78 75.7637 168.824 75.7305 168.874 75.7068C168.923 75.6831 168.977 75.6695 169.032 75.6667C169.087 75.6638 169.142 75.6719 169.194 75.6903C170.189 76.0419 171.16 76.5525 172.062 77.2021C172.249 77.3376 172.292 77.5978 172.158 77.7863C172.043 77.9431 171.841 77.9987 171.668 77.9324ZM178.111 73.9828C178.019 73.9474 177.943 73.8808 177.895 73.7946C177.848 73.7085 177.832 73.6084 177.852 73.5119C178.037 72.5592 178.162 71.529 178.223 70.4531C178.229 70.3423 178.279 70.2385 178.362 70.1644C178.445 70.0904 178.553 70.0521 178.664 70.0579C178.775 70.0643 178.879 70.1144 178.953 70.1972C179.027 70.28 179.065 70.3888 179.058 70.4996C178.996 71.6142 178.867 72.6803 178.672 73.6708C178.651 73.7798 178.588 73.8759 178.496 73.9381C178.404 74.0003 178.291 74.0234 178.182 74.0024C178.158 73.9984 178.134 73.9918 178.111 73.9828ZM178.499 67.7311C178.423 67.7019 178.357 67.6513 178.31 67.5855C178.262 67.5196 178.235 67.4414 178.231 67.3603C178.182 66.3258 178.093 65.2937 177.963 64.2663C177.949 64.1561 177.98 64.0451 178.048 63.9574C178.116 63.8696 178.215 63.8123 178.325 63.7978C178.436 63.7842 178.546 63.8148 178.634 63.8828C178.722 63.9509 178.779 64.0508 178.793 64.1608C178.928 65.2493 179.021 66.3108 179.066 67.3202C179.069 67.3896 179.055 67.4586 179.025 67.5212C178.995 67.5838 178.95 67.6379 178.893 67.6786C178.837 67.7194 178.772 67.7455 178.703 67.7546C178.634 67.7638 178.564 67.7557 178.499 67.7311ZM177.676 61.5179C177.613 61.4937 177.556 61.4546 177.511 61.4038C177.467 61.3531 177.435 61.2922 177.419 61.2264C177.173 60.2289 176.863 59.2483 176.491 58.2904C176.451 58.1869 176.453 58.0715 176.498 57.9697C176.542 57.868 176.625 57.7881 176.729 57.7477C176.78 57.7276 176.835 57.7178 176.89 57.7189C176.945 57.7199 176.999 57.7318 177.049 57.7539C177.099 57.776 177.145 57.8078 177.183 57.8475C177.221 57.8872 177.25 57.934 177.27 57.9852C177.655 58.9771 177.976 59.9927 178.231 61.0258C178.249 61.0999 178.247 61.1776 178.224 61.2505C178.201 61.3233 178.159 61.3886 178.102 61.4392C178.045 61.4898 177.975 61.5239 177.9 61.5378C177.825 61.5516 177.747 61.5448 177.676 61.5179ZM175.419 55.6873C175.325 55.6515 175.248 55.5831 175.2 55.4948C174.711 54.5888 174.172 53.7108 173.584 52.8652C173.553 52.8201 173.531 52.7692 173.519 52.7155C173.507 52.6618 173.506 52.6063 173.516 52.5522C173.526 52.4982 173.546 52.4465 173.576 52.4003C173.606 52.3541 173.644 52.3143 173.69 52.283C173.879 52.1509 174.14 52.1967 174.271 52.3875C174.877 53.2589 175.433 54.1638 175.936 55.0979C175.962 55.1463 175.979 55.1994 175.984 55.2541C175.99 55.3088 175.985 55.364 175.969 55.4167C175.953 55.4693 175.927 55.5184 175.892 55.5609C175.857 55.6035 175.814 55.6387 175.766 55.6647C175.713 55.6934 175.655 55.7102 175.595 55.7142C175.535 55.7181 175.475 55.7089 175.419 55.6873ZM111.667 27.7478C111.588 27.7176 111.521 27.6645 111.473 27.5953C111.425 27.5261 111.399 27.4441 111.398 27.36C111.398 27.2491 111.441 27.1424 111.519 27.0633C111.596 26.9841 111.702 26.9389 111.813 26.9374C112.72 26.9304 113.784 26.967 114.979 27.0464C115.034 27.05 115.087 27.0645 115.136 27.0888C115.186 27.1132 115.23 27.147 115.266 27.1884C115.302 27.2297 115.329 27.2778 115.347 27.3298C115.364 27.3818 115.372 27.4368 115.368 27.4916C115.36 27.6023 115.309 27.7055 115.226 27.7786C115.142 27.8517 115.033 27.8888 114.923 27.8817C113.749 27.8049 112.703 27.7683 111.819 27.7762C111.767 27.7763 111.715 27.7667 111.667 27.7478ZM171.858 50.5367C171.793 50.5119 171.736 50.471 171.691 50.418C171.019 49.6336 170.312 48.8792 169.574 48.157C169.535 48.1186 169.503 48.0728 169.482 48.0223C169.46 47.9718 169.449 47.9176 169.448 47.8627C169.448 47.8078 169.458 47.7534 169.479 47.7025C169.499 47.6516 169.53 47.6053 169.568 47.5662C169.606 47.5268 169.652 47.4954 169.702 47.4738C169.753 47.4521 169.807 47.4407 169.862 47.4401C169.917 47.4395 169.971 47.4497 170.022 47.4702C170.073 47.4907 170.119 47.5211 170.158 47.5596C170.914 48.2996 171.637 49.0717 172.326 49.8738C172.386 49.9446 172.421 50.0334 172.426 50.1263C172.43 50.2192 172.403 50.3109 172.35 50.3869C172.296 50.4629 172.219 50.5189 172.13 50.546C172.041 50.5732 171.945 50.5699 171.858 50.5367ZM117.927 28.1293C117.841 28.0962 117.768 28.0355 117.72 27.9566C117.672 27.8778 117.652 27.7853 117.662 27.6936C117.667 27.639 117.684 27.586 117.71 27.5377C117.736 27.4894 117.772 27.4468 117.815 27.4123C117.858 27.3778 117.907 27.3521 117.959 27.3367C118.012 27.3213 118.068 27.3165 118.122 27.3226C119.127 27.4302 120.178 27.5592 121.247 27.7083C121.302 27.7159 121.354 27.7342 121.402 27.762C121.449 27.7899 121.49 27.8268 121.523 27.8706C121.557 27.9145 121.581 27.9644 121.594 28.0176C121.608 28.0708 121.611 28.1262 121.604 28.1806C121.596 28.2351 121.578 28.2876 121.55 28.335C121.523 28.3825 121.486 28.424 121.442 28.4572C121.398 28.4904 121.348 28.5146 121.295 28.5285C121.242 28.5424 121.186 28.5456 121.132 28.5381C120.1 28.3948 119.066 28.2674 118.031 28.1559C117.995 28.1513 117.96 28.1424 117.927 28.1293ZM167.394 46.144C167.351 46.1274 167.31 46.1038 167.275 46.074C166.481 45.4087 165.665 44.7697 164.829 44.1579C164.74 44.0923 164.68 43.994 164.663 43.8844C164.646 43.7749 164.674 43.6631 164.739 43.5736C164.804 43.4841 164.902 43.4243 165.012 43.4071C165.121 43.39 165.233 43.4169 165.322 43.4821C166.174 44.1046 167.004 44.755 167.813 45.4323C167.888 45.496 167.939 45.5844 167.956 45.682C167.973 45.7796 167.955 45.8799 167.904 45.9653C167.854 46.0506 167.775 46.1154 167.682 46.1481C167.588 46.1808 167.486 46.1794 167.394 46.144ZM124.141 28.984C124.044 28.9468 123.964 28.8751 123.917 28.7827C123.87 28.6903 123.859 28.5837 123.887 28.4837C123.914 28.3837 123.977 28.2973 124.064 28.2413C124.152 28.1853 124.256 28.1637 124.359 28.1806C125.38 28.3488 126.422 28.5346 127.456 28.732C127.565 28.7531 127.661 28.8164 127.723 28.9082C127.786 28.9999 127.809 29.1125 127.789 29.2215C127.768 29.3305 127.705 29.4268 127.613 29.4893C127.521 29.5519 127.409 29.5756 127.3 29.5554C126.276 29.3607 125.25 29.1781 124.221 29.0075C124.194 29.0022 124.167 28.9943 124.141 28.984ZM130.301 30.1579C130.208 30.1222 130.13 30.0541 130.083 29.9661C130.035 29.8781 130.021 29.776 130.043 29.6784C130.066 29.5699 130.132 29.4751 130.225 29.4149C130.319 29.3546 130.432 29.3339 130.54 29.3571C131.564 29.5769 132.596 29.8109 133.608 30.0547C133.662 30.0673 133.712 30.0904 133.757 30.1226C133.801 30.1548 133.839 30.1956 133.868 30.2425C133.897 30.2895 133.916 30.3416 133.924 30.396C133.932 30.4503 133.93 30.5058 133.917 30.5592C133.891 30.667 133.823 30.7602 133.729 30.8182C133.634 30.8762 133.52 30.8944 133.413 30.8686C132.399 30.6255 131.383 30.3942 130.364 30.1747C130.342 30.1716 130.321 30.166 130.301 30.1579ZM162.343 42.4361C162.316 42.4255 162.291 42.4126 162.266 42.3974C161.394 41.835 160.508 41.2942 159.609 40.7752C159.513 40.7198 159.443 40.6285 159.414 40.5215C159.385 40.4145 159.4 40.3004 159.455 40.2043C159.483 40.1565 159.519 40.1147 159.563 40.0811C159.606 40.0475 159.656 40.0229 159.709 40.0086C159.762 39.9942 159.818 39.9906 159.872 39.9977C159.927 40.0049 159.98 40.0227 160.027 40.0503C160.939 40.5749 161.837 41.123 162.721 41.6941C162.814 41.7544 162.88 41.8491 162.903 41.9576C162.926 42.066 162.906 42.1793 162.846 42.2725C162.793 42.3528 162.714 42.4128 162.623 42.4425C162.532 42.4723 162.433 42.47 162.343 42.4361ZM136.399 31.6211C136.303 31.5838 136.224 31.5123 136.177 31.4203C136.13 31.3283 136.119 31.2223 136.145 31.1225C136.173 31.0153 136.243 30.9239 136.339 30.8681C136.434 30.8123 136.548 30.7968 136.656 30.825C137.669 31.0936 138.679 31.3751 139.686 31.6694C139.791 31.7018 139.879 31.7744 139.932 31.8713C139.984 31.9683 139.996 32.0819 139.965 32.1876C139.934 32.2933 139.862 32.3826 139.766 32.4361C139.67 32.4896 139.557 32.5031 139.45 32.4737C138.451 32.1821 137.447 31.9026 136.44 31.6351C136.427 31.6302 136.412 31.6262 136.399 31.6211ZM156.914 39.2999C156.899 39.2945 156.885 39.2882 156.871 39.2812C155.948 38.8035 155.015 38.3447 154.073 37.905C154.023 37.8818 153.978 37.8489 153.941 37.8083C153.904 37.7677 153.875 37.7201 153.856 37.6684C153.838 37.6166 153.83 37.5617 153.832 37.5067C153.835 37.4518 153.849 37.3979 153.872 37.3483C153.895 37.2984 153.928 37.2535 153.969 37.2163C154.009 37.1792 154.057 37.1504 154.109 37.1317C154.16 37.1129 154.215 37.1046 154.27 37.1073C154.325 37.1099 154.379 37.1233 154.429 37.1469C155.38 37.5926 156.323 38.0565 157.257 38.5383C157.355 38.5894 157.429 38.6775 157.463 38.7831C157.496 38.8888 157.486 39.0035 157.436 39.102C157.388 39.1933 157.309 39.2639 157.213 39.3004C157.117 39.3369 157.01 39.3367 156.914 39.2999ZM142.416 33.3795C142.316 33.341 142.235 33.2658 142.189 33.1693C142.143 33.0729 142.135 32.9624 142.168 32.8606C142.201 32.755 142.276 32.6672 142.374 32.6163C142.472 32.5655 142.587 32.5557 142.693 32.5892C143.691 32.9097 144.686 33.2439 145.675 33.5916C145.78 33.6295 145.865 33.7069 145.912 33.8069C145.96 33.907 145.967 34.0218 145.931 34.1266C145.894 34.2313 145.818 34.3172 145.718 34.3654C145.618 34.4136 145.503 34.4202 145.398 34.3838C144.416 34.0378 143.429 33.7062 142.437 33.3893C142.431 33.3851 142.424 33.3828 142.416 33.3795ZM151.237 36.6403L151.222 36.6345C150.264 36.2278 149.3 35.8375 148.329 35.4636C148.225 35.4234 148.142 35.3438 148.097 35.2423C148.052 35.1407 148.049 35.0255 148.089 34.9218C148.109 34.8706 148.138 34.8238 148.176 34.7841C148.214 34.7443 148.259 34.7124 148.309 34.6901C148.359 34.6679 148.413 34.6557 148.468 34.6544C148.523 34.653 148.577 34.6625 148.628 34.6822L148.63 34.6827C149.609 35.0604 150.583 35.4547 151.549 35.8652C151.6 35.8866 151.645 35.9178 151.684 35.957C151.722 35.9961 151.753 36.0425 151.773 36.0934C151.793 36.1443 151.804 36.1987 151.803 36.2536C151.803 36.3084 151.791 36.3626 151.77 36.4131C151.728 36.5126 151.649 36.5919 151.549 36.6343C151.45 36.6766 151.338 36.6788 151.237 36.6403Z" fill="#E1E4E5"/>
<path fill-rule="evenodd" clip-rule="evenodd" d="M100.402 49.0047C99.1993 47.5739 96.3492 47.3235 94.4853 49.171C93.2815 50.3645 93.0839 51.7228 93.3228 52.6701C93.3345 52.7168 93.345 52.7639 93.3541 52.8115L98.3691 79.0253C99.5353 84.3673 103.779 88.585 109.194 89.7465L135.638 94.7184L135.645 94.7198L135.662 94.7231C137.035 94.9954 138.5 94.4347 139.353 93.5891C141.106 91.8507 141.106 89.3709 139.353 87.6328L100.555 49.171C100.502 49.1178 100.45 49.0623 100.402 49.0047ZM88.4592 50.0404L69.2461 69.2536C64.7747 73.7249 64.7747 80.5502 69.2461 85.0215L99.5519 115.327C100.527 116.302 102.107 116.302 103.082 115.327C103.112 115.298 103.14 115.269 103.167 115.238L105.449 117.495L107.313 116.116L118.317 116.995L119.539 115.637C120.52 116.485 122.004 116.443 122.935 115.512L139.066 99.3809C137.713 99.7955 136.219 99.9213 134.704 99.6233L108.242 94.6482C108.223 94.6445 108.203 94.6406 108.184 94.6365C100.843 93.0769 95.0619 87.3579 93.4827 80.0522C93.4785 80.0328 93.4745 80.0134 93.4708 79.9939L88.4623 53.8139C88.1732 52.6157 88.1617 51.3212 88.4592 50.0404Z" fill="#FCAE17"/>
<path d="M106.209 27.1182L106.27 29.9476L91.0156 31.0884L106.209 27.1182Z" fill="white"/>
<path d="M105.946 33.1121L103.899 35.1248L91.7021 31.0256L105.946 33.1121Z" fill="#FCAE17"/>
<path d="M91.0156 31.0884L113.083 35.4902L108.016 29.5295L91.0156 31.0884Z" fill="#FCAE17"/>
<path d="M106.21 27.1185L91.0158 31.0886L103.19 23.0883L106.21 27.1185ZM161.783 118.085C156.827 118.178 155.516 118.569 150.371 118.408C147.921 118.431 145.306 118.362 142.911 118.316C141.772 118.016 139.769 118.316 138.418 118.062L137.9 118.223C137.437 118.131 136.895 118.085 136.423 118.178L136.455 118.223C135.764 118.108 134.978 118.178 134.641 118.108L134.672 118.154L133.832 118.131L133.973 118.2C132.764 118.062 131.523 118.062 130.423 118.108L130.517 117.901C128.169 118.131 127.313 117.716 125.201 117.97L125.232 118.016C122.554 117.486 121.007 118.385 118.25 117.878C118.596 117.947 118.101 117.97 118.132 118.039C116.86 117.993 115.509 117.947 115.485 117.555C114.559 117.555 114.732 117.67 114.614 117.832C114.622 117.67 113.813 117.578 113.09 117.578L113.42 117.647L111.347 117.578L111.755 117.255C110.655 117.348 111.472 117.647 110.428 117.578L110.443 117.301C108.928 117.348 108.032 117.762 106.564 117.97C100.454 118.085 93.8879 117.394 88.2097 117.878L87.9584 118.085C87.8485 118.385 86.3876 117.647 86.1755 117.924L85.5159 117.786C85.3274 117.831 84.9347 117.901 85.2646 117.97C84.6521 117.993 84.6362 117.924 84.1966 117.855L83.5368 118.039C81.1257 118.178 79.0759 117.832 76.5391 117.901C73.492 118.27 67.7511 117.924 64.4445 117.739C59.7953 117.301 54.3918 118.477 49.6325 117.97C49.4755 118.016 49.0751 117.924 49.0828 117.878L44.7241 117.924C44.7241 117.924 23.6056 118.039 39.6505 115.572L39.5406 115.503C41.9281 115.342 43.4282 115.319 45.0697 115.641C45.3289 115.249 47.0252 115.595 47.5829 115.48L47.5278 115.457C48.9808 115.757 50.5201 115.203 51.9259 115.48C51.8709 115.457 51.8396 115.342 51.5176 115.342C52.5384 115.388 53.9363 115.48 54.015 115.249C56.4575 115.319 59.8581 115.203 61.421 115.572L61.3111 115.503C62.1984 115.757 62.4654 115.549 63.4629 115.665C63.5179 115.641 63.5886 115.618 63.5728 115.595C64.5467 115.849 66.408 115.641 67.1855 115.734L67.2326 115.572L69.1646 115.618L68.4422 115.641C68.6935 116.056 69.9029 115.365 71.3008 115.641C72.6123 115.595 73.9633 116.518 75.3218 116.31C75.9737 116.518 74.7485 115.987 75.7224 116.149C75.7539 115.918 75.267 116.01 75.5183 115.826C76.4686 115.941 77.0811 115.595 78.2592 115.757L78.3064 115.595C79.8377 115.918 81.1964 115.365 82.2175 115.665C83.796 115.803 83.2775 115.157 84.927 115.48L85.571 115.249C86.2777 115.203 86.0736 115.526 86.859 115.411C86.8118 115.273 87.8485 115.296 87.3851 115.157C89.1522 114.927 90.9743 115.48 93.3067 115.088C93.8095 115.365 94.9874 115.203 95.3644 115.411C95.4272 115.296 97.7127 115.388 96.4011 115.111C96.2912 115.088 96.0871 115.088 96.1027 115.134L95.9457 114.973C97.2729 114.65 98.3567 115.157 99.676 115.088C99.2835 115.134 98.765 115.134 99.1106 115.249L100.336 115.226L100.085 115.088L101.906 114.996L101.655 115.18C102.543 115.088 102.857 114.788 103.862 115.042C104.318 115.18 103.022 115.273 103.956 115.342C105.15 115.226 106.933 115.042 108.449 114.996C108.307 115.203 108.716 115.18 109.14 115.226L109.187 115.065C110.797 115.296 109.776 114.696 111.378 114.881L111.237 114.765L111.661 115.134C113.106 115.48 112.438 114.788 114.04 115.249C113.404 115.226 113.742 115.618 114.519 115.549L114.323 115.388C114.755 115.434 114.897 115.503 115.187 115.457C114.928 115.365 115.054 115.226 115.69 115.249L115.266 115.042L116.467 115.342C117.394 115.157 118.863 115.388 119.248 115.157C119.248 115.157 121.242 115.042 121.698 115.296C121.297 115.134 122.397 115.065 122.083 114.881C122.601 115.065 124.124 115.203 124.737 115.019L124.619 114.996C126.881 114.788 128.483 115.272 130.51 115.019C130.415 115.226 131.491 115.111 131.224 115.365C133.321 115.618 135.049 114.835 135.811 115.641C136.769 115.688 136.942 115.457 137.437 115.411L137.209 115.365C138.999 115.434 139.518 115.434 140.845 115.411C141.505 115.48 141.615 115.849 142.8 115.757C142.416 115.618 142.903 115.641 143.342 115.641C143.06 115.618 142.973 115.572 143.555 115.457C143.633 115.503 143.766 115.526 143.884 115.549C143.892 115.549 143.916 115.526 143.9 115.503C144.638 115.549 144.513 115.595 144.167 115.618C144.183 115.641 144.159 115.665 144.049 115.71C144.819 115.526 146.193 115.734 146.288 115.48C148.518 115.549 150.112 115.803 151.966 115.895C152.178 115.757 151.738 115.641 151.204 115.595L152.523 115.641C152.515 115.457 151.769 115.526 151.361 115.503C152.932 115.203 154.597 115.803 156.435 115.526L156.819 115.665L156.929 115.641C156.921 115.71 157.338 115.826 157.605 115.849C157.864 115.688 157.589 115.48 158.5 115.48C159.222 115.319 160.542 115.549 161.484 115.641C160.974 115.665 161.139 115.757 161.359 115.826C161.814 115.826 162.073 115.665 162.427 115.734L162.474 115.526C162.293 115.734 163.66 115.757 163.833 115.826C164.092 115.665 163.126 115.688 163.016 115.572C164.838 115.595 163.927 115.572 165.757 115.595C166.731 115.757 165.576 115.803 166.047 115.987C166.903 116.033 167.744 116.172 168.733 116.056L168.419 116.241C170.037 116.402 171.003 116.379 172.087 116.172C184.119 117.739 174.624 118.316 174.624 118.316C169.864 118.8 167.422 118.247 161.783 118.085Z" fill="#FCAE17"/>
<path d="M155.744 71.8043C154.708 72.4028 153.382 72.0476 152.784 71.0109C152.185 69.9743 152.54 68.6487 153.577 68.0502C154.614 67.4517 155.939 67.8068 156.538 68.8435C157.136 69.8802 156.781 71.2058 155.744 71.8043Z" fill="#664F23"/>
<path d="M52.5335 97.0667C53.951 97.0667 55.1001 98.2158 55.1001 99.6333C55.1001 101.051 53.951 102.2 52.5335 102.2C51.1159 102.2 49.9668 101.051 49.9668 99.6333C49.9668 98.2158 51.1159 97.0667 52.5335 97.0667Z" fill="#664F23"/>
<path d="M75.7474 47.3667C74.7822 47.3667 73.9998 48.1491 73.9998 49.1143C73.9998 50.0795 74.7822 50.862 75.7474 50.862C76.7127 50.862 77.4951 50.0795 77.4951 49.1143C77.4951 48.1491 76.7127 47.3667 75.7474 47.3667Z" fill="#E1E4E5"/>
<path d="M64.8986 97.0398C64.0024 97.0398 63.2758 97.7664 63.2758 98.6627C63.2758 99.5589 64.0024 100.285 64.8986 100.285C65.7949 100.285 66.5215 99.5589 66.5215 98.6627C66.5215 97.7664 65.7949 97.0398 64.8986 97.0398Z" fill="#E1E4E5"/>
<path d="M42.1799 70.0775C41.2836 70.0775 40.5571 70.804 40.5571 71.7003C40.5571 72.5966 41.2836 73.3231 42.1799 73.3231C43.0762 73.3231 43.8027 72.5966 43.8027 71.7003C43.8027 70.804 43.0762 70.0775 42.1799 70.0775Z" fill="#E1E4E5"/>
<path d="M55.1927 49.4811C57.5557 49.4811 59.4713 51.3967 59.4713 53.7598C59.4713 56.1228 57.5557 58.0384 55.1927 58.0384C52.8297 58.0384 50.9141 56.1228 50.9141 53.7598C50.9141 51.3967 52.8297 49.4811 55.1927 49.4811Z" fill="#FCAE17"/>
<path d="M122.618 46.6347C123.404 47.4206 124.678 47.4206 125.464 46.6347C126.25 45.8489 126.25 44.5748 125.464 43.7889C124.678 43.0031 123.404 43.0031 122.618 43.7889C121.832 44.5748 121.832 45.8489 122.618 46.6347Z" fill="#E1E4E5"/>
<path d="M152.105 91.1894C150.697 89.7816 150.697 87.4992 152.105 86.0915C153.513 84.6837 155.795 84.6837 157.203 86.0915C158.611 87.4992 158.611 89.7816 157.203 91.1894C155.795 92.5971 153.513 92.5971 152.105 91.1894Z" fill="#FCAE17"/>
</g>
</g>
<defs>
<linearGradient id="paint0_linear_2884_30211" x1="55.2377" y1="162.607" x2="169.675" y2="-12.7839" gradientUnits="userSpaceOnUse">
<stop stop-color="white"/>
<stop offset="1" stop-color="#EEEEEE"/>
</linearGradient>
<linearGradient id="paint1_linear_2884_30211" x1="123.749" y1="73.7718" x2="165.56" y2="32.9511" gradientUnits="userSpaceOnUse">
<stop stop-color="white"/>
<stop offset="1" stop-color="#EEEEEE"/>
</linearGradient>
<clipPath id="clip0_2884_30211">
<rect width="210" height="140" fill="white" transform="translate(0.5)"/>
</clipPath>
</defs>
</svg>
