<svg width="660" height="440" viewBox="0 0 660 440" fill="none" xmlns="http://www.w3.org/2000/svg">
<path d="M542.13 101.793H151.823C140.482 101.793 131.289 110.979 131.289 122.311V352.175C131.289 363.507 140.482 372.693 151.823 372.693H542.13C553.47 372.693 562.663 363.507 562.663 352.175V122.311C562.663 110.979 553.47 101.793 542.13 101.793Z" fill="white" stroke="#E1E4E5" stroke-width="4"/>
<path d="M501.017 121.709H471.123C466.429 121.709 462.624 125.511 462.624 130.201C462.624 134.891 466.429 138.693 471.123 138.693H501.017C505.711 138.693 509.516 134.891 509.516 130.201C509.516 125.511 505.711 121.709 501.017 121.709Z" fill="white" stroke="#E1E4E5" stroke-width="4"/>
<path d="M437.906 121.709H408.011C403.318 121.709 399.513 125.511 399.513 130.201C399.513 134.891 403.318 138.693 408.011 138.693H437.906C442.599 138.693 446.404 134.891 446.404 130.201C446.404 125.511 442.599 121.709 437.906 121.709Z" fill="white" stroke="#E1E4E5" stroke-width="4"/>
<path d="M383.293 130.201C383.293 125.511 379.488 121.709 374.795 121.709C370.101 121.709 366.296 125.511 366.296 130.201C366.296 134.891 370.101 138.693 374.795 138.693C379.488 138.693 383.293 134.891 383.293 130.201Z" fill="white" stroke="#E1E4E5" stroke-width="4"/>
<path d="M185.206 279.42H243.181V300.637H267.599V279.42H282.579V258.97H267.599V179.939H235.632L185.206 259.324V279.42ZM243.653 258.97H210.92V258.027L242.709 207.756H243.653V258.97ZM346.953 303.288C377.327 303.288 395.669 280.186 395.729 240.406C395.787 200.92 377.209 178.289 346.953 178.289C316.639 178.289 298.237 200.861 298.178 240.406C298.06 280.068 316.521 303.229 346.953 303.288ZM346.953 282.131C333.094 282.131 324.129 268.223 324.188 240.406C324.247 213.002 333.153 199.211 346.953 199.211C360.695 199.211 369.66 213.002 369.66 240.406C369.719 268.223 360.755 282.131 346.953 282.131ZM412.11 279.42H470.086V300.637H494.503V279.42H509.483V258.97H494.503V179.939H462.536L412.11 259.324V279.42ZM470.557 258.97H437.824V258.027L469.614 207.756H470.557V258.97Z" fill="#E1E4E5"/>
<path d="M172.368 128.541C172.368 124.768 169.307 121.709 165.53 121.709C161.754 121.709 158.693 124.768 158.693 128.541C158.693 132.315 161.754 135.374 165.53 135.374C169.307 135.374 172.368 132.315 172.368 128.541Z" fill="white" stroke="#E1E4E5" stroke-width="4"/>
<path d="M136.912 284.109C141.704 284.109 145.589 287.991 145.589 292.78C145.589 297.569 141.704 301.451 136.912 301.451C132.119 301.451 128.234 297.569 128.234 292.78C128.234 287.991 132.119 284.109 136.912 284.109Z" fill="#FCAE17"/>
<path d="M569.363 190.491C563.551 193.844 556.12 191.854 552.765 186.047C549.41 180.24 551.401 172.814 557.212 169.461C563.024 166.109 570.455 168.098 573.81 173.905C577.166 179.713 575.175 187.138 569.363 190.491Z" fill="#FCAE17"/>
<path d="M342.33 139.171C337.328 139.171 333.274 135.119 333.274 130.121C333.274 125.124 337.328 121.072 342.33 121.072C347.331 121.072 351.385 125.124 351.385 130.121C351.385 135.119 347.331 139.171 342.33 139.171Z" fill="#E1E4E5"/>
<path d="M234.051 108.649C240.707 108.649 246.103 103.257 246.103 96.6058C246.103 89.9544 240.707 84.5625 234.051 84.5625C227.394 84.5625 221.998 89.9544 221.998 96.6058C221.998 103.257 227.394 108.649 234.051 108.649Z" fill="#FCAE17"/>
<path d="M406.35 315.243C400.847 315.243 396.385 319.701 396.385 325.2C396.385 330.7 400.847 335.158 406.35 335.158C411.854 335.158 416.315 330.7 416.315 325.2C416.315 319.701 411.854 315.243 406.35 315.243Z" fill="#FCAE17"/>
<path d="M222.024 353.463C216.965 353.463 212.865 349.365 212.865 344.311C212.865 339.256 216.965 335.158 222.024 335.158C227.083 335.158 231.183 339.256 231.183 344.311C231.183 349.365 227.083 353.463 222.024 353.463Z" fill="#E1E4E5"/>
<path d="M313.696 310.374C316.979 312.268 318.104 316.463 316.208 319.743C314.313 323.024 310.115 324.148 306.832 322.254C303.549 320.36 302.424 316.165 304.32 312.884C306.215 309.604 310.413 308.48 313.696 310.374Z" fill="#E1E4E5"/>
<path d="M540.069 119.794L527.584 132.269C527.129 132.723 527.129 133.46 527.584 133.914C528.039 134.369 528.776 134.369 529.231 133.914L541.715 121.439C542.17 120.985 542.17 120.248 541.715 119.794C541.261 119.339 540.523 119.339 540.069 119.794Z" fill="#E1E4E5"/>
<path d="M538.847 128.726L535.247 132.324C534.792 132.778 534.792 133.515 535.247 133.969C535.701 134.423 536.438 134.423 536.893 133.969L540.493 130.371C540.948 129.917 540.948 129.18 540.494 128.726C540.039 128.272 539.302 128.272 538.847 128.726Z" fill="#E1E4E5"/>
<path d="M155.017 340.042L143.845 351.206C143.438 351.612 143.438 352.271 143.845 352.677L143.845 352.678C144.252 353.084 144.911 353.084 145.318 352.678L156.49 341.515C156.896 341.108 156.896 340.449 156.49 340.043L156.489 340.042C156.083 339.636 155.423 339.636 155.017 340.042Z" fill="#E1E4E5"/>
<path d="M153.923 348.035L150.701 351.254C150.294 351.661 150.294 352.32 150.701 352.726L150.701 352.727C151.108 353.133 151.767 353.133 152.174 352.727L155.396 349.507C155.803 349.1 155.803 348.442 155.396 348.035L155.396 348.035C154.989 347.628 154.33 347.628 153.923 348.035Z" fill="#E1E4E5"/>
<path d="M100.877 122.952L122.473 101.372C123.259 100.586 123.259 99.3122 122.473 98.5264C121.686 97.7405 120.411 97.7405 119.625 98.5264L98.0291 120.106C97.2427 120.892 97.2427 122.166 98.0291 122.952C98.8155 123.738 100.091 123.738 100.877 122.952Z" fill="#E1E4E5"/>
<path d="M102.992 107.5L109.22 101.276C110.006 100.491 110.006 99.2165 109.22 98.4307C108.433 97.6448 107.158 97.6448 106.372 98.4307L100.144 104.654C99.3574 105.44 99.3574 106.714 100.144 107.5C100.93 108.286 102.205 108.286 102.992 107.5Z" fill="#E1E4E5"/>
<path d="M529.768 355.08L544.971 339.888C545.524 339.335 545.524 338.438 544.971 337.885C544.417 337.332 543.52 337.332 542.966 337.885L527.763 353.077C527.209 353.63 527.209 354.527 527.763 355.08C528.316 355.633 529.214 355.633 529.768 355.08Z" fill="#E1E4E5"/>
<path d="M531.256 344.205L535.641 339.824C536.194 339.271 536.194 338.374 535.641 337.821C535.087 337.268 534.19 337.267 533.636 337.821L529.251 342.202C528.698 342.755 528.698 343.652 529.251 344.205C529.805 344.759 530.702 344.759 531.256 344.205Z" fill="#E1E4E5"/>
<path fill-rule="evenodd" clip-rule="evenodd" d="M519.514 75.3105H521.937C522.523 75.3105 522.995 75.7868 522.995 76.3672V78.7883C522.995 79.3738 522.518 79.845 521.937 79.845H519.514C518.934 79.845 518.457 79.3686 518.457 78.7883V76.3672C518.457 76.2283 518.484 76.0908 518.537 75.9625C518.59 75.8341 518.668 75.7175 518.766 75.6193C518.864 75.5212 518.981 75.4433 519.109 75.3903C519.238 75.3373 519.376 75.3102 519.514 75.3105ZM527.915 75.3105H530.338C530.919 75.3105 531.395 75.7868 531.395 76.3672V78.7883C531.395 79.3738 530.919 79.845 530.338 79.845H527.915C527.334 79.845 526.857 79.3686 526.857 78.7883V76.3672C526.857 75.7868 527.334 75.3105 527.915 75.3105ZM536.321 75.3105H538.744C539.325 75.3105 539.802 75.7868 539.802 76.3672V78.7883C539.802 79.3738 539.325 79.845 538.744 79.845H536.321C535.74 79.845 535.264 79.3686 535.264 78.7883V76.3672C535.263 76.2283 535.29 76.0908 535.343 75.9625C535.396 75.8341 535.474 75.7175 535.573 75.6193C535.671 75.5212 535.788 75.4433 535.916 75.3903C536.044 75.3373 536.182 75.3102 536.321 75.3105ZM544.722 75.3105H547.145C547.726 75.3105 548.202 75.7868 548.202 76.3672V78.7883C548.202 79.3738 547.726 79.845 547.145 79.845H544.722C544.441 79.8448 544.172 79.7335 543.973 79.5356C543.774 79.3376 543.661 79.0689 543.659 78.7883V76.3672C543.663 76.087 543.776 75.8192 543.974 75.6216C544.173 75.4239 544.442 75.3122 544.722 75.3105ZM553.123 75.3105H555.546C556.132 75.3105 556.609 75.7868 556.609 76.3672V78.7883C556.609 79.3738 556.132 79.845 555.546 79.845H553.123C552.542 79.845 552.066 79.3686 552.066 78.7883V76.3672C552.066 75.7868 552.542 75.3105 553.123 75.3105ZM528.223 84.4644H530.646C531.227 84.4644 531.704 84.9407 531.704 85.5211V87.9473C531.704 88.5277 531.227 89.004 530.646 89.004H528.223C527.637 89.004 527.165 88.5277 527.165 87.9473V85.5262C527.164 85.387 527.191 85.2489 527.244 85.12C527.297 84.9912 527.374 84.874 527.473 84.7753C527.571 84.6766 527.688 84.5983 527.817 84.5449C527.945 84.4916 528.083 84.4642 528.223 84.4644ZM536.624 84.4644H539.047C539.628 84.4644 540.104 84.9407 540.104 85.5211V87.9473C540.104 88.5277 539.628 89.004 539.047 89.004H536.624C536.043 89.004 535.566 88.5277 535.566 87.9473V85.5262C535.565 85.387 535.592 85.2489 535.645 85.12C535.698 84.9912 535.776 84.874 535.874 84.7753C535.972 84.6766 536.089 84.5983 536.218 84.5449C536.346 84.4916 536.484 84.4642 536.624 84.4644ZM545.025 84.4644H547.448C548.034 84.4644 548.51 84.9407 548.51 85.5211V87.9473C548.509 88.228 548.396 88.4966 548.197 88.6946C547.998 88.8926 547.729 89.0038 547.448 89.004H545.025C544.444 89.004 543.967 88.5277 543.967 87.9473V85.5262C543.967 84.9407 544.444 84.4644 545.025 84.4644ZM536.321 65.4766H538.744C539.325 65.4766 539.802 65.9529 539.802 66.5332V68.9551C539.802 69.5398 539.325 70.0118 538.744 70.0118H536.321C535.74 70.0118 535.264 69.5354 535.264 68.9551V66.5332C535.263 66.3944 535.29 66.2569 535.343 66.1285C535.396 66.0002 535.474 65.8836 535.573 65.7854C535.671 65.6872 535.788 65.6094 535.916 65.5564C536.044 65.5034 536.182 65.4763 536.321 65.4766ZM544.722 65.4766H547.145C547.726 65.4766 548.202 65.9529 548.202 66.5332V68.9551C548.202 69.5398 547.726 70.0118 547.145 70.0118H544.722C544.441 70.0116 544.172 69.9003 543.973 69.7024C543.774 69.5044 543.661 69.2357 543.659 68.9551V66.5332C543.663 66.2531 543.776 65.9853 543.974 65.7876C544.173 65.59 544.442 65.4783 544.722 65.4766ZM81.8861 360.758H84.309C84.895 360.758 85.3665 361.235 85.3665 361.815V364.236C85.3665 364.822 84.8898 365.293 84.309 365.293H81.8861C81.3053 365.293 80.8286 364.817 80.8286 364.236V361.815C80.8283 361.676 80.8555 361.539 80.9085 361.41C80.9616 361.282 81.0394 361.165 81.1377 361.067C81.2359 360.969 81.3526 360.891 81.4811 360.838C81.6095 360.785 81.7471 360.758 81.8861 360.758ZM90.2864 360.758H92.7093C93.2909 360.758 93.7675 361.235 93.7675 361.815V364.236C93.7675 364.822 93.2909 365.293 92.7093 365.293H90.2864C89.7056 365.293 89.2289 364.817 89.2289 364.236V361.815C89.2289 361.235 89.7056 360.758 90.2864 360.758ZM98.6926 360.758H101.116C101.697 360.758 102.174 361.235 102.174 361.815V364.236C102.174 364.822 101.697 365.293 101.116 365.293H98.6926C98.1118 365.293 97.6352 364.817 97.6352 364.236V361.815C97.635 361.676 97.6622 361.539 97.7153 361.41C97.7683 361.282 97.8462 361.166 97.9444 361.067C98.0427 360.969 98.1593 360.891 98.2877 360.838C98.4161 360.785 98.5537 360.758 98.6926 360.758ZM107.094 360.758H109.517C110.097 360.758 110.574 361.235 110.574 361.815V364.236C110.574 364.822 110.097 365.293 109.517 365.293H107.094C106.813 365.293 106.543 365.181 106.344 364.983C106.145 364.785 106.033 364.517 106.031 364.236V361.815C106.034 361.535 106.147 361.267 106.346 361.069C106.545 360.872 106.813 360.76 107.094 360.758ZM115.495 360.758H117.918C118.504 360.758 118.98 361.235 118.98 361.815V364.236C118.98 364.822 118.504 365.293 117.918 365.293H115.495C114.914 365.293 114.437 364.817 114.437 364.236V361.815C114.437 361.235 114.914 360.758 115.495 360.758ZM90.5951 369.912H93.0181C93.5989 369.912 94.0756 370.389 94.0756 370.969V373.395C94.0756 373.976 93.5989 374.452 93.0181 374.452H90.5951C90.0092 374.452 89.5369 373.976 89.5369 373.395V370.974C89.5363 370.835 89.5631 370.697 89.616 370.568C89.6689 370.439 89.7468 370.322 89.8451 370.223C89.9434 370.125 90.0603 370.046 90.1891 369.993C90.3178 369.94 90.4558 369.912 90.5951 369.912ZM98.9955 369.912H101.418C101.999 369.912 102.476 370.389 102.476 370.969V373.395C102.476 373.976 101.999 374.452 101.418 374.452H98.9955C98.4147 374.452 97.938 373.976 97.938 373.395V370.974C97.9371 370.835 97.9639 370.697 98.0166 370.568C98.0694 370.439 98.1472 370.322 98.2455 370.223C98.3438 370.124 98.4607 370.046 98.5894 369.993C98.7181 369.939 98.8561 369.912 98.9955 369.912ZM107.397 369.912H109.819C110.405 369.912 110.882 370.389 110.882 370.969V373.395C110.881 373.676 110.768 373.945 110.569 374.142C110.37 374.34 110.1 374.452 109.819 374.452H107.397C106.816 374.452 106.339 373.976 106.339 373.395V370.974C106.339 370.389 106.816 369.912 107.397 369.912ZM98.6933 350.924H101.116C101.697 350.924 102.174 351.401 102.174 351.982V354.403C102.174 354.988 101.697 355.46 101.116 355.46H98.6933C98.1118 355.46 97.6352 354.983 97.6352 354.403V351.982C97.6349 351.843 97.662 351.705 97.7151 351.577C97.7682 351.448 97.8461 351.332 97.9444 351.233C98.0428 351.135 98.1595 351.057 98.2881 351.004C98.4166 350.951 98.5543 350.924 98.6933 350.924ZM107.094 350.924H109.517C110.097 350.924 110.574 351.401 110.574 351.982V354.403C110.574 354.988 110.097 355.46 109.517 355.46H107.094C106.813 355.459 106.543 355.348 106.344 355.15C106.145 354.952 106.033 354.684 106.031 354.403V351.982C106.034 351.702 106.147 351.434 106.346 351.236C106.545 351.038 106.813 350.926 107.094 350.924Z" fill="#E1E4E5"/>
<path fill-rule="evenodd" clip-rule="evenodd" d="M132.647 238.83C114.578 238.83 99.9277 223.984 99.9277 205.674C99.9277 187.364 114.578 172.52 132.647 172.52C150.716 172.52 165.366 187.364 165.366 205.674C165.366 223.984 150.716 238.83 132.647 238.83Z" fill="#FCAE17"/>
<path d="M145.829 191.605L132.007 206.341L123.708 197.501" stroke="white" stroke-width="7.405" stroke-linecap="round" stroke-linejoin="round"/>
<path d="M118.197 220.446L132.019 205.711L140.318 214.551" stroke="white" stroke-width="7.405" stroke-linecap="round" stroke-linejoin="round"/>
</svg>
