<svg width="20" height="21" viewBox="0 0 20 21" fill="none" xmlns="http://www.w3.org/2000/svg">
<path d="M10.0167 17.6083C8.07499 17.6083 6.13333 17.3 4.29166 16.6833C3.59166 16.4417 3.05833 15.95 2.82499 15.3083C2.58333 14.6667 2.66666 13.9583 3.04999 13.325L4.00833 11.7333C4.20833 11.4 4.39166 10.7333 4.39166 10.3417V7.93335C4.39166 4.83335 6.91666 2.30835 10.0167 2.30835C13.1167 2.30835 15.6417 4.83335 15.6417 7.93335V10.3417C15.6417 10.725 15.825 11.4 16.025 11.7417L16.975 13.325C17.3333 13.925 17.4 14.65 17.1583 15.3083C16.9167 15.9667 16.3917 16.4667 15.7333 16.6833C13.9 17.3 11.9583 17.6083 10.0167 17.6083ZM10.0167 3.55835C7.60833 3.55835 5.64166 5.51668 5.64166 7.93335V10.3417C5.64166 10.95 5.39166 11.85 5.08333 12.375L4.12499 13.9667C3.94166 14.275 3.89166 14.6 3.99999 14.875C4.09999 15.1583 4.34999 15.375 4.69166 15.4917C8.17499 16.6583 11.8667 16.6583 15.35 15.4917C15.65 15.3917 15.8833 15.1667 15.9917 14.8667C16.1 14.5667 16.075 14.2417 15.9083 13.9667L14.95 12.375C14.6333 11.8333 14.3917 10.9417 14.3917 10.3333V7.93335C14.3917 5.51668 12.4333 3.55835 10.0167 3.55835Z" fill="#999999"/>
<path d="M11.5667 3.78328C11.5083 3.78328 11.45 3.77494 11.3917 3.75828C11.15 3.69161 10.9167 3.64161 10.6917 3.60828C9.98333 3.51661 9.29999 3.56661 8.65833 3.75828C8.42499 3.83328 8.17499 3.75828 8.01666 3.58328C7.85833 3.40828 7.80833 3.15828 7.89999 2.93328C8.24166 2.05828 9.07499 1.48328 10.025 1.48328C10.975 1.48328 11.8083 2.04994 12.15 2.93328C12.2333 3.15828 12.1917 3.40828 12.0333 3.58328C11.9083 3.71661 11.7333 3.78328 11.5667 3.78328Z" fill="#999999"/>
<path d="M10.0167 19.5083C9.19166 19.5083 8.39166 19.175 7.80833 18.5916C7.225 18.0083 6.89166 17.2083 6.89166 16.3833H8.14166C8.14166 16.875 8.34166 17.3583 8.69166 17.7083C9.04166 18.0583 9.525 18.2583 10.0167 18.2583C11.05 18.2583 11.8917 17.4166 11.8917 16.3833H13.1417C13.1417 18.1083 11.7417 19.5083 10.0167 19.5083Z" fill="#999999"/>
</svg>
