<svg width="312" height="208" viewBox="0 0 312 208" fill="none" xmlns="http://www.w3.org/2000/svg">
<g clip-path="url(#clip0_5661_8178)">
<path d="M253.64 76.8536C251.951 58.5912 221.569 58.9205 221.569 58.9205C221.569 58.9205 196.275 85.9657 190.335 85.6814C184.395 85.3972 207.446 58.3336 207.446 58.3336C196.372 55.2854 165.263 64.0962 165.263 64.0962C165.263 64.0962 160.885 100.021 155.197 98.2828C149.509 96.5449 160.697 66.6695 160.697 66.6695C149.228 68.0437 136.841 78.9925 136.841 78.9925C120.519 97.49 145.115 117.495 145.115 117.495C145.115 117.495 143.329 129.912 133.232 142.754C133.232 142.754 131.056 145.071 128.531 149.214L131.502 149.732C131.874 148.993 132.277 148.271 132.711 147.567C132.713 147.561 132.714 147.558 132.72 147.553C132.727 147.543 132.731 147.534 132.739 147.524C133.021 147.101 133.43 146.496 133.933 145.766L133.934 145.763L133.935 145.76C135.151 144.139 135.996 142.934 136.546 142.055L136.55 142.046C140.242 136.939 145.425 130.352 148.304 129.283C148.304 129.283 148.055 128.763 147.904 127.81C148.032 128.279 148.162 128.77 148.304 129.283C151.493 141.068 176.613 147.31 191.29 146.868C205.966 146.426 200.486 141.355 193.983 133.541C187.48 125.726 171.195 124.655 166.916 121.289C162.636 117.924 169.98 116.582 179.304 118.952C188.623 121.323 191.706 131.591 206.713 135.7C221.72 139.809 238.343 113.125 238.343 113.125C227.236 114.563 209.352 105.459 209.257 101.701C209.163 97.9399 237.079 103.171 241.627 102.84C246.182 102.508 255.328 95.1163 253.64 76.8536Z" fill="url(#paint0_linear_5661_8178)"/>
<path d="M59.2852 46.2762C67.105 31.4458 92.6252 42.3717 92.6252 42.3717C92.6252 42.3717 104.497 74.0754 109.608 75.9172C114.72 77.7591 104.747 46.8253 104.747 46.8253C115.159 48.1326 138.321 66.4754 138.321 66.4754C138.321 66.4754 129.437 98.3476 134.844 98.8735C140.252 99.3994 141.274 70.2492 141.274 70.2492C150.469 75.4291 157.087 89.0164 157.087 89.0164C164.381 110.358 136.623 118.631 136.623 118.631C136.623 118.631 133.782 129.743 137.805 144.127C137.805 144.127 138.83 146.846 139.509 151.23L136.821 150.625C136.766 149.871 136.679 149.12 136.56 148.374C136.56 148.368 136.56 148.365 136.557 148.359C136.554 148.348 136.554 148.339 136.551 148.328C136.461 147.871 136.327 147.218 136.159 146.425V146.419C135.701 144.623 135.41 143.31 135.253 142.375V142.366C133.927 136.759 131.86 129.38 129.805 127.469C129.805 127.469 130.197 127.117 130.659 126.365C130.386 126.716 130.104 127.085 129.805 127.469C122.987 136.303 99.606 132.771 87.377 127.254C75.1484 121.737 81.5485 119.375 89.7718 115.055C97.9951 110.735 112.111 115.537 116.9 114.195C121.689 112.853 115.962 109.146 107.266 107.879C98.5726 106.616 92.3756 114.207 78.2746 112.417C64.1732 110.628 59.4915 82.2678 59.4915 82.2678C68.3589 87.3749 86.6369 85.9543 88.0333 82.8138C89.4293 79.6706 64.0429 74.3049 60.3214 72.4312C56.5944 70.5543 51.4655 61.1069 59.2852 46.2762Z" fill="url(#paint1_linear_5661_8178)"/>
<path d="M106.75 76.2011L101.61 53.1152H86.7429" stroke="#FCAE17" stroke-width="10.6999" stroke-linecap="round" stroke-linejoin="round"/>
<path fill-rule="evenodd" clip-rule="evenodd" d="M120.45 139.73L106.75 76.2011H205.166C210.119 76.2011 213.804 80.7432 212.77 85.5639L201.092 139.73C200.322 143.297 197.158 145.843 193.488 145.843H128.046C124.384 145.843 121.22 143.297 120.45 139.73Z" fill="#FCAE17" stroke="#FCAE17" stroke-width="10.6999" stroke-linecap="round" stroke-linejoin="round"/>
<path d="M190.224 165.947C188.153 165.947 186.472 167.628 186.492 169.698C186.492 171.769 188.173 173.449 190.244 173.449C192.315 173.449 193.995 171.769 193.995 169.698C193.985 167.628 192.305 165.947 190.224 165.947ZM130.206 165.947C128.135 165.947 126.455 167.628 126.475 169.698C126.465 171.769 128.145 173.449 130.216 173.449C132.287 173.449 133.968 171.769 133.968 169.698C133.968 167.628 132.287 165.947 130.206 165.947Z" stroke="#FCAE17" stroke-width="13.859" stroke-linecap="round" stroke-linejoin="round"/>
<path fill-rule="evenodd" clip-rule="evenodd" d="M237.185 130.068C229.748 130.068 223.718 124.038 223.718 116.601C223.718 109.164 229.748 103.134 237.185 103.134C244.622 103.134 250.651 109.164 250.651 116.601C250.651 124.038 244.622 130.068 237.185 130.068Z" fill="#FCAE17"/>
<path d="M241.417 114.677L235.888 120.064L232.568 116.833" stroke="white" stroke-width="2.26685" stroke-linecap="round" stroke-linejoin="round"/>
<path fill-rule="evenodd" clip-rule="evenodd" d="M246.227 86.2049C238.684 86.2049 232.568 80.003 232.568 72.3535C232.568 64.7039 238.684 58.5021 246.227 58.5021C253.77 58.5021 259.886 64.7039 259.886 72.3535C259.886 80.003 253.77 86.2049 246.227 86.2049Z" fill="#FCAE17"/>
<path d="M251.036 70.0447L245.266 76.2011L241.802 72.5078" stroke="white" stroke-width="2.26685" stroke-linecap="round" stroke-linejoin="round"/>
<path fill-rule="evenodd" clip-rule="evenodd" d="M69.0199 98.8274C61.5375 98.8274 55.4705 92.7604 55.4705 85.2779C55.4705 77.7951 61.5375 71.7285 69.0199 71.7285C76.5027 71.7285 82.5694 77.7951 82.5694 85.2779C82.5694 92.7604 76.5027 98.8274 69.0199 98.8274Z" fill="#FCAE17"/>
<path d="M73.5366 83.225L67.8922 88.973L64.5035 85.5247" stroke="white" stroke-width="2.26685" stroke-linecap="round" stroke-linejoin="round"/>
<path d="M186.011 94.6695H133.684C131.559 94.6695 129.836 96.3921 129.836 98.5171V100.056C129.836 102.181 131.559 103.904 133.684 103.904H186.011C188.136 103.904 189.859 102.181 189.859 100.056V98.5171C189.859 96.3921 188.136 94.6695 186.011 94.6695Z" fill="white"/>
<path d="M186.011 116.601H133.684C131.559 116.601 129.836 118.324 129.836 120.449V121.987C129.836 124.112 131.559 125.835 133.684 125.835H186.011C188.136 125.835 189.859 124.112 189.859 121.987V120.449C189.859 118.324 188.136 116.601 186.011 116.601Z" fill="white"/>
<path d="M171.556 51.4082C178.363 42.9856 175.123 29.0722 175.123 29.0722C175.123 29.0722 160.848 28.824 154.047 37.2528C147.24 45.6758 150.474 59.5826 150.474 59.5826C150.474 59.5826 164.75 59.8309 171.556 51.4082Z" fill="url(#paint2_linear_5661_8178)"/>
<path d="M255.876 93.5154H255.817C255.469 98.2658 251.806 98.3389 251.806 98.3389C251.806 98.3389 255.846 98.4148 255.846 103.904C255.846 98.4148 259.886 98.3389 259.886 98.3389C259.886 98.3389 256.223 98.2658 255.876 93.5154ZM139.293 47.7287H139.234C138.886 52.4791 135.223 52.5522 135.223 52.5522C135.223 52.5522 139.263 52.6282 139.263 58.1173C139.263 52.6282 143.303 52.5522 143.303 52.5522C143.303 52.5522 139.641 52.4791 139.293 47.7287ZM55.0302 58.1173H54.9712C54.6235 62.8676 50.96 62.9408 50.96 62.9408C50.96 62.9408 55 63.0167 55 68.5058C55 63.0167 59.0401 62.9408 59.0401 62.9408C59.0401 62.9408 55.3779 62.8676 55.0302 58.1173ZM221.519 139.549C219.206 140.229 216.123 141.599 214.462 144.094C212.802 146.59 214.995 147.19 217.821 146.582C220.646 145.974 223.391 144.222 224.421 141.901C225.451 139.58 223.418 138.99 221.519 139.549Z" fill="#E1E4E5"/>
<path fill-rule="evenodd" clip-rule="evenodd" d="M89.2674 142.12H90.2613C90.5019 142.12 90.6953 142.316 90.6953 142.554V143.548C90.6953 143.788 90.4998 143.982 90.2613 143.982H89.2674C89.1524 143.982 89.0423 143.936 88.961 143.854C88.8797 143.773 88.8338 143.663 88.8334 143.548V142.554C88.8333 142.497 88.8444 142.44 88.8662 142.388C88.888 142.335 88.92 142.287 88.9603 142.247C89.0006 142.206 89.0485 142.174 89.1012 142.153C89.1539 142.131 89.2104 142.12 89.2674 142.12ZM92.714 142.12H93.7082C93.9464 142.12 94.1419 142.316 94.1419 142.554V143.548C94.1419 143.788 93.9464 143.982 93.7082 143.982H92.714C92.599 143.982 92.4889 143.936 92.4077 143.854C92.3264 143.773 92.2805 143.663 92.2799 143.548V142.554C92.2799 142.316 92.4758 142.12 92.714 142.12ZM96.163 142.12H97.1572C97.3953 142.12 97.5909 142.316 97.5909 142.554V143.548C97.5909 143.788 97.3953 143.982 97.1572 143.982H96.163C96.048 143.982 95.9378 143.936 95.8565 143.854C95.7753 143.773 95.7294 143.663 95.7289 143.548V142.554C95.7288 142.497 95.74 142.44 95.7618 142.388C95.7836 142.335 95.8155 142.287 95.8558 142.247C95.8962 142.206 95.944 142.174 95.9967 142.153C96.0494 142.131 96.1059 142.12 96.163 142.12ZM99.6099 142.12H100.604C100.842 142.12 101.038 142.316 101.038 142.554V143.548C101.038 143.788 100.842 143.982 100.604 143.982H99.6099C99.4946 143.982 99.3841 143.936 99.3024 143.855C99.2208 143.774 99.1746 143.663 99.1741 143.548V142.554C99.1753 142.439 99.2216 142.329 99.3031 142.248C99.3847 142.166 99.4948 142.121 99.6099 142.12ZM103.057 142.12H104.051C104.291 142.12 104.487 142.316 104.487 142.554V143.548C104.487 143.788 104.291 143.982 104.051 143.982H103.057C102.942 143.982 102.832 143.936 102.75 143.854C102.669 143.773 102.623 143.663 102.623 143.548V142.554C102.623 142.316 102.818 142.12 103.057 142.12ZM92.8405 145.878H93.8347C94.0729 145.878 94.2684 146.074 94.2684 146.312V147.309C94.2684 147.547 94.0729 147.742 93.8347 147.742H92.8405C92.7254 147.742 92.6151 147.697 92.5337 147.615C92.4523 147.534 92.4066 147.424 92.4065 147.309V146.314C92.4061 146.257 92.4171 146.201 92.4387 146.148C92.4604 146.095 92.4923 146.047 92.5327 146.006C92.573 145.965 92.621 145.933 92.6738 145.911C92.7266 145.89 92.7833 145.878 92.8405 145.878ZM96.2874 145.878H97.2813C97.5198 145.878 97.7153 146.074 97.7153 146.312V147.309C97.7153 147.547 97.5198 147.742 97.2813 147.742H96.2874C96.1725 147.742 96.0623 147.696 95.981 147.615C95.8997 147.534 95.8538 147.424 95.8534 147.309V146.314C95.853 146.257 95.864 146.201 95.8856 146.148C95.9073 146.095 95.9392 146.047 95.9796 146.006C96.0199 145.965 96.0679 145.933 96.1207 145.911C96.1736 145.89 96.2302 145.878 96.2874 145.878ZM99.7343 145.878H100.728C100.969 145.878 101.164 146.074 101.164 146.312V147.309C101.164 147.547 100.969 147.742 100.728 147.742H99.7343C99.6194 147.742 99.5092 147.696 99.4279 147.615C99.3466 147.534 99.3007 147.424 99.3003 147.309V146.314C99.3003 146.074 99.4958 145.878 99.7343 145.878ZM96.163 138.082H97.1572C97.3953 138.082 97.5909 138.278 97.5909 138.516V139.51C97.5909 139.751 97.3953 139.944 97.1572 139.944H96.163C96.048 139.944 95.9379 139.898 95.8566 139.817C95.7753 139.735 95.7294 139.625 95.7289 139.51V138.516C95.7288 138.459 95.7399 138.403 95.7617 138.35C95.7834 138.297 95.8154 138.249 95.8557 138.209C95.8961 138.169 95.944 138.137 95.9967 138.115C96.0494 138.093 96.1059 138.082 96.163 138.082ZM99.6099 138.082H100.604C100.842 138.082 101.038 138.278 101.038 138.516V139.51C101.038 139.751 100.842 139.944 100.604 139.944H99.6099C99.4946 139.944 99.3841 139.899 99.3025 139.817C99.2208 139.736 99.1746 139.626 99.1741 139.51V138.516C99.1753 138.401 99.2216 138.291 99.3031 138.21C99.3847 138.129 99.4948 138.083 99.6099 138.082Z" fill="#E1E4E5"/>
</g>
<defs>
<linearGradient id="paint0_linear_5661_8178" x1="132.931" y1="225.886" x2="261.935" y2="-74.1302" gradientUnits="userSpaceOnUse">
<stop stop-color="white"/>
<stop offset="1" stop-color="#EEEEEE"/>
</linearGradient>
<linearGradient id="paint1_linear_5661_8178" x1="108.949" y1="214.436" x2="105.149" y2="-84.1346" gradientUnits="userSpaceOnUse">
<stop stop-color="white"/>
<stop offset="1" stop-color="#EEEEEE"/>
</linearGradient>
<linearGradient id="paint2_linear_5661_8178" x1="194.309" y1="18.3099" x2="115.131" y2="82.6488" gradientUnits="userSpaceOnUse">
<stop stop-color="white"/>
<stop offset="1" stop-color="#EEEEEE"/>
</linearGradient>
<clipPath id="clip0_5661_8178">
<rect width="312" height="208" fill="white"/>
</clipPath>
</defs>
</svg>
