<svg width="14" height="14" viewBox="0 0 14 14" fill="none" xmlns="http://www.w3.org/2000/svg">
<path d="M4.16667 1.33333H13.375V2.75H4.16667V1.33333ZM2.04167 0.625V2.75H2.75V3.45833H0.625V2.75H1.33333V1.33333H0.625V0.625H2.04167ZM0.625 8.41667V6.64583H2.04167V6.29167H0.625V5.58333H2.75V7.35417H1.33333V7.70833H2.75V8.41667H0.625ZM2.04167 12.3125H0.625V11.6042H2.04167V11.25H0.625V10.5417H2.75V13.375H0.625V12.6667H2.04167V12.3125ZM4.16667 6.29167H13.375V7.70833H4.16667V6.29167ZM4.16667 11.25H13.375V12.6667H4.16667V11.25Z" fill="#333333"/>
</svg>
