<svg width="20" height="21" viewBox="0 0 20 21" fill="none" xmlns="http://www.w3.org/2000/svg">
<path d="M14.8251 19.4584H5.17508C2.89175 19.4584 1.04175 17.6001 1.04175 15.3167V9.14173C1.04175 8.00839 1.74175 6.58339 2.64175 5.88339L7.13342 2.38339C8.48342 1.33339 10.6417 1.28339 12.0417 2.26673L17.1917 5.87506C18.1834 6.56673 18.9584 8.05006 18.9584 9.25839V15.3251C18.9584 17.6001 17.1084 19.4584 14.8251 19.4584ZM7.90008 3.36673L3.40841 6.86673C2.81675 7.33339 2.29175 8.39173 2.29175 9.14173V15.3167C2.29175 16.9084 3.58341 18.2084 5.17508 18.2084H14.8251C16.4167 18.2084 17.7084 16.9167 17.7084 15.3251V9.25839C17.7084 8.45839 17.1334 7.35006 16.4751 6.90006L11.3251 3.29173C10.3751 2.62506 8.80841 2.65839 7.90008 3.36673Z" fill="white"/>
<path d="M10 16.125C9.65833 16.125 9.375 15.8417 9.375 15.5V13C9.375 12.6583 9.65833 12.375 10 12.375C10.3417 12.375 10.625 12.6583 10.625 13V15.5C10.625 15.8417 10.3417 16.125 10 16.125Z" fill="white"/>
</svg>
