<svg width="16" height="16" viewBox="0 0 16 16" fill="none" xmlns="http://www.w3.org/2000/svg">
<path d="M7.9799 14.6666C11.6618 14.6666 14.6466 11.6818 14.6466 7.99992C14.6466 4.31802 11.6618 1.33325 7.9799 1.33325C4.298 1.33325 1.31323 4.31802 1.31323 7.99992C1.31323 11.6818 4.298 14.6666 7.9799 14.6666Z" stroke="#007AFF" stroke-width="1.5" stroke-linecap="round" stroke-linejoin="round"/>
<path d="M7.14659 9.6867V6.31337C7.14659 5.99337 7.01325 5.8667 6.67325 5.8667H5.80659C5.46659 5.8667 5.33325 5.99337 5.33325 6.31337V9.6867C5.33325 10.0067 5.46659 10.1334 5.80659 10.1334H6.66659C7.01325 10.1334 7.14659 10.0067 7.14659 9.6867Z" stroke="#007AFF" stroke-width="1.5" stroke-linecap="round" stroke-linejoin="round"/>
<path d="M10.6668 9.6867V6.31337C10.6668 5.99337 10.5334 5.8667 10.1934 5.8667H9.33344C8.99344 5.8667 8.86011 5.99337 8.86011 6.31337V9.6867C8.86011 10.0067 8.99344 10.1334 9.33344 10.1334H10.1934C10.5334 10.1334 10.6668 10.0067 10.6668 9.6867Z" stroke="#007AFF" stroke-width="1.5" stroke-linecap="round" stroke-linejoin="round"/>
</svg>
