<svg width="51" height="51" viewBox="0 0 51 51" fill="none" xmlns="http://www.w3.org/2000/svg">
<path d="M32.3828 18.4101C31.466 17.484 30.374 16.7497 29.1705 16.2501C27.9669 15.7505 26.6759 15.4955 25.3728 15.5001C19.9128 15.5001 15.4628 19.9501 15.4628 25.4101C15.4628 27.1601 15.9228 28.8601 16.7828 30.3601L15.3828 35.5001L20.6328 34.1201C22.0828 34.9101 23.7128 35.3301 25.3728 35.3301C30.8328 35.3301 35.2828 30.8801 35.2828 25.4201C35.2828 22.7701 34.2528 20.2801 32.3828 18.4101ZM25.3728 33.6501C23.8928 33.6501 22.4428 33.2501 21.1728 32.5001L20.8728 32.3201L17.7528 33.1401L18.5828 30.1001L18.3828 29.7901C17.5606 28.477 17.124 26.9593 17.1228 25.4101C17.1228 20.8701 20.8228 17.1701 25.3628 17.1701C27.5628 17.1701 29.6328 18.0301 31.1828 19.5901C31.9503 20.354 32.5585 21.2627 32.9722 22.2635C33.3859 23.2642 33.5968 24.3372 33.5928 25.4201C33.6128 29.9601 29.9128 33.6501 25.3728 33.6501ZM29.8928 27.4901C29.6428 27.3701 28.4228 26.7701 28.2028 26.6801C27.9728 26.6001 27.8128 26.5601 27.6428 26.8001C27.4728 27.0501 27.0028 27.6101 26.8628 27.7701C26.7228 27.9401 26.5728 27.9601 26.3228 27.8301C26.0728 27.7101 25.2728 27.4401 24.3328 26.6001C23.5928 25.9401 23.1028 25.1301 22.9528 24.8801C22.8128 24.6301 22.9328 24.5001 23.0628 24.3701C23.1728 24.2601 23.3128 24.0801 23.4328 23.9401C23.5528 23.8001 23.6028 23.6901 23.6828 23.5301C23.7628 23.3601 23.7228 23.2201 23.6628 23.1001C23.6028 22.9801 23.1028 21.7601 22.9028 21.2601C22.7028 20.7801 22.4928 20.8401 22.3428 20.8301H21.8628C21.6928 20.8301 21.4328 20.8901 21.2028 21.1401C20.9828 21.3901 20.3428 21.9901 20.3428 23.2101C20.3428 24.4301 21.2328 25.6101 21.3528 25.7701C21.4728 25.9401 23.1028 28.4401 25.5828 29.5101C26.1728 29.7701 26.6328 29.9201 26.9928 30.0301C27.5828 30.2201 28.1228 30.1901 28.5528 30.1301C29.0328 30.0601 30.0228 29.5301 30.2228 28.9501C30.4328 28.3701 30.4328 27.8801 30.3628 27.7701C30.2928 27.6601 30.1428 27.6101 29.8928 27.4901Z" fill="#FF9500"/>
<circle cx="25.333" cy="25.5" r="25" fill="#FCAE17" fill-opacity="0.15"/>
</svg>
