<svg width="24" height="25" viewBox="0 0 24 25" fill="none" xmlns="http://www.w3.org/2000/svg">
<g id="Arrow Right">
<g id="arrow-right">
<path id="Vector" d="M14.43 18.879C14.24 18.879 14.05 18.809 13.9 18.659C13.61 18.369 13.61 17.889 13.9 17.599L19.44 12.059L13.9 6.51895C13.61 6.22896 13.61 5.74896 13.9 5.45896C14.19 5.16896 14.67 5.16896 14.96 5.45896L21.03 11.529C21.32 11.819 21.32 12.299 21.03 12.589L14.96 18.659C14.81 18.809 14.62 18.879 14.43 18.879Z" fill="white"/>
<path id="Vector_2" d="M20.33 12.8088H3.5C3.09 12.8088 2.75 12.4688 2.75 12.0588C2.75 11.6488 3.09 11.3088 3.5 11.3088H20.33C20.74 11.3088 21.08 11.6488 21.08 12.0588C21.08 12.4688 20.74 12.8088 20.33 12.8088Z" fill="white"/>
</g>
</g>
</svg>
