<svg width="25" height="25" viewBox="0 0 25 25" fill="none" xmlns="http://www.w3.org/2000/svg">
<g id="Arrow Right">
<g id="arrow-right">
<path id="Vector" d="M14.93 18.9378C14.74 18.9378 14.55 18.8678 14.4 18.7178C14.11 18.4278 14.11 17.9478 14.4 17.6578L19.94 12.1178L14.4 6.57779C14.11 6.28779 14.11 5.80779 14.4 5.51779C14.69 5.22779 15.17 5.22779 15.46 5.51779L21.53 11.5878C21.82 11.8778 21.82 12.3578 21.53 12.6478L15.46 18.7178C15.31 18.8678 15.12 18.9378 14.93 18.9378Z" fill="#186F3D"/>
<path id="Vector_2" d="M20.83 12.8677H4C3.59 12.8677 3.25 12.5277 3.25 12.1177C3.25 11.7077 3.59 11.3677 4 11.3677H20.83C21.24 11.3677 21.58 11.7077 21.58 12.1177C21.58 12.5277 21.24 12.8677 20.83 12.8677Z" fill="#186F3D"/>
</g>
</g>
</svg>
