<svg width="20" height="21" viewBox="0 0 20 21" fill="none" xmlns="http://www.w3.org/2000/svg">
<path d="M5.14999 19.4584C5.06666 19.4584 4.97499 19.4501 4.89999 19.4418L3.09166 19.1918C2.22499 19.0751 1.44166 18.3001 1.30833 17.4168L1.05833 15.5918C0.974992 15.0084 1.22499 14.2501 1.64166 13.8251L5.29999 10.1668C4.70833 7.8001 5.39166 5.3001 7.13333 3.5751C9.83333 0.883432 14.225 0.875099 16.9333 3.5751C18.2417 4.88343 18.9583 6.6251 18.9583 8.4751C18.9583 10.3251 18.2417 12.0668 16.9333 13.3751C15.1833 15.1084 12.6917 15.7918 10.3417 15.1918L6.67499 18.8501C6.32499 19.2168 5.69999 19.4584 5.14999 19.4584ZM12.025 2.8001C10.5667 2.8001 9.11666 3.3501 8.00833 4.45843C6.50833 5.9501 5.96666 8.13343 6.59166 10.1668C6.65833 10.3918 6.59999 10.6251 6.43333 10.7918L2.51666 14.7084C2.37499 14.8501 2.25833 15.2168 2.28333 15.4084L2.53333 17.2334C2.58333 17.5501 2.92499 17.9084 3.24166 17.9501L5.05833 18.2001C5.25833 18.2334 5.62499 18.1168 5.76666 17.9751L9.69999 14.0501C9.86666 13.8834 10.1083 13.8334 10.325 13.9001C12.3333 14.5334 14.525 13.9918 16.025 12.4918C17.0917 11.4251 17.6833 9.99177 17.6833 8.4751C17.6833 6.9501 17.0917 5.5251 16.025 4.45843C14.9417 3.35843 13.4833 2.8001 12.025 2.8001Z" fill="white"/>
<path d="M7.65833 17.1167C7.64065 17.1167 7.62512 17.1135 7.6118 17.1081C7.59894 17.103 7.5849 17.0945 7.57021 17.0798L5.65355 15.1632C5.63202 15.1417 5.61874 15.1109 5.61874 15.0751C5.61874 15.0392 5.63202 15.0085 5.65355 14.987C5.67507 14.9654 5.70581 14.9521 5.74166 14.9521C5.77751 14.9521 5.80825 14.9654 5.82977 14.987L7.74644 16.9036C7.76797 16.9251 7.78124 16.9559 7.78124 16.9917C7.78124 17.0276 7.76797 17.0583 7.74644 17.0798C7.73176 17.0945 7.71771 17.103 7.70485 17.1081C7.69153 17.1135 7.67601 17.1167 7.65833 17.1167Z" fill="white" stroke="white"/>
<path d="M12.0833 10.2917C11.05 10.2917 10.2083 9.45008 10.2083 8.41675C10.2083 7.38341 11.05 6.54175 12.0833 6.54175C13.1167 6.54175 13.9583 7.38341 13.9583 8.41675C13.9583 9.45008 13.1167 10.2917 12.0833 10.2917ZM12.0833 7.79175C11.7417 7.79175 11.4583 8.07508 11.4583 8.41675C11.4583 8.75841 11.7417 9.04175 12.0833 9.04175C12.425 9.04175 12.7083 8.75841 12.7083 8.41675C12.7083 8.07508 12.425 7.79175 12.0833 7.79175Z" fill="white"/>
</svg>
