<svg width="20" height="21" viewBox="0 0 20 21" fill="none" xmlns="http://www.w3.org/2000/svg">
<path d="M9.99997 19.3583C9.44164 19.3583 8.87497 19.2333 8.4333 18.975L3.84997 16.3333C1.9833 15.075 1.86664 14.8833 1.86664 12.9083V8.09163C1.86664 6.11663 1.97497 5.92496 3.8083 4.68329L8.42497 2.01663C9.29997 1.50829 10.675 1.50829 11.55 2.01663L16.15 4.66663C18.0166 5.92496 18.1333 6.11663 18.1333 8.09163V12.9C18.1333 14.875 18.025 15.0666 16.1916 16.3083L11.575 18.975C11.125 19.2333 10.5583 19.3583 9.99997 19.3583ZM9.99997 2.89163C9.64997 2.89163 9.3083 2.95829 9.06664 3.09996L4.4833 5.74996C3.12497 6.66663 3.12497 6.66663 3.12497 8.09163V12.9C3.12497 14.325 3.12497 14.325 4.51664 15.2666L9.06664 17.8916C9.5583 18.175 10.45 18.175 10.9416 17.8916L15.525 15.2416C16.875 14.325 16.875 14.325 16.875 12.9V8.09163C16.875 6.66663 16.875 6.66663 15.4833 5.72496L10.9333 3.09996C10.6916 2.95829 10.35 2.89163 9.99997 2.89163Z" fill="#999999"/>
<path d="M10 13.625C8.275 13.625 6.875 12.225 6.875 10.5C6.875 8.775 8.275 7.375 10 7.375C11.725 7.375 13.125 8.775 13.125 10.5C13.125 12.225 11.725 13.625 10 13.625ZM10 8.625C8.96667 8.625 8.125 9.46667 8.125 10.5C8.125 11.5333 8.96667 12.375 10 12.375C11.0333 12.375 11.875 11.5333 11.875 10.5C11.875 9.46667 11.0333 8.625 10 8.625Z" fill="#999999"/>
</svg>
