<svg width="220" height="224" viewBox="0 0 220 224" fill="none" xmlns="http://www.w3.org/2000/svg">
<g clip-path="url(#clip0_5658_42052)">
<path d="M92.7512 103.24L172.185 103.098C172.327 103.098 172.463 103.041 172.564 102.94C172.664 102.84 172.721 102.703 172.721 102.56C172.721 102.418 172.664 102.281 172.564 102.18C172.463 102.079 172.327 102.022 172.185 102.022L92.7512 102.165C92.6092 102.165 92.473 102.222 92.3726 102.322C92.2722 102.423 92.2158 102.56 92.2158 102.703C92.2158 102.845 92.2722 102.982 92.3726 103.083C92.473 103.184 92.6092 103.24 92.7512 103.24Z" fill="#3F3D56"/>
<path d="M91.5644 110.768C95.7039 110.768 99.0595 107.398 99.0595 103.24C99.0595 99.0828 95.7039 95.7124 91.5644 95.7124C87.425 95.7124 84.0693 99.0828 84.0693 103.24C84.0693 107.398 87.425 110.768 91.5644 110.768Z" fill="#3F3D56"/>
<path d="M168.624 103.202C158.463 103.202 148.53 100.176 140.081 94.5058C131.632 88.8358 125.047 80.7768 121.159 71.348C117.27 61.9191 116.253 51.5439 118.235 41.5342C120.218 31.5246 125.111 22.3302 132.296 15.1136C139.481 7.89709 148.635 2.98256 158.601 0.991523C168.567 -0.999516 178.897 0.0223592 188.285 3.92792C197.673 7.83349 205.696 14.4473 211.342 22.9331C216.987 31.4188 220 41.3954 220 51.6011C219.985 65.2818 214.567 78.3978 204.935 88.0715C195.304 97.7452 182.245 103.187 168.624 103.202ZM168.624 3.55872C159.164 3.55872 149.916 6.37636 142.05 11.6553C134.184 16.9343 128.053 24.4375 124.432 33.2161C120.812 41.9947 119.865 51.6544 121.71 60.9737C123.556 70.293 128.112 78.8534 134.801 85.5722C141.491 92.2911 150.014 96.8666 159.292 98.7204C168.571 100.574 178.189 99.6227 186.929 95.9865C195.669 92.3503 203.14 86.1926 208.396 78.292C213.652 70.3915 216.457 61.103 216.457 51.6011C216.443 38.8639 211.398 26.6525 202.431 17.646C193.464 8.63941 181.306 3.57318 168.624 3.55872Z" fill="#3F3D56"/>
<path d="M190.792 72.2766C188.911 72.2779 187.073 71.719 185.509 70.6707C183.944 69.6225 182.725 68.1319 182.004 66.3874C181.283 64.643 181.094 62.723 181.459 60.8704C181.825 59.0177 182.729 57.3156 184.058 55.9792C185.387 54.6428 187.08 53.7321 188.924 53.3624C190.769 52.9927 192.68 53.1805 194.418 53.9021C196.156 54.6237 197.642 55.8466 198.688 57.4163C199.733 58.986 200.292 60.8319 200.293 62.7206C200.294 65.2529 199.294 67.6819 197.512 69.4738C195.73 71.2657 193.313 72.2738 190.792 72.2766ZM168.624 72.2766C166.105 72.2737 163.69 71.2674 161.908 69.4784C160.127 67.6894 159.125 65.2638 159.122 62.7337V40.4684C159.122 37.9374 160.123 35.5101 161.905 33.7204C163.687 31.9307 166.104 30.9253 168.624 30.9253C171.144 30.9253 173.56 31.9307 175.342 33.7204C177.124 35.5101 178.125 37.9374 178.125 40.4684V62.7337C178.122 65.2638 177.12 67.6894 175.339 69.4785C173.558 71.2675 171.143 72.2738 168.624 72.2766ZM146.462 72.2766C143.941 72.2737 141.524 71.2666 139.742 69.4763C137.96 67.686 136.957 65.2587 136.954 62.7268V53.8311C136.954 51.2984 137.956 48.8694 139.739 47.0785C141.522 45.2876 143.94 44.2814 146.462 44.2814C148.984 44.2814 151.402 45.2876 153.185 47.0785C154.968 48.8694 155.97 51.2984 155.97 53.8311V62.7268C155.967 65.2587 154.965 67.6861 153.182 69.4764C151.4 71.2667 148.983 72.2738 146.462 72.2766Z" fill="#FCAE17"/>
<path d="M13.8438 177.981V178.846C13.845 180.28 14.4128 181.655 15.4224 182.669C16.4321 183.683 17.8011 184.254 19.229 184.255H64.8962C66.3243 184.254 67.6938 183.684 68.7036 182.67C69.7134 181.656 70.281 180.28 70.2815 178.846V177.981C70.2842 176.715 69.8417 175.489 69.032 174.519C68.7625 174.197 68.4576 173.907 68.123 173.654H44.4364C44.1507 173.653 43.8768 173.539 43.6749 173.337C43.4729 173.134 43.3594 172.859 43.3593 172.572H19.229C17.8014 172.574 16.4328 173.144 15.4232 174.158C14.4137 175.172 13.8457 176.547 13.8438 177.981Z" fill="#3F3D56"/>
<path d="M39.0487 223.85H44.6494L44.6494 184.04H39.0487L39.0487 223.85Z" fill="#3F3D56"/>
<path d="M23.1084 223.652C23.1084 224.26 31.5954 223.887 42.0646 223.887C52.5338 223.887 61.0208 224.26 61.0208 223.652C61.0208 223.044 52.5338 218.224 42.0646 218.224C31.5954 218.224 23.1084 223.044 23.1084 223.652Z" fill="#3F3D56"/>
<path d="M22.6325 177.068L41.7437 180.131L63.9484 183.692L71.6472 184.926C72.3863 185.043 73.1415 184.861 73.7472 184.419C74.3529 183.978 74.7597 183.314 74.8784 182.572L75.2274 180.382L75.5505 178.344L75.8174 176.665C75.8778 176.29 75.8616 175.906 75.7698 175.537C75.678 175.168 75.5125 174.822 75.2833 174.519C75.0124 174.147 74.6523 173.849 74.2363 173.654H44.4364C44.1507 173.653 43.8769 173.539 43.6749 173.337C43.4729 173.134 43.3594 172.859 43.3593 172.572V171.719C43.3594 171.432 43.4729 171.157 43.6749 170.955C43.8769 170.752 44.1507 170.638 44.4364 170.638H56.1462L50.7479 169.772L34.1526 167.111L24.4635 165.558C23.7226 165.44 22.9655 165.622 22.3581 166.064C21.7507 166.506 21.3428 167.172 21.2237 167.916L20.2845 173.818C20.1698 174.561 20.3522 175.32 20.7921 175.929C21.2319 176.537 21.8934 176.947 22.6325 177.068Z" fill="#FCAE17"/>
<path d="M63.9482 176.246V209.223C63.9493 209.974 64.247 210.694 64.7759 211.225C65.3049 211.757 66.022 212.056 66.77 212.057H72.7284C73.4765 212.056 74.1936 211.757 74.7226 211.226C75.2516 210.694 75.5493 209.974 75.5504 209.223V176.246C75.5514 175.62 75.3435 175.012 74.9601 174.519C74.6762 174.14 74.2991 173.842 73.8658 173.654H65.6284C65.1971 173.843 64.8217 174.141 64.5385 174.519C64.1556 175.013 63.9479 175.62 63.9482 176.246Z" fill="#FCAE17"/>
<path d="M45.9913 120.43C46.0216 120.724 46.0971 121.012 46.2153 121.283C46.3947 121.696 46.6711 122.06 47.021 122.343L47.034 122.352L64.0343 136.203L64.284 136.402L67.804 139.271L68.868 140.136H87.277L86.2172 139.271L71.6683 127.414L61.9189 119.47L54.3321 113.291C53.8881 112.927 53.3437 112.71 52.7725 112.668C52.7703 112.665 52.7672 112.664 52.7639 112.663C52.5945 112.651 52.4243 112.654 52.2554 112.672C52.0026 112.697 51.7546 112.759 51.5188 112.854C51.3575 112.912 51.2041 112.991 51.0621 113.087C50.7942 113.251 50.5567 113.461 50.3599 113.706L46.6634 118.28L46.6074 118.353C46.3731 118.641 46.198 118.973 46.0922 119.33C45.9864 119.686 45.9521 120.06 45.9913 120.43Z" fill="#FCAE17"/>
<path d="M47.0347 122.351C47.3551 123.156 47.821 123.894 48.409 124.528L59.7268 136.739C60.0003 136.991 60.3207 137.187 60.6696 137.315C61.0186 137.442 61.3892 137.5 61.7602 137.483C62.1312 137.467 62.4953 137.377 62.8317 137.219C63.168 137.06 63.47 136.837 63.7203 136.562L64.035 136.202L64.1728 136.047L69.0627 130.538L71.165 128.167C71.3048 128.021 71.4263 127.858 71.5268 127.682C71.5786 127.596 71.6259 127.505 71.669 127.414C71.8453 127.01 71.9264 126.57 71.9059 126.129C71.8916 125.754 71.8023 125.385 71.6431 125.046C71.484 124.706 71.2584 124.402 70.9797 124.151L57.8569 114.078C56.4089 112.963 54.5858 112.457 52.7732 112.667C52.771 112.665 52.7679 112.663 52.7646 112.663C52.362 112.714 51.9643 112.798 51.5754 112.914C51.4031 112.962 51.2353 113.022 51.0628 113.087C49.9502 113.507 48.9638 114.208 48.1978 115.121C47.3646 116.104 46.8156 117.298 46.6106 118.573C46.4055 119.848 46.5522 121.154 47.0347 122.351Z" fill="#2F2E41"/>
<path d="M41.6601 102.611C53.586 102.611 63.2538 92.9008 63.2538 80.9227C63.2538 68.9446 53.586 59.2344 41.6601 59.2344C29.7342 59.2344 20.0664 68.9446 20.0664 80.9227C20.0664 92.9008 29.7342 102.611 41.6601 102.611Z" fill="#FCAE17"/>
<path d="M35.9103 174.078L43.9193 175.358L44.1004 175.389L56.2753 177.34L63.9483 178.573L75.2273 180.382L75.5504 180.434L77.2262 180.702L84.925 181.936C85.6642 182.053 86.4194 181.871 87.0251 181.429C87.6308 180.988 88.0375 180.324 88.1562 179.582L88.8283 175.358L89.0955 173.679C89.0955 173.671 89.0997 173.662 89.0997 173.654H44.4363C44.1507 173.653 43.8768 173.539 43.6748 173.337C43.4729 173.134 43.3594 172.859 43.3593 172.572V171.719C43.3594 171.432 43.4729 171.157 43.6748 170.955C43.8768 170.752 44.1507 170.638 44.4363 170.638H58.55V165.908L57.6884 165.77L53.4319 165.086L37.7371 162.572C36.9974 162.454 36.2412 162.635 35.6346 163.077C35.0279 163.518 34.6205 164.183 34.5015 164.926L34.1526 167.111L33.5623 170.832C33.4467 171.575 33.6288 172.334 34.0689 172.942C34.509 173.55 35.1711 173.959 35.9103 174.078Z" fill="#FCAE17"/>
<path d="M12.2715 154.917C12.2715 172.598 14.0595 183.173 41.6322 180.144C41.6709 180.14 41.7054 180.136 41.7441 180.131C46.6619 179.644 51.5257 178.709 56.2758 177.34C58.7443 176.616 61.1435 175.672 63.4447 174.519C63.9874 174.242 64.5087 173.952 65.0216 173.654H44.4368C44.1511 173.654 43.8772 173.54 43.6753 173.337C43.4733 173.134 43.3598 172.859 43.3597 172.572V171.72C43.3598 171.433 43.4733 171.158 43.6753 170.955C43.8772 170.752 44.1511 170.638 44.4368 170.638H58.5504V143.308C58.5516 142.467 58.8847 141.661 59.4767 141.066C60.0687 140.472 60.8712 140.137 61.7084 140.136H73.19C73.0907 139.85 72.9918 139.561 72.8841 139.271C71.8069 136.277 70.5302 133.36 69.0627 130.539C67.0521 126.621 64.6594 122.913 61.9196 119.47C60.0117 117.07 57.87 114.869 55.5262 112.897C51.205 109.314 46.5004 107.099 41.7269 107.099C24.1235 107.099 12.2715 137.237 12.2715 154.917Z" fill="#2F2E41"/>
<path d="M41.207 88.9609L41.1846 88.1504C42.6858 88.1084 44.0093 88.0138 45.0038 87.2841C45.2857 87.0654 45.5175 86.7884 45.6833 86.4717C45.8491 86.155 45.945 85.8062 45.9646 85.449C45.9821 85.2307 45.9492 85.0114 45.8685 84.8079C45.7879 84.6045 45.6616 84.4225 45.4995 84.276C44.8393 83.716 43.777 83.8973 43.0028 84.2539L42.3351 84.5613L43.6155 75.1636L44.4149 75.2736L43.3259 83.2677C44.3779 82.957 45.3527 83.0908 46.0204 83.6571C46.2767 83.8819 46.4779 84.1632 46.6081 84.4789C46.7383 84.7947 46.794 85.1365 46.771 85.4775C46.7474 85.9575 46.6196 86.4265 46.3966 86.8516C46.1735 87.2768 45.8606 87.6478 45.4798 87.9387C44.202 88.8766 42.5414 88.9233 41.207 88.9609Z" fill="#2F2E41"/>
<path d="M52.7142 75.9634H48.3682V76.7739H52.7142V75.9634Z" fill="#2F2E41"/>
<path d="M38.9964 75.9634H34.6504V76.7739H38.9964V75.9634Z" fill="#2F2E41"/>
<path d="M24.4269 74.9637C26.1063 72.4246 29.0613 71.3483 31.9753 71.0865C35.2552 70.7918 38.4245 71.427 41.6268 72.0442C45.1511 72.7235 48.8811 73.359 52.4322 72.5002C54.0032 72.1352 55.4712 71.4168 56.7255 70.3991C57.9798 69.3813 58.9876 68.0909 59.6731 66.625C60.9734 63.7651 61.2535 60.5427 60.4665 57.4997C59.6343 54.2633 57.5688 51.4156 55.0648 49.2647C49.954 44.8748 43.0379 42.9018 36.3858 43.0877C29.7589 43.2594 23.3538 45.5214 18.0782 49.5531C12.7938 53.7303 9.07517 59.5833 7.52934 66.1566C5.9129 72.676 6.43948 79.5456 9.03042 85.7397C10.4861 89.1313 12.5914 92.189 14.2159 95.4952C15.7284 98.5735 16.8933 102.153 15.9522 105.586C15.1264 108.599 12.7019 111.276 9.65812 112.094C8.27331 112.459 6.80796 112.362 5.48247 111.819C4.15697 111.275 3.04302 110.314 2.30816 109.08C0.786599 106.67 0.750195 103.514 3.03472 101.568C3.61072 101.069 4.28169 100.694 5.00683 100.464C5.73196 100.234 6.4961 100.154 7.2528 100.23C8.0095 100.306 8.74294 100.535 9.40851 100.905C10.0741 101.274 10.6579 101.776 11.1244 102.379C12.0512 103.588 12.4661 105.115 12.279 106.63C12.1665 107.395 13.3326 107.725 13.4462 106.953C13.7188 105.351 13.4165 103.705 12.5932 102.306C11.7698 100.908 10.4788 99.8483 8.9503 99.3166C7.42177 98.785 5.75495 98.8156 4.24681 99.4031C2.73867 99.9906 1.48718 101.097 0.715309 102.525C-0.662392 105.126 0.0809606 108.264 1.82981 110.488C2.73213 111.673 3.95512 112.571 5.35247 113.076C6.74982 113.58 8.26235 113.67 9.7091 113.334C12.8925 112.595 15.4967 110.054 16.7214 107.068C18.0848 103.743 17.4601 100.033 16.131 96.8074C14.6942 93.3202 12.5607 90.1926 10.8734 86.8321C9.3457 83.7952 8.37353 80.5075 8.00324 77.1254C7.26214 70.3337 8.79685 63.4878 12.3646 57.6707C16.001 51.9438 21.5515 47.7069 28.0188 45.7212C34.3959 43.7107 41.4293 43.7722 47.6732 46.2432C53.8237 48.6772 59.7627 53.9816 59.6914 61.1057C59.661 64.1488 58.5362 67.2523 56.2154 69.2821C53.4418 71.7078 49.58 71.9152 46.0934 71.5366C42.5847 71.1556 39.1775 70.1264 35.6536 69.8639C32.5887 69.6355 29.282 69.8729 26.5453 71.4024C25.2709 72.1162 24.1859 73.1271 23.3817 74.3501C22.9494 75.0036 23.9973 75.6131 24.4269 74.9637Z" fill="#2F2E41"/>
<path d="M27.8629 128.046C27.8973 128.124 27.9361 128.201 27.979 128.275C28.0224 128.353 28.0698 128.428 28.1212 128.5L37.5648 142.152L38.2973 143.212L46.0004 154.342L53.4321 165.086L56.4392 169.439C56.5201 169.557 56.611 169.669 56.7108 169.772C57.1758 170.263 57.8011 170.571 58.4728 170.637H58.5502V152.07L57.6885 150.824L48.0253 136.856L37.6469 121.854C37.2194 121.237 36.5657 120.815 35.8292 120.681C35.0927 120.547 34.3334 120.712 33.7177 121.14L30.5339 123.36L28.8234 124.554C28.2827 124.932 27.8906 125.488 27.7152 126.126C27.5397 126.763 27.592 127.443 27.8629 128.046Z" fill="#FCAE17"/>
<path d="M26.385 127.713L26.8114 128.574L26.8158 128.578L26.9322 128.808L33.8554 142.611C34.2456 143.253 34.8731 143.714 35.6006 143.892C36.3281 144.07 37.0963 143.952 37.7372 143.563L38.1853 143.282L38.2972 143.213L47.2239 137.587C47.5426 137.394 47.8198 137.138 48.0397 136.836C48.2596 136.534 48.4177 136.192 48.505 135.828C48.5923 135.464 48.607 135.087 48.5483 134.717C48.4896 134.348 48.3587 133.994 48.163 133.676L38.3576 120.322C37.3964 119.014 36.016 118.077 34.4484 117.671C32.8808 117.264 31.2216 117.412 29.7497 118.089C29.4176 118.24 29.0978 118.416 28.7932 118.617C27.352 119.574 26.3106 121.028 25.8667 122.705C25.4227 124.382 25.6072 126.164 26.385 127.713Z" fill="#2F2E41"/>
<path d="M77.2266 173.654V206.233C77.2277 206.984 77.5253 207.704 78.0543 208.235C78.5833 208.767 79.3005 209.066 80.0486 209.067H86.0069C86.755 209.066 87.4721 208.767 88.001 208.235C88.53 207.704 88.8276 206.984 88.8287 206.233V173.654H77.2266Z" fill="#FCAE17"/>
<path d="M42.498 171.719V172.572C42.4987 173.022 42.6542 173.459 42.9385 173.807C43.2227 174.156 43.618 174.395 44.0577 174.484C44.1178 174.493 44.1782 174.506 44.2386 174.51C44.3032 174.515 44.3677 174.519 44.4367 174.519H110.852C111.919 174.519 112.941 174.094 113.696 173.337C114.45 172.58 114.875 171.553 114.876 170.482V143.308C114.875 142.237 114.45 141.21 113.696 140.453C112.941 139.696 111.919 139.271 110.852 139.271H61.7084C60.6426 139.272 59.6209 139.697 58.8674 140.454C58.1138 141.211 57.6899 142.237 57.6887 143.308V169.772H44.4367C43.9226 169.772 43.4295 169.977 43.0659 170.343C42.7023 170.708 42.4981 171.203 42.498 171.719Z" fill="white"/>
<path d="M42.498 171.719V172.572C42.4987 173.022 42.6542 173.459 42.9385 173.807C43.2227 174.156 43.618 174.395 44.0577 174.484C44.1178 174.493 44.1782 174.506 44.2386 174.51C44.3032 174.515 44.3677 174.519 44.4367 174.519H110.852C111.919 174.519 112.941 174.094 113.696 173.337C114.45 172.58 114.875 171.553 114.876 170.482V143.308C114.875 142.237 114.45 141.21 113.696 140.453C112.941 139.696 111.919 139.271 110.852 139.271H61.7084C60.6426 139.272 59.6209 139.697 58.8674 140.454C58.1138 141.211 57.6899 142.237 57.6887 143.308V169.772H44.4367C43.9226 169.772 43.4295 169.977 43.0659 170.343C42.7023 170.708 42.4981 171.203 42.498 171.719ZM43.3597 172.572V171.719C43.3598 171.433 43.4733 171.157 43.6753 170.955C43.8772 170.752 44.1511 170.638 44.4368 170.638H58.5504V143.308C58.5516 142.467 58.8847 141.661 59.4767 141.066C60.0687 140.472 60.8712 140.137 61.7084 140.136H110.852C111.69 140.136 112.494 140.47 113.087 141.065C113.679 141.66 114.013 142.466 114.015 143.308V170.482C114.013 171.323 113.679 172.13 113.087 172.725C112.494 173.319 111.69 173.653 110.852 173.654H44.4367C44.1511 173.654 43.8772 173.539 43.6753 173.337C43.4733 173.134 43.3598 172.859 43.3597 172.572Z" fill="#3F3D56"/>
<path d="M86.2818 160.223C88.1116 160.223 89.5949 158.733 89.5949 156.895C89.5949 155.057 88.1116 153.567 86.2818 153.567C84.4521 153.567 82.9688 155.057 82.9688 156.895C82.9688 158.733 84.4521 160.223 86.2818 160.223Z" fill="#FCAE17"/>
<path d="M58.5628 170.231H57.7012V174.125H58.5628V170.231Z" fill="#3F3D56"/>
</g>
<defs>
<clipPath id="clip0_5658_42052">
<rect width="220" height="224" fill="white"/>
</clipPath>
</defs>
</svg>
