<svg width="211" height="139" viewBox="0 0 211 139" fill="none" xmlns="http://www.w3.org/2000/svg">
<g clip-path="url(#clip0_2884_31373)">
<path d="M55.0307 78.8795C52.7365 61.488 64.8246 40.8062 90.5853 43.943C112.436 46.603 117.172 43.1732 126.579 38.2857C132.791 35.0595 142.509 29.351 150.393 45.6747C160.712 67.0395 136.512 100.538 114.899 110.811C94.2307 120.637 59.1919 110.44 55.0307 78.8795Z" fill="#FCAE17"/>
<path d="M57.537 47.9414L64.2315 41.2947C64.4753 41.0527 64.4753 40.6603 64.2315 40.4183C63.9877 40.1763 63.5925 40.1763 63.3488 40.4183L56.6543 47.065C56.4105 47.307 56.4105 47.6994 56.6543 47.9414C56.898 48.1834 57.2932 48.1834 57.537 47.9414Z" fill="#E1E4E5"/>
<path d="M55.4082 108.639L59.3856 104.69C59.5305 104.546 59.5305 104.313 59.3857 104.169C59.2409 104.025 59.006 104.025 58.8611 104.169L54.8837 108.118C54.7388 108.262 54.7387 108.495 54.8836 108.639C55.0284 108.782 55.2633 108.782 55.4082 108.639Z" fill="#E1E4E5"/>
<path d="M154.108 90.2618L150.131 94.2109C149.986 94.3547 149.986 94.5879 150.131 94.7317C150.276 94.8755 150.511 94.8755 150.655 94.7316L154.633 90.7826C154.778 90.6388 154.778 90.4056 154.633 90.2618C154.488 90.1179 154.253 90.118 154.108 90.2618Z" fill="#E1E4E5"/>
<path d="M58.1919 43.1825L60.1226 41.2655C60.3664 41.0235 60.3664 40.6311 60.1226 40.3891C59.8789 40.1471 59.4837 40.1471 59.2399 40.3891L57.3092 42.3061C57.0654 42.5481 57.0654 42.9404 57.3092 43.1825C57.5529 43.4245 57.9481 43.4245 58.1919 43.1825Z" fill="#E1E4E5"/>
<path d="M55.7977 105.811L56.9447 104.672C57.0896 104.528 57.0896 104.295 56.9448 104.151C56.7999 104.008 56.5651 104.008 56.4202 104.151L55.2732 105.29C55.1283 105.434 55.1282 105.667 55.2731 105.811C55.4179 105.955 55.6528 105.955 55.7977 105.811Z" fill="#E1E4E5"/>
<path d="M153.719 93.0894L152.572 94.2283C152.427 94.3721 152.427 94.6053 152.572 94.7491C152.717 94.8929 152.952 94.8929 153.096 94.749L154.243 93.6102C154.388 93.4663 154.388 93.2332 154.244 93.0893C154.099 92.9455 153.864 92.9456 153.719 93.0894Z" fill="#E1E4E5"/>
<path d="M114.393 115.953C113.326 116.207 111.892 116.754 111.079 117.842C110.266 118.93 111.25 119.251 112.548 119.042C113.847 118.833 115.135 118.106 115.658 117.082C116.18 116.058 115.269 115.745 114.393 115.953ZM119.651 113.927C119.135 114.049 118.443 114.314 118.05 114.839C117.658 115.365 118.133 115.52 118.76 115.419C119.387 115.318 120.01 114.967 120.262 114.472C120.514 113.977 120.074 113.826 119.651 113.927ZM138.845 106.877C140.185 105.965 140.316 103.841 140.316 103.841C140.316 103.841 138.274 103.198 136.935 104.111C135.595 105.023 135.463 107.146 135.463 107.146C135.463 107.146 137.505 107.79 138.845 106.877Z" fill="#E1E4E5"/>
<path d="M135.22 29.0336C136.207 29.0336 137.007 28.1827 137.007 27.133C137.007 26.0834 136.207 25.2324 135.22 25.2324C134.233 25.2324 133.434 26.0834 133.434 27.133C133.434 28.1827 134.233 29.0336 135.22 29.0336Z" fill="#E1E4E5"/>
<path d="M160.234 78.1984C160.798 78.1984 161.256 77.5176 161.256 76.6777C161.256 75.8379 160.798 75.1571 160.234 75.1571C159.671 75.1571 159.213 75.8379 159.213 76.6777C159.213 77.5176 159.671 78.1984 160.234 78.1984Z" fill="#E1E4E5"/>
<path d="M84.6807 77.5817L95.9094 88.8421L120.416 64.2599" stroke="white" stroke-width="15" stroke-linecap="round" stroke-linejoin="round"/>
<path d="M113.825 38.6589C106.526 40.5778 98.5938 34.5955 98.5938 34.5955C98.5938 34.5955 102.502 25.5049 109.804 23.5913C117.104 21.6724 125.033 27.6496 125.033 27.6496C125.033 27.6496 121.125 36.74 113.825 38.6589Z" fill="url(#paint0_linear_2884_31373)"/>
<path d="M164.567 57.0261C162.372 59.2441 158.267 58.7766 158.267 58.7766C158.267 58.7766 157.724 54.7127 159.921 52.4959C162.116 50.2779 166.219 50.7443 166.219 50.7443C166.219 50.7443 166.762 54.8082 164.567 57.0261Z" fill="url(#paint1_linear_2884_31373)"/>
<path d="M46.7763 73.6364C48.8204 73.6364 50.4775 75.3951 50.4775 77.5645C50.4775 79.734 48.8204 81.4927 46.7763 81.4927C44.7322 81.4927 43.0752 79.734 43.0752 77.5645C43.0752 75.3951 44.7322 73.6364 46.7763 73.6364Z" fill="#E1E4E5"/>
<path d="M46.0109 55.8968C46.7863 55.8968 47.4149 55.3294 47.4149 54.6296C47.4149 53.9297 46.7863 53.3623 46.0109 53.3623C45.2355 53.3623 44.6069 53.9297 44.6069 54.6296C44.6069 55.3294 45.2355 55.8968 46.0109 55.8968Z" fill="#E1E4E5"/>
<path d="M82.2562 38.1569C83.7364 38.1569 84.9363 36.9656 84.9363 35.496C84.9363 34.0264 83.7364 32.8351 82.2562 32.8351C80.7761 32.8351 79.5762 34.0264 79.5762 35.496C79.5762 36.9656 80.7761 38.1569 82.2562 38.1569Z" fill="#E1E4E5"/>
<path d="M157.582 31.8213H157.528C157.21 36.3409 153.854 36.4104 153.854 36.4104C153.854 36.4104 157.554 36.4826 157.554 41.7049C157.554 36.4826 161.256 36.4104 161.256 36.4104C161.256 36.4104 157.901 36.3409 157.582 31.8213Z" fill="#E1E4E5"/>
</g>
<defs>
<linearGradient id="paint0_linear_2884_31373" x1="86.2786" y1="43.6747" x2="149.596" y2="11.4748" gradientUnits="userSpaceOnUse">
<stop stop-color="white"/>
<stop offset="1" stop-color="#EEEEEE"/>
</linearGradient>
<linearGradient id="paint1_linear_2884_31373" x1="155.809" y1="64.6026" x2="171.517" y2="39.8032" gradientUnits="userSpaceOnUse">
<stop stop-color="white"/>
<stop offset="1" stop-color="#EEEEEE"/>
</linearGradient>
<clipPath id="clip0_2884_31373">
<rect width="210" height="139" fill="white" transform="translate(0.5)"/>
</clipPath>
</defs>
</svg>
