<svg width="14" height="10" viewBox="0 0 14 10" fill="none" xmlns="http://www.w3.org/2000/svg">
<path fill-rule="evenodd" clip-rule="evenodd" d="M0.999951 0.199951C0.558123 0.199951 0.199951 0.558123 0.199951 0.999951C0.199951 1.44178 0.558123 1.79995 0.999951 1.79995H1.00995C1.45178 1.79995 1.80995 1.44178 1.80995 0.999951C1.80995 0.558123 1.45178 0.199951 1.00995 0.199951H0.999951ZM4.33333 0.199951C3.8915 0.199951 3.53333 0.558123 3.53333 0.999951C3.53333 1.44178 3.8915 1.79995 4.33333 1.79995H13C13.4418 1.79995 13.8 1.44178 13.8 0.999951C13.8 0.558123 13.4418 0.199951 13 0.199951H4.33333ZM4.33333 4.19995C3.8915 4.19995 3.53333 4.55812 3.53333 4.99995C3.53333 5.44178 3.8915 5.79995 4.33333 5.79995H13C13.4418 5.79995 13.8 5.44178 13.8 4.99995C13.8 4.55812 13.4418 4.19995 13 4.19995H4.33333ZM3.53333 8.99995C3.53333 8.55812 3.8915 8.19995 4.33333 8.19995H13C13.4418 8.19995 13.8 8.55812 13.8 8.99995C13.8 9.44178 13.4418 9.79995 13 9.79995H4.33333C3.8915 9.79995 3.53333 9.44178 3.53333 8.99995ZM0.199951 4.99995C0.199951 4.55812 0.558123 4.19995 0.999951 4.19995H1.00995C1.45178 4.19995 1.80995 4.55812 1.80995 4.99995C1.80995 5.44178 1.45178 5.79995 1.00995 5.79995H0.999951C0.558123 5.79995 0.199951 5.44178 0.199951 4.99995ZM0.999951 8.19995C0.558123 8.19995 0.199951 8.55812 0.199951 8.99995C0.199951 9.44178 0.558123 9.79995 0.999951 9.79995H1.00995C1.45178 9.79995 1.80995 9.44178 1.80995 8.99995C1.80995 8.55812 1.45178 8.19995 1.00995 8.19995H0.999951Z" fill="#333333"/>
</svg>
