<svg width="20" height="21" viewBox="0 0 20 21" fill="none" xmlns="http://www.w3.org/2000/svg">
<path d="M12.5 19.4583H7.50004C6.40004 19.4583 5.48337 19.35 4.70837 19.1166C4.42504 19.0333 4.24171 18.7583 4.25837 18.4666C4.46671 15.975 6.99171 14.0166 10 14.0166C13.0084 14.0166 15.525 15.9666 15.7417 18.4666C15.7667 18.7666 15.5834 19.0333 15.2917 19.1166C14.5167 19.35 13.6 19.4583 12.5 19.4583ZM5.60004 18.05C6.15004 18.1583 6.77504 18.2083 7.50004 18.2083H12.5C13.225 18.2083 13.85 18.1583 14.4 18.05C13.9584 16.45 12.1334 15.2666 10 15.2666C7.86671 15.2666 6.04171 16.45 5.60004 18.05Z" fill="#999999"/>
<path d="M12.5001 2.16663H7.50008C3.33341 2.16663 1.66675 3.83329 1.66675 7.99996V13C1.66675 16.15 2.61675 17.875 4.88342 18.5166C5.06675 16.35 7.29175 14.6416 10.0001 14.6416C12.7084 14.6416 14.9334 16.35 15.1167 18.5166C17.3834 17.875 18.3334 16.15 18.3334 13V7.99996C18.3334 3.83329 16.6667 2.16663 12.5001 2.16663ZM10.0001 12.3083C8.35008 12.3083 7.01675 10.9666 7.01675 9.31664C7.01675 7.66664 8.35008 6.33329 10.0001 6.33329C11.6501 6.33329 12.9834 7.66664 12.9834 9.31664C12.9834 10.9666 11.6501 12.3083 10.0001 12.3083Z" stroke="#999999" stroke-width="1.5" stroke-linecap="round" stroke-linejoin="round"/>
<path d="M9.99994 12.9334C8.00827 12.9334 6.3916 11.3084 6.3916 9.31672C6.3916 7.32505 8.00827 5.70837 9.99994 5.70837C11.9916 5.70837 13.6083 7.32505 13.6083 9.31672C13.6083 11.3084 11.9916 12.9334 9.99994 12.9334ZM9.99994 6.95837C8.69994 6.95837 7.6416 8.01672 7.6416 9.31672C7.6416 10.6251 8.69994 11.6834 9.99994 11.6834C11.2999 11.6834 12.3583 10.6251 12.3583 9.31672C12.3583 8.01672 11.2999 6.95837 9.99994 6.95837Z" fill="#999999"/>
</svg>
