<svg width="20" height="21" viewBox="0 0 20 21" fill="none" xmlns="http://www.w3.org/2000/svg">
<path d="M12.5001 19.4583H7.5001C6.4001 19.4583 5.48343 19.35 4.70843 19.1166C4.4251 19.0333 4.24177 18.7583 4.25843 18.4666C4.46677 15.975 6.99177 14.0166 10.0001 14.0166C13.0084 14.0166 15.5251 15.9666 15.7418 18.4666C15.7668 18.7666 15.5834 19.0333 15.2918 19.1166C14.5168 19.35 13.6001 19.4583 12.5001 19.4583ZM5.6001 18.05C6.1501 18.1583 6.7751 18.2083 7.5001 18.2083H12.5001C13.2251 18.2083 13.8501 18.1583 14.4001 18.05C13.9584 16.45 12.1334 15.2666 10.0001 15.2666C7.86677 15.2666 6.04177 16.45 5.6001 18.05Z" fill="white"/>
<path d="M12.5 2.16675H7.50002C3.33335 2.16675 1.66669 3.83341 1.66669 8.00008V13.0001C1.66669 16.1501 2.61669 17.8751 4.88335 18.5167C5.06669 16.3501 7.29169 14.6417 10 14.6417C12.7084 14.6417 14.9334 16.3501 15.1167 18.5167C17.3834 17.8751 18.3334 16.1501 18.3334 13.0001V8.00008C18.3334 3.83341 16.6667 2.16675 12.5 2.16675ZM10 12.3084C8.35002 12.3084 7.01669 10.9668 7.01669 9.31676C7.01669 7.66676 8.35002 6.33341 10 6.33341C11.65 6.33341 12.9834 7.66676 12.9834 9.31676C12.9834 10.9668 11.65 12.3084 10 12.3084Z" stroke="white" stroke-width="1.5" stroke-linecap="round" stroke-linejoin="round"/>
<path d="M9.99994 12.9332C8.00827 12.9332 6.3916 11.3083 6.3916 9.3166C6.3916 7.32493 8.00827 5.70825 9.99994 5.70825C11.9916 5.70825 13.6083 7.32493 13.6083 9.3166C13.6083 11.3083 11.9916 12.9332 9.99994 12.9332ZM9.99994 6.95825C8.69994 6.95825 7.6416 8.0166 7.6416 9.3166C7.6416 10.6249 8.69994 11.6832 9.99994 11.6832C11.2999 11.6832 12.3583 10.6249 12.3583 9.3166C12.3583 8.0166 11.2999 6.95825 9.99994 6.95825Z" fill="white"/>
</svg>
