<svg width="25" height="25" viewBox="0 0 25 25" fill="none" xmlns="http://www.w3.org/2000/svg">
<path d="M15.5006 23.25H9.50063C8.18063 23.25 7.08063 23.12 6.15063 22.84C5.81063 22.74 5.59063 22.41 5.61063 22.06C5.86063 19.07 8.89063 16.72 12.5006 16.72C16.1106 16.72 19.1306 19.06 19.3906 22.06C19.4206 22.42 19.2006 22.74 18.8506 22.84C17.9206 23.12 16.8206 23.25 15.5006 23.25ZM7.22063 21.56C7.88063 21.69 8.63063 21.75 9.50063 21.75H15.5006C16.3706 21.75 17.1206 21.69 17.7806 21.56C17.2506 19.64 15.0606 18.22 12.5006 18.22C9.94063 18.22 7.75063 19.64 7.22063 21.56Z" fill="#292D32"/>
<path d="M15.5 2.5H9.5C4.5 2.5 2.5 4.5 2.5 9.5V15.5C2.5 19.28 3.64 21.35 6.36 22.12C6.58 19.52 9.25 17.47 12.5 17.47C15.75 17.47 18.42 19.52 18.64 22.12C21.36 21.35 22.5 19.28 22.5 15.5V9.5C22.5 4.5 20.5 2.5 15.5 2.5ZM12.5 14.67C10.52 14.67 8.92 13.06 8.92 11.08C8.92 9.10002 10.52 7.5 12.5 7.5C14.48 7.5 16.08 9.10002 16.08 11.08C16.08 13.06 14.48 14.67 12.5 14.67Z" stroke="#292D32" stroke-width="1.5" stroke-linecap="round" stroke-linejoin="round"/>
<path d="M12.4999 15.42C10.1099 15.42 8.16992 13.47 8.16992 11.08C8.16992 8.69002 10.1099 6.75 12.4999 6.75C14.8899 6.75 16.8299 8.69002 16.8299 11.08C16.8299 13.47 14.8899 15.42 12.4999 15.42ZM12.4999 8.25C10.9399 8.25 9.66992 9.52002 9.66992 11.08C9.66992 12.65 10.9399 13.92 12.4999 13.92C14.0599 13.92 15.3299 12.65 15.3299 11.08C15.3299 9.52002 14.0599 8.25 12.4999 8.25Z" fill="#292D32"/>
</svg>
