<svg width="340" height="226" viewBox="0 0 340 226" fill="none" xmlns="http://www.w3.org/2000/svg">
<g clip-path="url(#clip0_5148_36434)">
<path d="M285.448 181.553H54.9281C53.784 181.553 52.8564 182.481 52.8564 183.625C52.8564 184.769 53.784 185.697 54.9281 185.697H285.448C286.592 185.697 287.52 184.769 287.52 183.625C287.52 182.481 286.592 181.553 285.448 181.553Z" fill="#E1E4E5"/>
<path d="M158.043 181.697C158.043 181.697 137.222 155.021 128.521 150.933C119.247 146.577 127.288 161.669 127.288 161.669C127.288 161.669 107.459 142.229 102.801 147.083C98.1433 151.937 103.117 156.479 103.117 156.479C103.117 156.479 86.5137 153.4 84.0914 159.609C80.3714 169.148 107.681 173.892 107.681 173.892C107.681 173.892 94.5981 171.026 97.216 176.932C101.163 185.837 158.043 181.697 158.043 181.697Z" fill="#E1E4E5"/>
<path d="M190.977 169.966C190.977 169.966 183.874 137.475 176.365 132.946C168.855 128.417 160.356 137.594 160.356 137.594C160.356 137.594 148.53 129.202 142.953 131.024C137.377 132.846 142.322 139.124 142.322 139.124C142.322 139.124 123.281 131.616 121.172 135.341C117.248 142.282 137.453 151.494 137.453 151.494C137.453 151.494 128.574 149.607 128.639 154.33C128.737 161.453 149.061 160.746 149.061 160.746C149.061 160.746 141.236 161.709 143.56 165.956C147.731 173.58 190.977 169.966 190.977 169.966ZM68.5038 47.7113C68.5038 47.7113 76.0729 45.6799 78.6824 63.033C81.292 80.3856 81.3104 89.8908 81.3104 89.8908C81.3104 89.8908 82.269 93.6639 85.0827 92.3429C87.8968 91.0216 92.7404 86.2375 96.0245 88.4836C99.4296 90.8144 99.2654 95.4263 96.4905 101.361C93.7156 107.295 88.1149 120.509 87.6121 121.71C87.1167 122.882 87.2192 124.894 89.2799 124.3C91.3411 123.705 104.561 116.185 107.751 122.669C110.948 129.155 100.499 144.412 99.3908 146.1C98.2819 147.787 98.3761 148.703 99.1027 149.456C99.8289 150.209 104.037 147.262 107.882 145.274C111.727 143.286 116.539 141.662 118.068 145.558C119.597 149.454 116.194 162.381 97.2988 178.914L88.0422 186.002L77.155 181.689C54.4206 171.039 47.5664 159.559 47.9581 155.394C48.3502 151.228 53.4205 151.454 57.6689 152.298C61.9174 153.143 66.7764 154.807 67.2657 153.881C67.7549 152.956 67.5971 152.054 66.0633 150.737C64.5296 149.421 50.2648 137.66 51.5394 130.539C52.8118 123.425 67.5979 126.986 69.7426 126.98C71.8855 126.981 71.4214 125.023 70.6233 124.032C69.8074 123.021 60.7587 111.873 56.4519 106.939C52.1429 102.012 50.7085 97.6204 53.3346 94.4379C55.8632 91.3651 61.8481 94.6289 64.916 95.1189C67.9843 95.609 67.8589 91.712 67.8589 91.712C67.8589 91.712 65.2369 82.5729 62.9411 65.1762C60.6454 47.7791 68.6721 47.6736 68.6721 47.6736" fill="#E1E4E5"/>
<path d="M88.236 183.564C86.5044 170.793 83.9597 153.17 81.0763 133.714C78.1978 114.267 75.6124 96.6568 73.8025 83.895C72.9052 77.5274 72.1824 72.3686 71.6788 68.785C71.4291 67.0128 71.2332 65.6323 71.0972 64.6752C71.0306 64.2198 70.9748 63.865 70.9383 63.6066C70.8965 63.3689 70.8701 63.2412 70.8701 63.2412C70.8701 63.2412 70.8754 63.3632 70.8995 63.6111C70.9289 63.868 70.9688 64.2258 71.0193 64.6846C71.1394 65.6447 71.3123 67.0267 71.53 68.8053C71.9753 72.381 72.6574 77.5515 73.5279 83.9345C75.2594 96.7058 77.8061 114.321 80.6827 133.775C83.5589 153.229 86.1515 170.842 87.9542 183.602" fill="white"/>
<path d="M89.5169 95.4548C89.4905 95.4401 89.3082 95.6706 88.979 96.1105C88.6517 96.5433 88.2008 97.1848 87.655 97.9818C86.5619 99.583 85.108 101.827 83.5505 104.345C82.0344 106.821 80.6565 109.063 79.5966 110.793C79.1205 111.556 78.7208 112.204 78.3882 112.741C78.0993 113.199 77.9536 113.462 77.9796 113.477C78.0059 113.491 78.1954 113.263 78.5227 112.83C78.8429 112.395 79.2941 111.754 79.8346 110.948C80.9153 109.336 82.338 107.069 83.8864 104.555L87.884 98.1412C88.3601 97.3784 88.7669 96.7328 89.0995 96.1957C89.3903 95.7301 89.5361 95.4676 89.5169 95.4548ZM76.9019 113.331C76.9633 113.242 72.4648 110.037 66.8491 106.186C61.2348 102.327 56.6275 99.2738 56.5661 99.3631C56.5043 99.4523 61.0051 102.65 66.6189 106.509C72.2399 110.369 76.8401 113.421 76.9019 113.331ZM82.6683 143.007C82.6758 142.979 82.3877 142.872 81.8709 142.688C81.2679 142.489 80.5258 142.245 79.6538 141.95C77.7829 141.329 75.1952 140.454 72.3789 139.39C69.5611 138.333 67.0415 137.288 65.2173 136.52C64.3695 136.165 63.6515 135.859 63.0613 135.611C62.5524 135.399 62.2624 135.299 62.2496 135.318C62.2349 135.344 62.505 135.492 62.9939 135.751C63.4847 136.003 64.2033 136.362 65.1032 136.777C66.8946 137.611 69.4096 138.7 72.235 139.759C75.0581 140.825 77.6662 141.652 79.568 142.215C80.5198 142.492 81.2942 142.7 81.8242 142.834C82.3609 142.971 82.6608 143.036 82.6683 143.007ZM97.6333 129.345C97.6159 129.325 97.3903 129.491 96.9873 129.813C96.4312 130.271 95.8793 130.735 95.3318 131.203C93.5275 132.752 91.7372 134.317 89.9613 135.899C87.881 137.748 86.0082 139.443 84.665 140.682C84.1329 141.171 83.6076 141.666 83.0894 142.169C82.7229 142.524 82.5301 142.736 82.5474 142.756C82.5647 142.776 82.7903 142.61 83.1938 142.288C83.5896 141.964 84.1546 141.489 84.8488 140.897C86.2391 139.708 88.1394 138.052 90.2193 136.202C92.2997 134.352 94.1725 132.658 95.5085 131.416C96.0408 130.928 96.5661 130.433 97.0841 129.93C97.4577 129.577 97.6578 129.366 97.6333 129.345ZM106.052 154.894C106.034 154.875 105.743 155.091 105.232 155.505C104.669 155.973 103.952 156.565 103.103 157.281C100.78 159.254 98.471 161.244 96.1767 163.25C93.4869 165.601 91.0638 167.743 89.3244 169.307C88.6404 169.93 87.9575 170.555 87.2757 171.18C86.8015 171.627 86.5423 171.889 86.5596 171.909C86.577 171.929 86.8689 171.712 87.3797 171.298C87.9428 170.831 88.6599 170.238 89.5082 169.522C91.8318 167.549 94.1408 165.56 96.4351 163.553C99.1249 161.203 101.548 159.06 103.287 157.496C104.106 156.75 104.796 156.12 105.336 155.623C105.817 155.179 106.069 154.914 106.052 154.894ZM86.9152 171.37C86.9228 171.342 86.5627 171.193 85.9129 170.943C85.1852 170.673 84.2526 170.325 83.1331 169.912C80.7876 169.034 77.5441 167.818 74.008 166.373C70.4696 164.934 67.2943 163.547 65.0026 162.526C64.0974 162.129 63.1937 161.728 62.2914 161.324C61.6488 161.046 61.2887 160.897 61.2744 160.923C61.2597 160.95 61.6013 161.139 62.2236 161.464C62.8455 161.79 63.7574 162.245 64.8885 162.782C67.8385 164.189 70.8291 165.509 73.8566 166.74C76.8839 167.973 79.9465 169.118 83.0404 170.174C84.2303 170.576 85.1957 170.887 85.8662 171.089C86.5291 171.29 86.9024 171.39 86.9152 171.37Z" fill="white"/>
<path d="M231.999 74.5039C231.999 74.5039 226.039 72.9042 223.984 86.5685C221.929 100.232 221.915 107.717 221.915 107.717C221.915 107.717 221.16 110.688 218.944 109.648C216.729 108.607 212.914 104.84 210.328 106.609C207.647 108.444 207.777 112.076 209.962 116.749C212.146 121.421 216.556 131.826 216.953 132.772C217.343 133.695 217.262 135.279 215.639 134.811C214.017 134.343 203.606 128.422 201.095 133.527C198.577 138.634 206.805 150.648 207.678 151.977C208.551 153.306 208.477 154.027 207.905 154.62C207.333 155.213 204.019 152.892 200.991 151.327C197.964 149.761 194.175 148.483 192.971 151.551C191.766 154.618 194.446 164.797 209.325 177.816L216.614 183.397L225.187 180.001C243.088 171.615 248.486 162.576 248.177 159.295C247.868 156.015 243.876 156.193 240.531 156.858C237.185 157.523 233.359 158.833 232.974 158.105C232.589 157.376 232.713 156.665 233.921 155.628C235.128 154.592 246.361 145.332 245.357 139.724C244.355 134.122 232.712 136.927 231.023 136.922C229.336 136.922 229.701 135.381 230.33 134.6C230.973 133.804 238.098 125.027 241.489 121.141C244.882 117.261 246.011 113.803 243.943 111.297C241.952 108.878 237.24 111.448 234.824 111.833C232.408 112.22 232.507 109.151 232.507 109.151C232.507 109.151 234.571 101.955 236.379 88.256C238.187 74.557 231.866 74.4741 231.866 74.4741" fill="#E1E4E5"/>
<path d="M216.462 181.477C217.826 171.421 219.829 157.545 222.1 142.225C224.366 126.912 226.403 113.045 227.827 102.996C228.534 97.9816 229.103 93.9196 229.5 91.098C229.696 89.7024 229.851 88.6154 229.957 87.8617C230.01 87.5031 230.054 87.224 230.083 87.0202C230.116 86.833 230.136 86.7324 230.136 86.7324C230.136 86.7324 230.132 86.8285 230.113 87.024C230.09 87.2259 230.059 87.5076 230.019 87.8692C229.924 88.6252 229.788 89.7134 229.617 91.1138C229.266 93.9294 228.729 98.0008 228.044 103.027C226.68 113.083 224.675 126.954 222.41 142.272C220.145 157.591 218.103 171.459 216.684 181.507" fill="white"/>
<path d="M215.454 112.098C215.475 112.087 215.618 112.268 215.877 112.615C216.135 112.955 216.49 113.46 216.92 114.088C217.781 115.349 218.925 117.116 220.152 119.098C221.346 121.048 222.431 122.813 223.265 124.176C223.64 124.777 223.955 125.287 224.217 125.71C224.444 126.071 224.559 126.277 224.538 126.289C224.518 126.3 224.368 126.121 224.111 125.779C223.858 125.437 223.504 124.932 223.078 124.298C222.227 123.028 221.107 121.243 219.887 119.264L216.739 114.214C216.365 113.613 216.044 113.105 215.782 112.682C215.553 112.315 215.439 112.108 215.454 112.098ZM225.387 126.175C225.338 126.105 228.881 123.581 233.303 120.548C237.724 117.51 241.351 115.106 241.4 115.176C241.448 115.246 237.904 117.764 233.484 120.803C229.058 123.842 225.436 126.245 225.387 126.175ZM220.846 149.542C220.84 149.52 221.067 149.435 221.474 149.291C221.949 149.134 222.533 148.941 223.22 148.71C224.693 148.22 226.731 147.532 228.948 146.694C231.167 145.861 233.151 145.039 234.587 144.434C235.255 144.154 235.821 143.914 236.285 143.718C236.686 143.551 236.914 143.472 236.924 143.487C236.936 143.508 236.723 143.624 236.338 143.828C235.79 144.109 235.237 144.379 234.677 144.636C232.836 145.489 230.962 146.272 229.062 146.984C227.161 147.698 225.235 148.343 223.287 148.918C222.538 149.137 221.928 149.3 221.511 149.406C221.088 149.513 220.852 149.564 220.846 149.542ZM209.062 138.784C209.076 138.768 209.254 138.899 209.571 139.153C209.883 139.408 210.328 139.782 210.874 140.247C212.295 141.467 213.705 142.699 215.104 143.945C216.505 145.188 217.895 146.443 219.274 147.711C219.693 148.096 220.107 148.486 220.514 148.882C220.803 149.161 220.955 149.329 220.941 149.344C220.928 149.36 220.75 149.229 220.433 148.975C220.12 148.72 219.676 148.346 219.129 147.881C217.708 146.661 216.299 145.429 214.9 144.183C213.262 142.727 211.787 141.393 210.735 140.415C210.316 140.031 209.903 139.64 209.495 139.244C209.2 138.967 209.043 138.801 209.062 138.784ZM202.433 158.902C202.447 158.887 202.677 159.057 203.079 159.383C203.523 159.751 204.087 160.218 204.755 160.782C206.162 161.973 208.092 163.631 210.21 165.482C212.019 167.06 213.817 168.649 215.605 170.251C216.144 170.742 216.681 171.233 217.218 171.726C217.592 172.077 217.796 172.284 217.782 172.3C217.769 172.316 217.539 172.145 217.136 171.819C216.693 171.451 216.128 170.984 215.46 170.421C213.631 168.867 211.813 167.3 210.006 165.72C208.197 164.142 206.399 162.553 204.61 160.951C203.966 160.363 203.423 159.867 202.997 159.476C202.618 159.126 202.42 158.918 202.433 158.902ZM217.502 171.876C217.496 171.854 217.78 171.736 218.291 171.54C218.864 171.327 219.599 171.053 220.48 170.727C222.327 170.036 224.881 169.079 227.666 167.941C230.046 166.97 232.41 165.96 234.757 164.911C235.469 164.599 236.181 164.283 236.891 163.965C237.397 163.746 237.681 163.629 237.692 163.65C237.704 163.67 237.435 163.819 236.945 164.076C236.455 164.332 235.737 164.69 234.846 165.113C232.523 166.221 230.169 167.26 227.785 168.229C225.401 169.201 222.989 170.102 220.553 170.934C219.616 171.25 218.856 171.496 218.328 171.654C217.806 171.812 217.512 171.891 217.502 171.876Z" fill="white"/>
<path d="M211.834 40.6782C211.657 40.6147 211.479 40.5573 211.298 40.5061C211.238 40.4887 211.179 40.4707 211.119 40.4552C211.056 40.439 210.992 40.4236 210.928 40.4081C210.864 40.3925 210.799 40.3773 210.733 40.3626C210.672 40.349 210.61 40.3373 210.547 40.3253C210.418 40.3007 210.288 40.279 210.158 40.2601C209.939 40.2297 209.719 40.2073 209.498 40.1931C209.452 40.1904 209.406 40.1859 209.36 40.184C209.224 40.1776 209.088 40.1738 208.951 40.1738H146.146C145.573 40.1727 145.001 40.2305 144.44 40.3464C140.856 41.0801 138.097 44.0848 137.721 47.7946C137.692 48.0831 137.678 48.3728 137.678 48.6628V177.336C137.678 181.01 140.006 184.138 143.265 185.32C143.28 185.326 143.294 185.33 143.309 185.335C143.47 185.392 143.634 185.445 143.8 185.492C143.86 185.509 143.919 185.527 143.979 185.543C144.043 185.559 144.107 185.574 144.17 185.59C144.296 185.621 144.423 185.649 144.552 185.672C144.622 185.686 144.691 185.699 144.761 185.71L144.94 185.738C145.016 185.748 145.092 185.757 145.169 185.767C145.224 185.773 145.28 185.779 145.336 185.785C145.423 185.793 145.511 185.799 145.599 185.805C145.646 185.807 145.692 185.812 145.738 185.814C145.874 185.82 146.01 185.824 146.147 185.824H208.953C209.242 185.824 209.531 185.809 209.819 185.78C213.804 185.375 216.974 182.198 217.379 178.202C217.408 177.917 217.422 177.627 217.422 177.334V48.6628C217.42 44.9884 215.092 41.8606 211.834 40.6782Z" fill="#FCAE17"/>
<path fill-rule="evenodd" clip-rule="evenodd" d="M155.933 126.662C155.832 126.715 155.718 126.738 155.604 126.73C155.49 126.721 155.381 126.681 155.289 126.613C155.197 126.546 155.126 126.454 155.083 126.348C155.041 126.242 155.029 126.126 155.049 126.014L155.378 124.126L153.992 122.798C153.909 122.719 153.85 122.618 153.822 122.507C153.793 122.395 153.797 122.278 153.832 122.169C153.867 122.06 153.932 121.963 154.02 121.889C154.108 121.815 154.215 121.768 154.329 121.752L156.253 121.476L157.122 119.743C157.173 119.641 157.251 119.555 157.347 119.495C157.444 119.435 157.556 119.403 157.669 119.403C157.783 119.403 157.895 119.435 157.991 119.495C158.088 119.555 158.166 119.641 158.216 119.743L159.085 121.476L161.01 121.752C161.124 121.767 161.231 121.815 161.319 121.889C161.407 121.963 161.472 122.06 161.507 122.169C161.542 122.278 161.546 122.395 161.518 122.507C161.489 122.618 161.43 122.719 161.347 122.798L159.96 124.126L160.29 126.014C160.31 126.127 160.298 126.242 160.255 126.348C160.213 126.454 160.142 126.546 160.05 126.614C159.958 126.681 159.849 126.721 159.735 126.73C159.621 126.739 159.507 126.715 159.406 126.662L157.669 125.765L155.933 126.662ZM165.726 126.662C165.625 126.715 165.511 126.738 165.397 126.73C165.283 126.721 165.174 126.681 165.082 126.613C164.99 126.546 164.919 126.454 164.877 126.348C164.834 126.242 164.822 126.126 164.842 126.014L165.172 124.126L163.785 122.798C163.702 122.719 163.643 122.618 163.615 122.507C163.587 122.395 163.59 122.278 163.625 122.169C163.661 122.06 163.726 121.963 163.814 121.889C163.901 121.815 164.008 121.768 164.122 121.752L166.047 121.476L166.916 119.743C166.966 119.641 167.044 119.555 167.141 119.495C167.237 119.435 167.349 119.403 167.463 119.403C167.577 119.403 167.688 119.435 167.785 119.495C167.881 119.555 167.959 119.641 168.01 119.743L168.879 121.476L170.804 121.752C170.917 121.767 171.024 121.815 171.112 121.889C171.2 121.963 171.265 122.06 171.3 122.169C171.336 122.278 171.339 122.395 171.311 122.507C171.283 122.618 171.223 122.719 171.14 122.798L169.754 124.126L170.083 126.014C170.103 126.127 170.091 126.242 170.049 126.348C170.006 126.454 169.935 126.546 169.843 126.614C169.751 126.681 169.642 126.721 169.528 126.73C169.414 126.739 169.3 126.715 169.199 126.662L167.463 125.765L165.726 126.662ZM175.519 126.662C175.418 126.715 175.304 126.738 175.191 126.73C175.077 126.721 174.968 126.681 174.876 126.613C174.784 126.546 174.712 126.454 174.67 126.348C174.628 126.242 174.616 126.126 174.636 126.014L174.965 124.126L173.578 122.798C173.495 122.719 173.436 122.618 173.408 122.507C173.38 122.395 173.384 122.278 173.419 122.169C173.454 122.06 173.519 121.963 173.607 121.889C173.695 121.815 173.802 121.768 173.915 121.752L175.84 121.476L176.709 119.743C176.759 119.641 176.837 119.555 176.934 119.495C177.031 119.435 177.142 119.403 177.256 119.403C177.37 119.403 177.481 119.435 177.578 119.495C177.675 119.555 177.753 119.641 177.803 119.743L178.672 121.476L180.597 121.752C180.711 121.767 180.818 121.815 180.905 121.889C180.993 121.963 181.059 122.06 181.094 122.169C181.129 122.278 181.133 122.395 181.104 122.507C181.076 122.618 181.017 122.719 180.934 122.798L179.547 124.126L179.876 126.014C179.896 126.127 179.885 126.242 179.842 126.348C179.8 126.454 179.728 126.546 179.636 126.614C179.544 126.681 179.435 126.721 179.321 126.73C179.208 126.739 179.094 126.715 178.993 126.662L177.256 125.765L175.519 126.662ZM185.689 126.662C185.588 126.715 185.474 126.738 185.361 126.73C185.247 126.721 185.138 126.681 185.046 126.613C184.954 126.546 184.882 126.454 184.84 126.348C184.798 126.242 184.786 126.126 184.806 126.014L185.135 124.126L183.748 122.798C183.665 122.719 183.606 122.618 183.578 122.507C183.55 122.395 183.554 122.278 183.589 122.169C183.624 122.06 183.689 121.963 183.777 121.889C183.865 121.815 183.972 121.768 184.085 121.752L186.01 121.476L186.879 119.743C186.929 119.641 187.007 119.555 187.104 119.495C187.201 119.435 187.312 119.403 187.426 119.403C187.54 119.403 187.651 119.435 187.748 119.495C187.845 119.555 187.923 119.641 187.973 119.743L188.842 121.476L190.767 121.752C190.881 121.767 190.988 121.815 191.075 121.889C191.163 121.963 191.229 122.06 191.264 122.169C191.299 122.278 191.303 122.395 191.274 122.507C191.246 122.618 191.187 122.719 191.104 122.798L189.717 124.126L190.046 126.014C190.066 126.127 190.055 126.242 190.012 126.348C189.97 126.454 189.898 126.546 189.806 126.614C189.714 126.681 189.605 126.721 189.491 126.73C189.378 126.739 189.264 126.715 189.163 126.662L187.426 125.765L185.689 126.662ZM195.859 126.662C195.758 126.715 195.644 126.738 195.531 126.73C195.417 126.721 195.308 126.681 195.216 126.613C195.124 126.546 195.052 126.454 195.01 126.348C194.968 126.242 194.956 126.126 194.976 126.014L195.305 124.126L193.918 122.798C193.835 122.719 193.776 122.618 193.748 122.507C193.72 122.395 193.724 122.278 193.759 122.169C193.794 122.06 193.859 121.963 193.947 121.889C194.035 121.815 194.142 121.768 194.255 121.752L196.18 121.476L197.049 119.743C197.099 119.641 197.177 119.555 197.274 119.495C197.371 119.435 197.482 119.403 197.596 119.403C197.71 119.403 197.821 119.435 197.918 119.495C198.015 119.555 198.093 119.641 198.143 119.743L199.012 121.476L200.937 121.752C201.051 121.767 201.158 121.815 201.245 121.889C201.333 121.963 201.399 122.06 201.434 122.169C201.469 122.278 201.473 122.395 201.444 122.507C201.416 122.618 201.357 122.719 201.274 122.798L199.887 124.126L200.216 126.014C200.236 126.127 200.225 126.242 200.182 126.348C200.14 126.454 200.068 126.546 199.976 126.614C199.884 126.681 199.775 126.721 199.661 126.73C199.548 126.739 199.434 126.715 199.333 126.662L197.596 125.765L195.859 126.662Z" fill="white"/>
<path d="M274.661 90.4001C275.672 90.4001 276.492 91.2198 276.492 92.231C276.492 93.2423 275.672 94.062 274.661 94.062C273.65 94.062 272.83 93.2423 272.83 92.231C272.83 91.2198 273.65 90.4001 274.661 90.4001Z" fill="#E1E4E5"/>
<path d="M57.3241 128.46C58.3354 128.46 59.1551 129.28 59.1551 130.291C59.1551 131.303 58.3354 132.122 57.3241 132.122C56.3129 132.122 55.4932 131.303 55.4932 130.291C55.4932 129.28 56.3129 128.46 57.3241 128.46Z" fill="#E1E4E5"/>
<path d="M223.434 64.7868C224.446 64.7868 225.265 65.6065 225.265 66.6178C225.265 67.629 224.446 68.4487 223.434 68.4487C222.423 68.4487 221.604 67.629 221.604 66.6178C221.604 65.6065 222.423 64.7868 223.434 64.7868Z" fill="#E1E4E5"/>
<path d="M245.921 97.9794L243.073 95.1314L245.921 92.2834L248.769 95.1314L245.921 97.9794Z" stroke="#E1E4E5" stroke-width="4" stroke-linecap="round" stroke-linejoin="round"/>
<path fill-rule="evenodd" clip-rule="evenodd" d="M121.82 128.561H77.6849C76.7617 128.561 75.8728 128.911 75.1984 129.542C74.524 130.172 74.1145 131.035 74.0531 131.957L71.1561 175.386C70.8759 179.585 74.2094 183.148 78.4198 183.148H121.085C125.296 183.148 128.629 179.585 128.349 175.386L125.452 131.957C125.39 131.035 124.981 130.172 124.307 129.542C123.632 128.911 122.743 128.561 121.82 128.561Z" fill="#FCAE17" stroke="#FCAE17" stroke-width="13.417" stroke-linecap="round" stroke-linejoin="round"/>
<path fill-rule="evenodd" clip-rule="evenodd" d="M94.93 164.41C94.6492 164.556 94.3331 164.621 94.0174 164.597C93.7017 164.573 93.3991 164.461 93.1438 164.274C92.8884 164.086 92.6906 163.831 92.5727 163.538C92.4548 163.244 92.4216 162.923 92.4767 162.611L93.3909 157.373L89.5421 153.685C89.3118 153.465 89.1481 153.185 89.0697 152.876C88.9913 152.568 89.0015 152.243 89.099 151.94C89.1966 151.637 89.3775 151.367 89.6212 151.162C89.8648 150.957 90.1613 150.825 90.4766 150.781L95.8204 150.017L98.2329 145.205C98.3732 144.922 98.5897 144.684 98.858 144.518C99.1263 144.351 99.4359 144.263 99.7517 144.263C100.067 144.263 100.377 144.351 100.645 144.518C100.914 144.684 101.13 144.922 101.27 145.205L103.683 150.017L109.027 150.781C109.342 150.825 109.639 150.957 109.882 151.162C110.126 151.367 110.307 151.637 110.404 151.94C110.502 152.243 110.512 152.568 110.434 152.876C110.355 153.185 110.192 153.465 109.961 153.685L106.112 157.373L107.027 162.612C107.082 162.924 107.049 163.245 106.931 163.539C106.814 163.833 106.616 164.089 106.36 164.276C106.105 164.463 105.802 164.575 105.486 164.599C105.17 164.623 104.854 164.558 104.573 164.411L99.7517 161.92L94.93 164.41Z" fill="white"/>
<path d="M110.672 135.219V120.663C110.672 114.633 105.785 109.745 99.7551 109.745H99.7513C93.7212 109.745 88.834 114.633 88.834 120.663V135.219" stroke="#FCAE17" stroke-width="13.417" stroke-linecap="round" stroke-linejoin="round"/>
<path fill-rule="evenodd" clip-rule="evenodd" d="M125.239 81.056C125.165 81.0949 125.081 81.1121 124.997 81.1058C124.913 81.0994 124.833 81.0697 124.765 81.02C124.697 80.9703 124.645 80.9027 124.614 80.8247C124.582 80.7467 124.573 80.6615 124.588 80.5788L124.831 79.1889L123.81 78.2103C123.749 78.1519 123.705 78.0775 123.685 77.9956C123.664 77.9138 123.667 77.8277 123.693 77.7474C123.718 77.667 123.766 77.5955 123.831 77.541C123.895 77.4865 123.974 77.4513 124.057 77.4393L125.475 77.2366L126.115 75.9601C126.152 75.885 126.21 75.8218 126.281 75.7776C126.352 75.7334 126.434 75.71 126.518 75.71C126.602 75.71 126.684 75.7334 126.755 75.7776C126.827 75.8218 126.884 75.885 126.921 75.9601L127.561 77.2366L128.979 77.4393C129.062 77.4513 129.141 77.4865 129.206 77.541C129.27 77.5955 129.318 77.667 129.344 77.7474C129.37 77.8277 129.372 77.9138 129.352 77.9956C129.331 78.0775 129.288 78.1519 129.227 78.2103L128.206 79.1889L128.448 80.5792C128.463 80.662 128.455 80.7473 128.423 80.8255C128.392 80.9036 128.34 80.9714 128.272 81.0212C128.204 81.0709 128.124 81.1006 128.04 81.1068C127.956 81.1131 127.872 81.0956 127.797 81.0564L126.518 80.3954L125.239 81.056ZM227.876 86.3584C227.775 86.4113 227.661 86.4348 227.547 86.4262C227.433 86.4177 227.324 86.3773 227.232 86.3099C227.14 86.2424 227.069 86.1505 227.026 86.0445C226.984 85.9386 226.972 85.8229 226.992 85.7105L227.321 83.823L225.935 82.4945C225.852 82.4153 225.793 82.3143 225.765 82.2031C225.736 82.0919 225.74 81.975 225.775 81.8658C225.81 81.7566 225.875 81.6594 225.963 81.5856C226.051 81.5117 226.158 81.4641 226.272 81.4482L228.196 81.1728L229.065 79.4394C229.116 79.3373 229.194 79.2514 229.29 79.1913C229.387 79.1312 229.499 79.0994 229.612 79.0994C229.726 79.0994 229.838 79.1312 229.934 79.1913C230.031 79.2514 230.109 79.3373 230.16 79.4394L231.028 81.1728L232.953 81.4482C233.067 81.464 233.174 81.5115 233.262 81.5854C233.35 81.6592 233.415 81.7563 233.45 81.8656C233.485 81.9749 233.489 82.0919 233.461 82.2031C233.432 82.3144 233.373 82.4154 233.29 82.4945L231.903 83.823L232.233 85.7109C232.253 85.8232 232.241 85.9389 232.198 86.0449C232.156 86.1508 232.085 86.2428 231.993 86.3102C231.901 86.3777 231.792 86.418 231.678 86.4266C231.564 86.4352 231.45 86.4117 231.349 86.3588L229.612 85.4612L227.876 86.3584Z" fill="#E1E4E5"/>
<path fill-rule="evenodd" clip-rule="evenodd" d="M191.378 82.7627V100.752C191.388 101.671 191.094 102.568 190.54 103.302C189.986 104.036 189.204 104.566 188.318 104.808C182.022 106.298 175.466 106.298 169.17 104.808C168.284 104.566 167.502 104.036 166.948 103.302C166.394 102.568 166.099 101.671 166.11 100.752V82.7627" fill="white"/>
<path d="M191.378 82.7627V100.752C191.388 101.671 191.094 102.568 190.54 103.302C189.986 104.036 189.204 104.566 188.318 104.808C182.022 106.298 175.466 106.298 169.17 104.808C168.284 104.566 167.502 104.036 166.948 103.302C166.394 102.568 166.099 101.671 166.11 100.752V82.7627" stroke="white" stroke-width="7.76" stroke-linecap="round" stroke-linejoin="round"/>
<path fill-rule="evenodd" clip-rule="evenodd" d="M191.411 86.9739L198.202 85.3742C198.479 85.3088 198.74 85.1878 198.969 85.0186C199.198 84.8494 199.391 84.6356 199.535 84.3899C199.679 84.1443 199.772 83.872 199.808 83.5895C199.844 83.3069 199.822 83.0201 199.744 82.7462L197.19 73.806C196.86 72.6509 196.286 71.5798 195.508 70.6645C194.73 69.7492 193.765 69.0109 192.678 68.4992L188.895 66.7187C187.773 66.1906 186.548 65.9168 185.308 65.9167H172.229C170.989 65.9167 169.764 66.1906 168.642 66.7187L164.859 68.4992C163.772 69.0109 162.807 69.7492 162.029 70.6645C161.251 71.5798 160.677 72.6509 160.347 73.806L157.793 82.7462C157.715 83.0201 157.693 83.307 157.729 83.5896C157.764 83.8721 157.857 84.1445 158.001 84.3902C158.145 84.6358 158.338 84.8497 158.567 85.0189C158.796 85.188 159.057 85.3089 159.335 85.3742L166.126 86.9739" fill="white"/>
<path d="M191.411 86.9739L198.202 85.3742C198.479 85.3088 198.74 85.1878 198.969 85.0186C199.198 84.8494 199.391 84.6356 199.535 84.3899C199.679 84.1443 199.772 83.872 199.808 83.5895C199.844 83.3069 199.822 83.0201 199.744 82.7462L197.19 73.806C196.86 72.6509 196.286 71.5798 195.508 70.6645C194.73 69.7492 193.765 69.0109 192.678 68.4992L188.895 66.7187C187.773 66.1906 186.548 65.9168 185.308 65.9167H172.229C170.989 65.9167 169.764 66.1906 168.642 66.7187L164.859 68.4992C163.772 69.0109 162.807 69.7492 162.029 70.6645C161.251 71.5798 160.677 72.6509 160.347 73.806L157.793 82.7462C157.715 83.0201 157.693 83.307 157.729 83.5896C157.764 83.8721 157.857 84.1445 158.001 84.3902C158.145 84.6358 158.338 84.8497 158.567 85.0189C158.796 85.188 159.057 85.3089 159.335 85.3742L166.126 86.9739" stroke="white" stroke-width="7.76" stroke-linecap="round" stroke-linejoin="round"/>
<path fill-rule="evenodd" clip-rule="evenodd" d="M270.513 183.759H237.151C232.364 183.759 228.558 179.736 228.825 174.957L230.532 144.22C230.86 138.326 235.733 133.717 241.636 133.717H266.032C271.934 133.717 276.807 138.326 277.135 144.22L278.842 174.954C279.106 179.736 275.301 183.759 270.513 183.759Z" fill="#FCAE17" stroke="#FCAE17" stroke-width="10.25" stroke-linecap="round" stroke-linejoin="round"/>
<path d="M262.377 141.65C262.377 145.919 258.551 149.38 253.833 149.38C249.114 149.38 245.289 145.919 245.289 141.65" stroke="white" stroke-width="8.625" stroke-linecap="round" stroke-linejoin="round"/>
<path d="M273.828 112.366C274.676 118.213 270.617 123.641 264.754 124.493C258.894 125.345 253.454 121.295 252.602 115.447C251.754 109.604 255.817 104.172 261.676 103.32C267.54 102.468 272.98 106.518 273.828 112.366Z" fill="url(#paint0_linear_5148_36434)"/>
<path d="M271.304 112.733C271.95 117.188 268.857 121.327 264.39 121.977C259.924 122.624 255.776 119.538 255.13 115.084C254.484 110.625 257.578 106.486 262.044 105.84C266.511 105.189 270.654 108.275 271.304 112.733Z" fill="white"/>
<path d="M264.805 118.545L265.04 119.964L263.735 120.168L263.509 118.785C262.204 118.912 260.904 118.712 260.099 118.276L260.56 116.62C261.29 116.987 262.284 117.183 263.236 117.126L262.888 115.009C261.387 114.891 259.692 114.675 259.394 112.865C259.172 111.523 259.985 110.214 262.007 109.663L261.776 108.257L263.081 108.053L263.308 109.435C264.297 109.358 265.291 109.464 266.08 109.794L265.686 111.454C264.96 111.188 264.247 111.078 263.584 111.103L263.941 113.256C265.442 113.358 267.108 113.582 267.402 115.368C267.615 116.69 266.814 117.986 264.805 118.545ZM262.582 113.146L262.284 111.347C261.617 111.608 261.407 112.016 261.474 112.436C261.55 112.877 261.978 113.06 262.582 113.146ZM265.325 115.853C265.254 115.409 264.835 115.23 264.243 115.124L264.532 116.873C265.161 116.632 265.392 116.257 265.325 115.853Z" fill="#E1E4E5"/>
<path d="M129.605 56.2547C130.141 59.9461 127.579 63.3722 123.878 63.9101C120.179 64.448 116.745 61.8912 116.207 58.1998C115.672 54.5111 118.237 51.0827 121.935 50.5448C125.637 50.007 129.07 52.5638 129.605 56.2547Z" fill="url(#paint1_linear_5148_36434)"/>
<path d="M128.012 56.4867C128.42 59.2985 126.468 61.9115 123.648 62.3216C120.829 62.7296 118.211 60.7822 117.803 57.9704C117.395 55.1559 119.348 52.5434 122.167 52.1354C124.987 51.7249 127.602 53.6726 128.012 56.4867Z" fill="white"/>
<path d="M123.91 60.1555L124.058 61.0512L123.235 61.1797L123.092 60.3073C122.268 60.3872 121.447 60.261 120.939 59.9857L121.23 58.9404C121.691 59.1721 122.319 59.2956 122.919 59.2594L122.7 57.9238C121.752 57.8492 120.682 57.7125 120.494 56.5697C120.354 55.7229 120.868 54.8965 122.144 54.5492L121.998 53.661L122.821 53.5322L122.965 54.405C123.59 54.356 124.217 54.423 124.715 54.6313L124.466 55.6792C124.008 55.5116 123.558 55.4423 123.139 55.4577L123.364 56.8168C124.312 56.8812 125.364 57.0228 125.549 58.1502C125.684 58.9841 125.178 59.8026 123.91 60.1555ZM122.507 56.7475L122.319 55.6122C121.898 55.7768 121.765 56.0344 121.808 56.2996C121.855 56.5776 122.125 56.6932 122.507 56.7475ZM124.238 58.4564C124.193 58.1758 123.929 58.0628 123.555 57.9957L123.738 59.1001C124.135 58.9483 124.281 58.7114 124.238 58.4564Z" fill="#E1E4E5"/>
<path d="M131.9 101.043C132.676 106.395 128.962 111.363 123.594 112.143C118.231 112.923 113.253 109.216 112.473 103.863C111.696 98.5148 115.415 93.5436 120.778 92.7635C126.145 91.9838 131.124 95.6909 131.9 101.043Z" fill="url(#paint2_linear_5148_36434)"/>
<path d="M129.59 101.379C130.181 105.456 127.35 109.245 123.262 109.84C119.174 110.431 115.377 107.608 114.786 103.531C114.195 99.4501 117.026 95.6616 121.114 95.0698C125.202 94.4751 128.995 97.2989 129.59 101.379Z" fill="white"/>
<path d="M123.643 106.699L123.857 107.998L122.663 108.184L122.456 106.919C121.262 107.035 120.072 106.852 119.335 106.452L119.757 104.937C120.425 105.273 121.335 105.452 122.206 105.4L121.888 103.463C120.513 103.355 118.962 103.157 118.69 101.5C118.486 100.272 119.231 99.0736 121.082 98.57L120.87 97.2822L122.064 97.0957L122.272 98.3609C123.178 98.2897 124.088 98.3869 124.809 98.6894L124.449 100.208C123.785 99.9659 123.132 99.865 122.525 99.8872L122.852 101.858C124.226 101.951 125.75 102.157 126.019 103.791C126.215 105.001 125.481 106.188 123.643 106.699ZM121.607 101.757L121.335 100.111C120.725 100.35 120.532 100.723 120.594 101.108C120.663 101.511 121.055 101.679 121.607 101.757ZM124.118 104.235C124.053 103.829 123.669 103.664 123.128 103.568L123.393 105.168C123.969 104.948 124.18 104.605 124.118 104.235Z" fill="#E1E4E5"/>
<path d="M155.309 154.81H198.249C199.081 154.81 199.756 155.485 199.756 156.317C199.756 157.149 199.081 157.823 198.249 157.823H155.309C154.477 157.823 153.803 157.149 153.803 156.317C153.803 155.485 154.477 154.81 155.309 154.81Z" fill="white"/>
<path d="M155.309 145.77H194.859C195.691 145.77 196.365 146.445 196.365 147.277C196.365 148.109 195.691 148.783 194.859 148.783H155.309C154.476 148.783 153.802 148.109 153.802 147.277C153.802 146.445 154.476 145.77 155.309 145.77Z" fill="white"/>
<path d="M155.309 136.73H200.132C200.964 136.73 201.639 137.405 201.639 138.237C201.639 139.069 200.964 139.743 200.132 139.743H155.309C154.477 139.743 153.802 139.069 153.802 138.237C153.802 137.405 154.477 136.73 155.309 136.73Z" fill="white"/>
<path fill-rule="evenodd" clip-rule="evenodd" d="M259.458 88.5168C252.698 88.5168 247.217 83.0355 247.217 76.2751C247.217 69.5147 252.698 64.0334 259.458 64.0334C266.219 64.0334 271.7 69.5147 271.7 76.2751C271.7 83.0355 266.219 88.5168 259.458 88.5168Z" fill="#FCAE17"/>
<path d="M263.539 74.4199L258.439 79.6134L255.378 76.498" stroke="white" stroke-width="4.883" stroke-linecap="round" stroke-linejoin="round"/>
<path fill-rule="evenodd" clip-rule="evenodd" d="M236.482 65.9166C232.634 65.9166 229.514 62.7967 229.514 58.9483C229.514 55.0999 232.634 51.98 236.482 51.98C240.33 51.98 243.45 55.0999 243.45 58.9483C243.45 62.7967 240.33 65.9166 236.482 65.9166Z" fill="#FCAE17"/>
<path d="M238.805 57.8926L235.902 60.8487L234.159 59.0753" stroke="white" stroke-width="2.892" stroke-linecap="round" stroke-linejoin="round"/>
<path d="M110.849 70.0601H88.2638C84.1033 70.0601 80.7305 73.4328 80.7305 77.5934V90.9948C80.7305 95.1554 84.1033 98.5282 88.2638 98.5282H110.849C115.009 98.5282 118.382 95.1554 118.382 90.9948V77.5934C118.382 73.4328 115.009 70.0601 110.849 70.0601Z" fill="#FCAE17"/>
<path d="M103.166 95.2512L101.267 93.3522C100.237 92.3225 98.5676 92.3225 97.5379 93.3522L95.6389 95.2512C94.6092 96.2809 94.6092 97.9504 95.6389 98.98L97.5379 100.879C98.5676 101.909 100.237 101.909 101.267 100.879L103.166 98.98C104.195 97.9504 104.195 96.2809 103.166 95.2512Z" fill="#FCAE17"/>
<path fill-rule="evenodd" clip-rule="evenodd" d="M103.39 76.1824C106.684 76.1824 108.892 79.2609 108.892 82.1277C108.892 87.9476 99.723 92.712 99.5562 92.712C99.3889 92.712 90.2197 87.9476 90.2197 82.1277C90.2197 79.2609 92.4281 76.1824 95.7221 76.1824C97.6047 76.1824 98.8413 77.1173 99.5562 77.9501C100.271 77.1173 101.507 76.1824 103.39 76.1824Z" fill="white"/>
</g>
<defs>
<linearGradient id="paint0_linear_5148_36434" x1="263.672" y1="136.604" x2="263.014" y2="79.9276" gradientUnits="userSpaceOnUse">
<stop stop-color="white"/>
<stop offset="1" stop-color="#EEEEEE"/>
</linearGradient>
<linearGradient id="paint1_linear_5148_36434" x1="123.195" y1="71.5549" x2="122.78" y2="35.7788" gradientUnits="userSpaceOnUse">
<stop stop-color="white"/>
<stop offset="1" stop-color="#EEEEEE"/>
</linearGradient>
<linearGradient id="paint2_linear_5148_36434" x1="122.605" y1="123.228" x2="122.002" y2="71.353" gradientUnits="userSpaceOnUse">
<stop stop-color="white"/>
<stop offset="1" stop-color="#EEEEEE"/>
</linearGradient>
<clipPath id="clip0_5148_36434">
<rect width="339" height="226" fill="white" transform="translate(0.5)"/>
</clipPath>
</defs>
</svg>
