<svg width="50" height="51" viewBox="0 0 50 51" fill="none" xmlns="http://www.w3.org/2000/svg">
<circle cx="25" cy="25.5" r="25" fill="#007AFF" fill-opacity="0.15"/>
<path d="M30 34.75H20C16.35 34.75 14.25 32.65 14.25 29V22C14.25 18.35 16.35 16.25 20 16.25H30C33.65 16.25 35.75 18.35 35.75 22V29C35.75 32.65 33.65 34.75 30 34.75ZM20 17.75C17.14 17.75 15.75 19.14 15.75 22V29C15.75 31.86 17.14 33.25 20 33.25H30C32.86 33.25 34.25 31.86 34.25 29V22C34.25 19.14 32.86 17.75 30 17.75H20Z" fill="#007AFF"/>
<path d="M24.9998 26.37C24.1598 26.37 23.3098 26.11 22.6598 25.58L19.5298 23.08C19.2098 22.82 19.1498 22.35 19.4098 22.03C19.6698 21.71 20.1398 21.65 20.4598 21.91L23.5898 24.41C24.3498 25.02 25.6398 25.02 26.3998 24.41L29.5298 21.91C29.8498 21.65 30.3298 21.7 30.5798 22.03C30.8398 22.35 30.7898 22.83 30.4598 23.08L27.3298 25.58C26.6898 26.11 25.8398 26.37 24.9998 26.37Z" fill="#007AFF"/>
</svg>
