<svg width="21" height="20" viewBox="0 0 21 20" fill="none" xmlns="http://www.w3.org/2000/svg">
<path d="M15.6587 14.7917H6.78365C5.95865 14.7917 5.16699 14.4417 4.60865 13.8333C4.05032 13.225 3.76699 12.4083 3.83366 11.5833L4.52533 3.28333C4.55033 3.02499 4.45865 2.77499 4.28365 2.58333C4.10865 2.39166 3.86699 2.29166 3.60866 2.29166H2.16699C1.82533 2.29166 1.54199 2.00832 1.54199 1.66666C1.54199 1.32499 1.82533 1.04166 2.16699 1.04166H3.617C4.22533 1.04166 4.80032 1.29999 5.20865 1.74165C5.43365 1.99165 5.60032 2.28333 5.69199 2.60833H16.1003C16.942 2.60833 17.717 2.94166 18.2837 3.54166C18.842 4.14999 19.1253 4.94166 19.0587 5.78333L18.6087 12.0333C18.517 13.5583 17.1837 14.7917 15.6587 14.7917ZM5.73366 3.84999L5.08366 11.6833C5.04199 12.1666 5.20032 12.625 5.52532 12.9833C5.85032 13.3416 6.30032 13.5333 6.78365 13.5333H15.6587C16.5253 13.5333 17.3087 12.8 17.3753 11.9333L17.8253 5.68333C17.8587 5.19166 17.7003 4.725 17.3753 4.38333C17.0503 4.03333 16.6003 3.84164 16.1087 3.84164H5.73366V3.84999Z" fill="white"/>
<path d="M14.0417 18.9583C13.125 18.9583 12.375 18.2083 12.375 17.2917C12.375 16.375 13.125 15.625 14.0417 15.625C14.9583 15.625 15.7083 16.375 15.7083 17.2917C15.7083 18.2083 14.9583 18.9583 14.0417 18.9583ZM14.0417 16.875C13.8083 16.875 13.625 17.0583 13.625 17.2917C13.625 17.525 13.8083 17.7083 14.0417 17.7083C14.275 17.7083 14.4583 17.525 14.4583 17.2917C14.4583 17.0583 14.275 16.875 14.0417 16.875Z" fill="white"/>
<path d="M7.37467 18.9583C6.45801 18.9583 5.70801 18.2083 5.70801 17.2917C5.70801 16.375 6.45801 15.625 7.37467 15.625C8.29134 15.625 9.04134 16.375 9.04134 17.2917C9.04134 18.2083 8.29134 18.9583 7.37467 18.9583ZM7.37467 16.875C7.14134 16.875 6.95801 17.0583 6.95801 17.2917C6.95801 17.525 7.14134 17.7083 7.37467 17.7083C7.60801 17.7083 7.79134 17.525 7.79134 17.2917C7.79134 17.0583 7.60801 16.875 7.37467 16.875Z" fill="white"/>
<path d="M18 7.29166H8C7.65833 7.29166 7.375 7.00832 7.375 6.66666C7.375 6.32499 7.65833 6.04166 8 6.04166H18C18.3417 6.04166 18.625 6.32499 18.625 6.66666C18.625 7.00832 18.3417 7.29166 18 7.29166Z" fill="white"/>
</svg>
